<?xml version="1.0" encoding="utf-8"?>
<!-- Generator: Adobe Illustrator 25.1.0, SVG Export Plug-In . SVG Version: 6.00 Build 0)  -->
<svg version="1.1" id="Calque_1" xmlns="http://www.w3.org/2000/svg" xmlns:xlink="http://www.w3.org/1999/xlink" x="0px" y="0px"
	 viewBox="0 0 612.5 611.1" style="enable-background:new 0 0 612.5 611.1;" xml:space="preserve">
<style type="text/css">
	.st0{fill:#00B9AF;}
	.st1{fill:#5A6473;}
	.st2{display:none;fill:#5A6471;}
</style>
<g>
	<rect x="416.4" y="207.1" class="st0" width="109.4" height="109.4"/>
	<g>
		<path class="st1" d="M87.9,85.9h16v70.7h36.3v15H87.9V85.9z"/>
		<path class="st1" d="M167.3,171.5V85.9H222v14.2h-38.7v20.5h33.2v14.2h-33.2v22.5h39.4v14.2H167.3z M211.4,61.6l-13.5,16.1h-12.4
			l10.8-16.5h15L211.4,61.6z"/>
		<path class="st2" d="M300,117.7h-16.4c0-13.2-6.1-19.6-15.1-19.6c-11.9,0-17.6,10.4-17.6,27.5v6.2c0,17.1,5.9,27.5,18.1,27.5
			c9.3,0,15.4-6.2,15.4-19.5H300c0,22.5-13.4,33.2-31.5,33.2c-21.5,0-34.2-14.1-34.2-44.3c0-30.2,12.6-44.3,34.2-44.3
			C286.3,84.4,300,94.5,300,117.7z"/>
		<path class="st1" d="M388.1,128.7c0,30.2-13.5,44.3-35.7,44.3s-35.7-14.1-35.7-44.3c0-30.2,13.5-44.3,35.7-44.3
			S388.1,98.5,388.1,128.7z M333.3,125.6v6.2c0,17.1,6.4,27.5,19.1,27.5c12.8,0,19.1-10.4,19.1-27.5v-6.2c0-17.1-6.4-27.5-19.1-27.5
			C339.6,98.1,333.3,108.5,333.3,125.6z"/>
		<path class="st1" d="M403.8,85.9h16v70.7h36.3v15h-52.3V85.9z"/>
		<path class="st1" d="M470.4,171.5V85.9h55.4v14.2h-39.4v20.5h33.2v14.2h-33.2v22.5h39.4v14.2H470.4z"/>
		<path class="st1" d="M287.6,140.9c-2,11.5-8.1,18.2-18.3,18.2c-12.7,0-19.1-10.3-19.1-27.4v-6.2c0-17.1,6.4-27.4,19.1-27.4
			c11,0,17.2,7.7,18.7,20.8h16.3c-2.7-23.4-15.5-34.5-35-34.5c-22.1,0-35.6,14.1-35.6,44.2c0,30.1,13.5,44.2,35.6,44.2
			c18.8,0,31.4-10.2,34.7-31.9H287.6z"/>
	</g>
	<g>
		<path class="st1" d="M87.7,246v-38.9h13c10,0,16,6.3,16,18.9c0,13.3-6.1,20-16,20H87.7z M95.2,213.6v25.9h4.8c5.5,0,9-4,9-12.1
			v-2.8c0-7.3-3.5-11-9-11H95.2z"/>
		<path class="st1" d="M124,246v-38.9h25.5v6.5h-18v9.3h15.5v6.5h-15.5v10.2h18.4v6.5H124z"/>
		<path class="st1" d="M183.5,217.9v0.7h-7.6v-0.5c0-3.3-2-5.4-5.4-5.4c-3.6,0-5.6,1.8-5.6,4.1c0,7.9,19.4,3.2,19.4,17.5
			c0,8.9-5.8,12.3-14.1,12.3c-7.4,0-13.8-4.1-13.8-12.1c0-0.5,0.1-1,0.1-1.2h7.8c0,0.1-0.1,0.6-0.1,0.9c0,3.7,2.3,6.2,6.4,6.2
			c4.5,0,6.1-2.3,6.1-4.6c0-9.2-19.4-3.7-19.4-18.5c0-7.4,6.3-10.9,13.4-10.9C177.6,206.5,183.5,209.9,183.5,217.9z"/>
		<path class="st1" d="M222.7,229.3h-12.6V246h-7.5v-38.9h7.5v15.7h12.6v-15.7h7.5V246h-7.5V229.3z"/>
		<path class="st1" d="M271.1,246h-7.6l-2.5-7.6h-14.8l-2.4,7.6h-7.2l12.9-38.9h8.7L271.1,246z M253.5,213.6c0,0-0.6,3.5-1.2,5.3
			l-4.1,13H259l-4-13c-0.6-2-1.2-5.3-1.2-5.3H253.5z"/>
		<path class="st1" d="M275.3,207.1h7.5v26.4c0,4.5,2.3,6.9,6.2,6.9c4,0,6.3-2.4,6.3-6.9v-26.4h7.5v26.7c0,8.4-5.2,12.9-13.8,12.9
			c-8.6,0-13.7-4.4-13.7-12.9V207.1z"/>
		<path class="st1" d="M336.6,213.6h-9.9V246h-7.5v-32.4h-9.9v-6.5h27.3V213.6z"/>
		<path class="st1" d="M342.2,246v-38.9h25.5v6.5h-18v9.3h15.5v6.5h-15.5v10.2H368v6.5H342.2z"/>
		<path class="st1" d="M399.7,217.9v0.7H392V218c0-3.3-2-5.4-5.4-5.4c-3.6,0-5.6,1.8-5.6,4.1c0,7.9,19.4,3.2,19.4,17.5
			c0,8.9-5.8,12.3-14.1,12.3c-7.4,0-13.8-4.1-13.8-12.1c0-0.5,0.1-1,0.1-1.2h7.8c0,0.1-0.1,0.6-0.1,0.9c0,3.7,2.3,6.2,6.4,6.2
			c4.5,0,6.1-2.3,6.1-4.6c0-9.2-19.4-3.7-19.4-18.5c0-7.4,6.3-10.9,13.4-10.9C393.8,206.4,399.7,209.9,399.7,217.9z"/>
	</g>
	<g>
		<path class="st1" d="M87.7,316.5v-42.1h27.7v7H95.8v10.1h16.8v7H95.8v11.1h19.9v7H87.7z M110,262.4l-6.8,7.9h-6.3l5.4-8.1h7.6
			L110,262.4z"/>
		<path class="st1" d="M152.3,281.4h-10.8v35.1h-8.1v-35.1h-10.8v-7h29.6V281.4z"/>
		<path class="st1" d="M160.7,274.4h8.1V303c0,4.9,2.5,7.4,6.8,7.4s6.8-2.6,6.8-7.4v-28.7h8.1v28.9c0,9.2-5.6,13.9-14.9,13.9
			s-14.9-4.8-14.9-13.9V274.4z"/>
		<path class="st1" d="M201.6,316.5v-42.1h14.1c10.8,0,17.4,6.9,17.4,20.5c0,14.4-6.6,21.7-17.4,21.7H201.6z M209.7,281.4v28.1h5.3
			c6,0,9.8-4.4,9.8-13.1v-3.1c0-7.9-3.8-11.9-9.8-11.9H209.7z"/>
		<path class="st1" d="M242.6,316.5v-42.1h27.7v7h-19.6v10.1h16.8v7h-16.8v11.1h19.9v7H242.6z"/>
		<path class="st1" d="M308.4,286v0.7h-8.3v-0.6c0-3.6-2.2-5.8-5.9-5.8c-3.9,0-6.1,1.9-6.1,4.5c0,8.5,21.1,3.5,21.1,19
			c0,9.6-6.3,13.4-15.3,13.4c-8,0-15-4.4-15-13.1c0-0.5,0.1-1,0.1-1.4h8.4c0,0.1-0.1,0.7-0.1,1c0,4,2.5,6.7,7,6.7
			c4.9,0,6.6-2.5,6.6-5c0-10-21.1-4.1-21.1-20.1c0-8,6.8-11.8,14.5-11.8C302,273.6,308.4,277.4,308.4,286z"/>
		<path class="st1" d="M329.9,316.5v-42.1h27.7v7H338v10.1h16.8v7H338v11.1h19.9v7H329.9z"/>
		<path class="st1" d="M389.7,316.5l-13.4-23.2c-0.5-0.9-2-3.9-2-3.9l-0.3,0.2c0,0,0.1,2.4,0.1,3.5v23.5H367v-42.1h7.2l13.4,23.2
			c0.7,1,2,3.9,2,3.9l0.2-0.2c0,0-0.1-2.8-0.1-3.5v-23.5h7.2v42.1H389.7z"/>
	</g>
	<g>
		<path class="st1" d="M132.7,474.6v1.2h-13v-0.9c0-5.8-3.5-9.4-9.2-9.4c-6.2,0-9.5,3.1-9.5,7.2c0,13.8,33.1,5.7,33.1,30.7
			c0,15.6-9.9,21.6-24.1,21.6c-12.5,0-23.6-7.1-23.6-21.1c0-0.8,0.1-1.7,0.1-2.2h13.2c0,0.2-0.1,1.1-0.1,1.6c0,6.4,4,10.8,10.9,10.8
			c7.7,0,10.3-4.1,10.3-8c0-16.2-33.1-6.5-33.1-32.4c0-12.9,10.7-19.1,22.8-19.1C122.7,454.5,132.7,460.6,132.7,474.6z"/>
		<path class="st1" d="M200.1,489.8c0,24-10.7,35.2-28.3,35.2c-17.6,0-28.3-11.2-28.3-35.2c0-24,10.7-35.2,28.3-35.2
			C189.3,454.5,200.1,465.8,200.1,489.8z M156.5,487.3v5c0,13.6,5.1,21.8,15.2,21.8c10.1,0,15.2-8.2,15.2-21.8v-5
			c0-13.6-5.1-21.8-15.2-21.8C161.6,465.5,156.5,473.7,156.5,487.3z"/>
		<path class="st2" d="M262.6,481h-13c0-10.5-4.9-15.6-12-15.6c-9.4,0-14,8.2-14,21.8v5c0,13.6,4.7,21.8,14.4,21.8
			c7.4,0,12.2-5,12.2-15.5h12.4c0,17.9-10.6,26.4-25.1,26.4c-17.1,0-27.1-11.2-27.1-35.2c0-24,10-35.2,27.1-35.2
			C251.7,454.5,262.6,462.6,262.6,481z"/>
		<path class="st1" d="M290.1,523.8h-12.7v-68.1h12.7V523.8z"/>
		<path class="st1" d="M360.4,523.8h-13l-4.2-13.4H318l-4.1,13.4h-12.3l22-68.1h14.8L360.4,523.8z M330.5,467.1c0,0-1,6.1-2,9.2
			l-7,22.7h18.2l-6.9-22.7c-1.1-3.6-2-9.2-2-9.2H330.5z"/>
		<path class="st1" d="M373,455.7h12.7v56.2h28.8v11.9H373V455.7z"/>
		<path class="st1" d="M426.1,523.8v-68.1h43.4V467h-30.7v16.3h26.3v11.3h-26.3v17.9h31.3v11.3H426.1z"/>
		<path class="st1" d="M525.9,474.6v1.2h-13v-0.9c0-5.8-3.5-9.4-9.2-9.4c-6.2,0-9.5,3.1-9.5,7.2c0,13.8,33.1,5.7,33.1,30.7
			c0,15.6-9.9,21.6-24.1,21.6c-12.5,0-23.6-7.1-23.6-21.1c0-0.8,0.1-1.7,0.1-2.2h13.2c0,0.2-0.1,1.1-0.1,1.6c0,6.4,4,10.8,10.9,10.8
			c7.7,0,10.3-4.1,10.3-8c0-16.2-33.1-6.5-33.1-32.4c0-12.9,10.7-19.1,22.8-19.1C515.8,454.5,525.9,460.6,525.9,474.6z"/>
		<path class="st1" d="M252.2,499.9c-1.7,9-6.5,14.2-14.6,14.2c-10.1,0-15.2-8.2-15.2-21.8v-5c0-13.6,5.1-21.8,15.2-21.8
			c8.8,0,13.8,6.3,15,16.9h13c-2.1-18.9-12.3-27.8-27.9-27.8c-17.6,0-28.3,11.2-28.3,35.2c0,24,10.7,35.2,28.3,35.2
			c14.9,0,24.9-8.1,27.6-25.1H252.2z"/>
	</g>
	<g>
		<path class="st1" d="M132.7,371v1.2h-13v-0.9c0-5.8-3.5-9.4-9.2-9.4c-6.2,0-9.5,3.1-9.5,7.2c0,13.8,33.1,5.7,33.1,30.7
			c0,15.6-9.9,21.6-24.1,21.6c-12.5,0-23.6-7.1-23.6-21.1c0-0.8,0.1-1.7,0.1-2.2h13.2c0,0.2-0.1,1.1-0.1,1.6c0,6.4,4,10.8,10.9,10.8
			c7.7,0,10.3-4.1,10.3-8c0-16.2-33.1-6.5-33.1-32.4c0-12.9,10.7-19.1,22.8-19.1C122.6,350.9,132.7,357,132.7,371z"/>
		<path class="st2" d="M198,377.4h-13c0-10.5-4.9-15.6-12-15.6c-9.4,0-14,8.2-14,21.8v5c0,13.6,4.7,21.8,14.4,21.8
			c7.4,0,12.2-5,12.2-15.5H198c0,17.9-10.6,26.4-25.1,26.4c-17.1,0-27.1-11.2-27.1-35.2c0-24,10-35.2,27.1-35.2
			C187.2,350.9,198,358.9,198,377.4z"/>
		<path class="st1" d="M224.4,420.2h-12.7v-68.1h12.7V420.2z"/>
		<path class="st1" d="M240.8,420.2v-68.1h43.4v11.3h-30.7v16.3h26.3V391h-26.3v17.9h31.3v11.3H240.8z"/>
		<path class="st1" d="M335.2,420.2l-21.1-37.5c-0.8-1.4-3.1-6.4-3.1-6.4l-0.4,0.3c0,0,0.2,3.9,0.2,5.7v37.9h-11.2v-68.1h11.2
			l21.1,37.5c1.1,1.7,3.1,6.4,3.1,6.4l0.3-0.3c0,0-0.1-4.6-0.1-5.7v-37.9h11.3v68.1H335.2z"/>
		<path class="st2" d="M412.4,377.4h-13c0-10.5-4.9-15.6-12-15.6c-9.4,0-14,8.2-14,21.8v5c0,13.6,4.7,21.8,14.4,21.8
			c7.4,0,12.2-5,12.2-15.5h12.4c0,17.9-10.6,26.4-25.1,26.4c-17.1,0-27.1-11.2-27.1-35.2c0-24,10-35.2,27.1-35.2
			C401.6,350.9,412.4,358.9,412.4,377.4z"/>
		<path class="st1" d="M426.1,420.2v-68.1h43.4v11.3h-30.7v16.3h26.3V391h-26.3v17.9h31.3v11.3H426.1z"/>
		<path class="st1" d="M525.8,371v1.2h-13v-0.9c0-5.8-3.5-9.4-9.2-9.4c-6.2,0-9.5,3.1-9.5,7.2c0,13.8,33.1,5.7,33.1,30.7
			c0,15.6-9.9,21.6-24.1,21.6c-12.5,0-23.6-7.1-23.6-21.1c0-0.8,0.1-1.7,0.1-2.2h13.2c0,0.2-0.1,1.1-0.1,1.6c0,6.4,4,10.8,10.9,10.8
			c7.7,0,10.3-4.1,10.3-8c0-16.2-33.1-6.5-33.1-32.4c0-12.9,10.7-19.1,22.8-19.1C515.8,350.9,525.8,357,525.8,371z"/>
		<path class="st1" d="M186.7,396.3c-1.5,9.6-6.4,15.2-14.7,15.2c-10.1,0-15.2-8.2-15.2-21.8v-5c0-13.6,5.1-21.8,15.2-21.8
			c8.6,0,13.5,5.9,14.8,15.9h13c-2.3-18.2-12.4-26.8-27.8-26.8c-17.6,0-28.3,11.2-28.3,35.2c0,24,10.7,35.2,28.3,35.2
			c15.2,0,25.3-8.4,27.7-26.1H186.7z"/>
		<path class="st1" d="M401.5,396.3c-1.5,9.6-6.4,15.2-14.7,15.2c-10.1,0-15.2-8.2-15.2-21.8v-5c0-13.6,5.1-21.8,15.2-21.8
			c8.6,0,13.5,5.9,14.8,15.9h13c-2.3-18.2-12.4-26.8-27.8-26.8c-17.6,0-28.3,11.2-28.3,35.2c0,24,10.7,35.2,28.3,35.2
			c15.2,0,25.3-8.4,27.7-26.1H401.5z"/>
	</g>
	<path class="st0" d="M149.6,101.6l-8.3,21h-9l6.9-19.5h-6.9V86h17.3V101.6z"/>
</g>
</svg>
