<?xml version="1.0" encoding="UTF-8"?><svg id="a" xmlns="http://www.w3.org/2000/svg" width="40mm" height="59mm" xmlns:xlink="http://www.w3.org/1999/xlink" viewBox="0 0 113.386 167.244"><defs><clipPath id="b"><rect width="113.386" height="167.244" fill="none"/></clipPath><clipPath id="c"><rect x="20.516" y="20.003" width="80.504" height="125.728" fill="none"/></clipPath></defs><rect x=".532" width="112.323" height="167.244" fill="#8e1c3f"/><g clip-path="url(#b)"><line x1=".531" y1="112.332" x2="112.854" y2="112.332" fill="none" stroke="#fff" stroke-width=".75"/></g><g clip-path="url(#c)"><path d="M32.057,74.08h56.272v-23.877h-56.272v23.877ZM32.408,73.183h3.103v.547h-3.103v-.547ZM35.86,73.511h.633v.132h-.633v-.132ZM36.843,73.183h2.712v.547h-2.712v-.547ZM40.538,73.643h-.633v-.132h.633v.132ZM40.888,73.183h2.846v.547h-2.846v-.547ZM44.718,73.643h-.635v-.132h.635v.132ZM45.068,73.183h2.969v.011h2.43v-.011h2.881v.547h-8.28v-.547ZM47.429,67.064h3.646v5.705h-.608v-2.881h-2.43v2.881h-.608v-5.705ZM48.386,70.237h1.731v2.531h-1.731v-2.531ZM47.44,66.714l1.803-.958,1.82.958h-3.623ZM54.331,73.643h-.633v-.132h.633v.132ZM54.68,73.183h3.004v.547h-3.004v-.547ZM58.667,73.643h-.633v-.132h.633v.132ZM59.016,73.183h2.712v.547h-2.712v-.547ZM62.712,73.643h-.633v-.132h.633v.132ZM63.061,73.183h2.848v.547h-2.848v-.547ZM66.892,73.643h-.633v-.132h.633v.132ZM67.242,73.183h3.202v.011h2.43v-.011h9.597v.547h-15.229v-.547ZM69.837,67.064h3.643v5.705h-.606v-2.881h-2.43v2.881h-.607v-5.705ZM70.794,70.237h1.731v2.531h-1.731v-2.531ZM69.847,66.714l1.803-.958,1.819.958h-3.622ZM83.275,69.378c.201-.208.47-.343.79-.419v.223c-.202.07-.378.178-.524.327-.479.495-.463,1.236-.462,1.262v2.959h-.258v-3.166c0-.007-.018-.697.454-1.186M83.428,70.767c0-.007-.014-.625.364-1.014.077-.081.171-.14.273-.19v.011h1.115v-.007c.098.049.195.098.27.178.395.415.366,1.12.365,1.136v2.849h-2.387v-2.963ZM85.704,69.505c-.145-.152-.323-.26-.524-.329v-.229c.34.07.62.208.824.426.456.483.419,1.179.418,1.197v3.16h-.257v-2.84c0-.035.038-.859-.461-1.385M86.772,72.856v-2.274c.002-.035.049-.85-.511-1.446-.27-.289-.634-.472-1.081-.55v-.573h-1.115v.587c-.422.084-.775.259-1.042.535-.574.594-.553,1.407-.552,1.435v2.286h-8.641v-6.142h-.004l.085-.162-1.555-.819h.665v-2.938h-2.886v2.938h.813l-1.541.819.086.162h-.006v6.142h-18.063v-6.142h-.005l.085-.162-1.564-.825h.658v-2.932h-2.888v2.932h.84l-1.55.825.086.162h-.006v6.142h-13.783v-22.304h53.738v22.304h-.263ZM71.649,65.36l-.043.024h-1.122v-2.24h2.188v2.24h-.979l-.044-.024ZM49.242,65.36l-.033.018h-1.15v-2.234h2.189v2.234h-.973l-.033-.018ZM86.772,73.183h1.208v.547h-1.208v-.547ZM87.98,72.856h-.596v-22.304h.596v22.304ZM32.948,72.856h-.54v-22.304h.54v22.304Z" fill="#fff"/><path d="M34.732,55.581h2.887v-4.236h-2.887v4.236ZM35.081,51.696h2.188v3.537h-2.188v-3.537Z" fill="#fff"/><path d="M38.732,55.581h2.889v-4.236h-2.889v4.236ZM39.082,51.696h2.19v3.537h-2.19v-3.537Z" fill="#fff"/><path d="M42.903,55.581h2.887v-4.236h-2.887v4.236ZM43.252,51.696h2.188v3.537h-2.188v-3.537Z" fill="#fff"/><path d="M56.875,55.581h2.887v-4.236h-2.887v4.236ZM57.225,51.696h2.188v3.537h-2.188v-3.537Z" fill="#fff"/><path d="M61.001,55.581h2.889v-4.236h-2.889v4.236ZM61.35,51.696h2.19v3.537h-2.19v-3.537Z" fill="#fff"/><path d="M65.417,55.581h2.888v-4.236h-2.888v4.236ZM65.767,51.696h2.19v3.537h-2.19v-3.537Z" fill="#fff"/><path d="M47.71,55.581h2.889v-4.236h-2.889v4.236ZM48.059,51.696h2.19v3.537h-2.19v-3.537Z" fill="#fff"/><path d="M52.519,55.581h2.887v-4.236h-2.887v4.236ZM52.868,51.696h2.188v3.537h-2.188v-3.537Z" fill="#fff"/><path d="M74.862,55.581h2.889v-4.236h-2.889v4.236ZM75.212,51.696h2.19v3.537h-2.19v-3.537Z" fill="#fff"/><path d="M78.989,55.581h2.888v-4.236h-2.888v4.236ZM79.338,51.696h2.188v3.537h-2.188v-3.537Z" fill="#fff"/><path d="M83.033,55.581h2.888v-4.236h-2.888v4.236ZM83.382,51.696h2.19v3.537h-2.19v-3.537Z" fill="#fff"/><path d="M70.135,55.581h2.888v-4.236h-2.888v4.236ZM70.484,51.696h2.188v3.537h-2.188v-3.537Z" fill="#fff"/><path d="M34.732,60.748h2.887v-3.236h-2.887v3.236ZM35.081,57.862h2.188v2.537h-2.188v-2.537Z" fill="#fff"/><path d="M38.732,60.748h2.889v-3.236h-2.889v3.236ZM39.082,57.862h2.19v2.537h-2.19v-2.537Z" fill="#fff"/><path d="M42.903,60.748h2.887v-3.236h-2.887v3.236ZM43.252,57.862h2.188v2.537h-2.188v-2.537Z" fill="#fff"/><path d="M56.875,60.748h2.887v-3.236h-2.887v3.236ZM57.225,57.862h2.188v2.537h-2.188v-2.537Z" fill="#fff"/><path d="M61.001,60.748h2.889v-3.236h-2.889v3.236ZM61.35,57.862h2.19v2.537h-2.19v-2.537Z" fill="#fff"/><path d="M65.417,60.748h2.888v-3.236h-2.888v3.236ZM65.767,57.862h2.19v2.537h-2.19v-2.537Z" fill="#fff"/><path d="M47.71,60.748h2.889v-3.236h-2.889v3.236ZM48.059,57.862h2.19v2.537h-2.19v-2.537Z" fill="#fff"/><path d="M52.519,60.748h2.887v-3.236h-2.887v3.236ZM52.868,57.862h2.188v2.537h-2.188v-2.537Z" fill="#fff"/><path d="M74.862,60.748h2.889v-3.236h-2.889v3.236ZM75.212,57.862h2.19v2.537h-2.19v-2.537Z" fill="#fff"/><path d="M78.989,60.748h2.888v-3.236h-2.888v3.236ZM79.338,57.862h2.188v2.537h-2.188v-2.537Z" fill="#fff"/><path d="M83.033,60.748h2.888v-3.236h-2.888v3.236ZM83.382,57.862h2.19v2.537h-2.19v-2.537Z" fill="#fff"/><path d="M70.135,60.748h2.888v-3.236h-2.888v3.236ZM70.484,57.862h2.188v2.537h-2.188v-2.537Z" fill="#fff"/><path d="M34.732,66.031h2.887v-3.236h-2.887v3.236ZM35.081,63.144h2.188v2.537h-2.188v-2.537Z" fill="#fff"/><path d="M38.732,66.031h2.889v-3.236h-2.889v3.236ZM39.082,63.144h2.19v2.537h-2.19v-2.537Z" fill="#fff"/><path d="M42.903,66.031h2.887v-3.236h-2.887v3.236ZM43.252,63.144h2.188v2.537h-2.188v-2.537Z" fill="#fff"/><path d="M56.875,66.031h2.887v-3.236h-2.887v3.236ZM57.225,63.144h2.188v2.537h-2.188v-2.537Z" fill="#fff"/><path d="M61.001,66.031h2.889v-3.236h-2.889v3.236ZM61.35,63.144h2.19v2.537h-2.19v-2.537Z" fill="#fff"/><path d="M65.417,66.031h2.888v-3.236h-2.888v3.236ZM65.767,63.144h2.19v2.537h-2.19v-2.537Z" fill="#fff"/><path d="M52.519,66.031h2.887v-3.236h-2.887v3.236ZM52.868,63.144h2.188v2.537h-2.188v-2.537Z" fill="#fff"/><path d="M74.862,66.031h2.889v-3.236h-2.889v3.236ZM75.212,63.144h2.19v2.537h-2.19v-2.537Z" fill="#fff"/><path d="M78.989,66.031h2.888v-3.236h-2.888v3.236ZM79.338,63.144h2.188v2.537h-2.188v-2.537Z" fill="#fff"/><path d="M83.033,66.031h2.888v-3.236h-2.888v3.236ZM83.382,63.144h2.19v2.537h-2.19v-2.537Z" fill="#fff"/><path d="M34.732,72.057h2.887v-3.502h-2.887v3.502ZM35.081,68.905h2.188v2.803h-2.188v-2.803Z" fill="#fff"/><path d="M38.732,72.057h2.889v-3.502h-2.889v3.502ZM39.082,68.905h2.19v2.803h-2.19v-2.803Z" fill="#fff"/><path d="M42.903,72.057h2.887v-3.502h-2.887v3.502ZM43.252,68.905h2.188v2.803h-2.188v-2.803Z" fill="#fff"/><path d="M56.875,72.057h2.887v-3.502h-2.887v3.502ZM57.225,68.905h2.188v2.803h-2.188v-2.803Z" fill="#fff"/><path d="M61.001,72.057h2.889v-3.502h-2.889v3.502ZM61.35,68.905h2.19v2.803h-2.19v-2.803Z" fill="#fff"/><path d="M65.417,72.057h2.888v-3.502h-2.888v3.502ZM65.767,68.905h2.19v2.803h-2.19v-2.803Z" fill="#fff"/><path d="M52.519,72.057h2.887v-3.502h-2.887v3.502ZM52.868,68.905h2.188v2.803h-2.188v-2.803Z" fill="#fff"/><path d="M74.862,72.057h2.889v-3.502h-2.889v3.502ZM75.212,68.905h2.19v2.803h-2.19v-2.803Z" fill="#fff"/><path d="M78.989,72.057h2.888v-3.502h-2.888v3.502ZM79.338,68.905h2.188v2.803h-2.188v-2.803Z" fill="#fff"/><path d="M46.093,49.753h43.496l-1.951-1.604-4.206-9.446h-.027l-.088-1.327c.057-.089.096-.199.096-.326,0-.16-.057-.296-.143-.391l-.106-1.588h-.348l-.107,1.615c-.072.093-.116.221-.116.364,0,.107.03.199.072.281l-.091,1.372h-9.269v-3.804l.201-.33-.006-.058c-.004-.042-.106-1.01-.78-1.306v-1.792c.104-.025.214-.068.273-.15.042-.056.057-.123.045-.187-.039-.207-.309-.74-.531-1.099-.067-.246-.295-3.608-.485-6.635.087-.082.144-.198.144-.327,0-.149-.077-.275-.186-.357-.029-.461-.056-.908-.082-1.327h-.349c-.027.42-.057.867-.088,1.33-.107.083-.181.207-.181.354,0,.126.052.24.135.322-.208,3.084-.457,6.531-.524,6.8-.03.123-.166.321-.275.482-.104.152-.194.283-.235.395l.014.184c.052.096.179.16.307.202v1.774c-.029.008-.057.016-.079.025-.685.29-.785,1.27-.79,1.312l-.005.057.199.331v3.011h-.02v.35h.02v.443h-19.156v-3.804l.199-.331-.006-.057c-.004-.042-.105-1.01-.779-1.306v-1.792c.105-.025.214-.068.275-.15.041-.056.056-.123.044-.187-.039-.206-.316-.751-.533-1.099-.066-.244-.294-3.607-.484-6.635.087-.082.144-.197.144-.327,0-.149-.076-.275-.188-.358-.028-.461-.056-.907-.081-1.326h-.349c-.027.42-.056.868-.088,1.331-.106.082-.18.206-.18.353,0,.126.053.239.135.321-.208,3.085-.457,6.532-.523,6.801-.03.123-.166.321-.275.482-.104.152-.194.283-.235.395l.014.184c.051.096.179.16.307.202v1.774c-.029.008-.058.016-.079.025-.685.289-.788,1.27-.792,1.312l-.005.058.2.33v3.011h-.021v.35h.021v.443h-9.44l-.088-1.328c.058-.089.097-.199.097-.325,0-.16-.058-.296-.144-.39l-.106-1.589h-.348l-.108,1.616c-.071.093-.116.22-.116.363,0,.107.031.199.073.28l-.094,1.409-4.59,9.527-.018.077-1.757,1.41h15.14ZM31.947,49.403l2.477-1.987,1.308,1.466h10.361v.521h-14.146ZM39.467,47.321h.921v1.116h-.921v-1.116ZM39.367,46.971l.589-.444.549.444h-1.138ZM43.361,47.321h.92v1.116h-.92v-1.116ZM43.262,46.971l.587-.444.55.444h-1.137ZM46.442,48.882h.174v.521h-.174v-.521ZM46.445,44.573c.081-.106.21-.158.396-.158h.182s-.005-.178-.005-.178c-.003-.175.035-.68.258-.908.078-.08.172-.119.288-.119h.174v-1.453h2.894v1.453h.175c.115,0,.21.039.287.119.223.228.262.733.257.908l-.003.179h.179s.003,0,.003,0c.184,0,.313.052.394.157.155.203.117.57.077.761h-5.632c-.04-.191-.079-.555.076-.76M47.942,39.052h.554v1.174l-.554-.758v-.416ZM49.382,31.393v1.709h-.239v-1.709h.239ZM49.936,33.132c-.067-.007-.136-.013-.205-.017v-1.722h.205v1.739ZM49.449,33.499l.331,1.071h-.989l.355-1.071h.303ZM50.522,37.91h-.533v-2.992h.533v2.992ZM49.64,37.91h-.794v-2.992h.794v2.992ZM49.64,38.703h-.794v-.443h.794v.443ZM49.64,39.052v1.143c-.133-.041-.272-.07-.42-.07-.13,0-.254.024-.375.057v-1.13h.795ZM49.989,39.052h.533v.416l-.533.727v-1.143ZM49.22,40.475c.545,0,.993.407,1.067.933h-2.134c.074-.526.522-.933,1.067-.933M46.965,48.882h4.481v.521h-4.481v-.521ZM48.058,46.572h2.19v1.873h-2.19v-1.873ZM50.598,48.533v-2.311h-2.889v2.311h-.744v-2.851h4.481v2.851h-.848ZM51.796,45.682h.151v2.851h-.151v-2.851ZM46.442,45.682h.174v2.851h-.174v-2.851ZM51.796,48.882h.151v.521h-.151v-.521ZM52.296,48.882h16.185v.521h-16.185v-.521ZM54.13,47.321h.92v1.116h-.92v-1.116ZM54.031,46.971l.587-.444.549.444h-1.136ZM58.024,47.321h.92v1.116h-.92v-1.116ZM57.923,46.971l.589-.444.548.444h-1.137ZM61.909,47.321h.919v1.116h-.919v-1.116ZM61.809,46.971l.588-.444.548.444h-1.136ZM65.76,47.321h.92v1.116h-.92v-1.116ZM65.661,46.971l.587-.444.55.444h-1.137ZM68.83,48.882h.188v.521h-.188v-.521ZM68.888,44.573c.08-.106.209-.158.395-.158h.182s-.004-.178-.004-.178c-.004-.175.035-.68.258-.908.077-.08.172-.119.287-.119h.175v-1.453h2.894v1.453h.174c.115,0,.208.039.287.118.222.228.261.733.257.909l-.004.179h.179s.003,0,.003,0c.185,0,.314.052.396.158.154.203.116.569.077.76h-5.633c-.042-.191-.079-.555.077-.76M70.376,39.052h.554v1.174l-.554-.758v-.416ZM71.816,31.393v1.709h-.239v-1.709h.239ZM72.37,33.132c-.067-.007-.136-.013-.204-.017v-1.722h.204v1.739ZM71.884,33.499l.33,1.071h-.988l.355-1.071h.303ZM72.956,37.91h-.533v-2.992h.533v2.992ZM72.074,37.91h-.794v-2.992h.794v2.992ZM72.074,38.703h-.794v-.443h.794v.443ZM72.074,39.052v1.143c-.133-.041-.272-.07-.419-.07-.131,0-.255.024-.375.057v-1.13h.794ZM72.423,39.052h.533v.416l-.533.727v-1.143ZM71.655,40.475c.545,0,.992.407,1.067.933h-2.133c.073-.526.521-.933,1.066-.933M70.699,46.572h2.188v1.873h-2.188v-1.873ZM73.848,49.403h-4.479v-.521h4.479v.521ZM73.237,48.533v-2.311h-2.887v2.311h-.981v-2.851h4.479v2.851h-.611ZM74.197,45.682h.138v2.851h-.138v-2.851ZM68.83,45.682h.188v2.851h-.188v-2.851ZM74.197,48.882h.138v.521h-.138v-.521ZM74.684,49.403v-.521h10.27l1.093-1.587,2.566,2.108h-13.929ZM76.575,47.321h.92v1.116h-.92v-1.116ZM76.476,46.971l.588-.444.55.444h-1.138ZM80.081,47.321h.92v1.116h-.92v-1.116ZM79.981,46.971l.588-.444.549.444h-1.137ZM85.975,46.783l-1.009,1.464-1.269-8.092,3.338,7.498-1.06-.87ZM82.99,37.714l.066.989h-.133l.067-.989ZM83.17,39.052l1.488,9.481h-3.307v-1.373l.006.005.22-.271-1.001-.811-1.066.807.21.279.011-.009v1.373h-1.886v-1.374l.008.006.219-.271-1.001-.811-1.066.807.21.279.011-.009v1.373h-1.542v-3.055l.082.023c.008-.03.196-.725-.122-1.141-.12-.156-.29-.252-.506-.283-.016-.249-.084-.717-.352-.992-.103-.106-.224-.174-.362-.205v-1.358h-.056v-.114h-.297c-.037-.353-.199-.667-.445-.897l.679-.929v-.53h9.865ZM72.423,38.26h.533v.443h-.533v-.443ZM73.144,34.49l-.047.08h-.518l-.336-1.071h.229c.04.007.081.014.101.022.417.176.542.782.571.969M70.905,30.815c.138-.201.28-.41.326-.595.075-.304.315-3.652.486-6.164.161,2.531.385,5.81.474,6.064.226.374.402.74.472.924h-1.908c.04-.068.095-.149.15-.229M71.051,31.393h.177v1.719c-.058.003-.117.006-.177.012v-1.731ZM70.76,33.521c.019-.008.06-.015.1-.022h.352l-.354,1.071h-.621l-.048-.08c.029-.186.153-.793.571-.969M70.376,34.919h.554v2.992h-.554v-2.992ZM70.376,38.26h.554v.443h-.554v-.443ZM70.027,39.052v.53l.671.919c-.254.23-.42.548-.459.907h-.349v.114h-.059v1.357c-.138.032-.259.1-.363.206-.269.275-.335.743-.351.992-.217.031-.387.127-.507.283-.288.378-.161.98-.129,1.111v3.062h-1.451v-1.374l.008.006.219-.271-1.002-.811-1.066.807.211.279.011-.008v1.372h-2.234v-1.374l.008.006.22-.271-1.001-.811-1.067.807.21.279.012-.009v1.373h-2.266v-1.373l.006.005.22-.271-1-.811-1.068.807.211.279.012-.009v1.373h-2.275v-1.373l.007.005.219-.271-1-.811-1.067.807.212.279.01-.008v1.372h-1.484v-3.04l.027.008c.008-.03.196-.725-.12-1.141-.121-.157-.29-.252-.507-.283-.016-.249-.083-.717-.351-.992-.104-.106-.225-.174-.363-.206v-1.357h-.055v-.114h-.291c-.037-.353-.198-.667-.445-.897l.68-.929v-.53h19.156ZM49.989,38.26h.533v.443h-.533v-.443ZM50.709,34.49l-.048.08h-.516l-.337-1.071h.229c.041.007.082.014.101.022.418.176.542.783.571.969M48.471,30.815c.137-.201.28-.41.326-.595.075-.304.313-3.652.484-6.164.162,2.531.387,5.81.474,6.064.226.373.404.74.473.924h-1.907c.039-.068.095-.149.15-.229M48.617,31.393h.176v1.719c-.058.003-.116.006-.176.012v-1.731ZM48.325,33.521c.02-.008.06-.015.1-.022h.353l-.355,1.071h-.622l-.048-.08c.03-.187.155-.793.572-.969M47.942,34.919h.554v2.992h-.554v-2.992ZM47.942,38.26h.554v.443h-.554v-.443ZM48.263,40.5c-.253.23-.421.548-.459.908h-.357v.114h-.058v1.357c-.138.032-.26.1-.364.206-.268.275-.335.743-.351.992-.216.031-.387.127-.507.283-.316.416-.128,1.111-.12,1.141l.046-.013v3.045h-1.462v-1.374l.007.006.22-.271-1.002-.811-1.066.807.212.279.009-.008v1.372h-2.273v-1.373l.006.005.22-.271-1.001-.811-1.067.807.211.279.01-.008v1.372h-3.1l1.576-9.481h9.999v.53l.671.918ZM37.671,38.703l.065-.989.066.989h-.131ZM37.072,40.054l-1.374,8.266-1.234-1.384-1.154.926,3.762-7.808Z" fill="#fff"/><path d="M49.185,42.589c-.398,0-.721.323-.721.721s.323.721.721.721.721-.323.721-.721-.324-.721-.721-.721M49.185,43.681c-.204,0-.372-.167-.372-.371s.168-.372.372-.372.371.167.371.372-.167.371-.371.371" fill="#fff"/><path d="M71.628,42.589c-.397,0-.721.323-.721.721s.324.721.721.721.721-.323.721-.721-.324-.721-.721-.721M71.628,43.681c-.204,0-.371-.167-.371-.371s.167-.372.371-.372.372.167.372.372-.168.371-.372.371" fill="#fff"/><path d="M41.838,42.196l-.813.615.146.191v1.283h1.28v-1.286l.15-.185-.763-.618ZM42.103,42.861h-.565l.292-.221.273.221ZM42.102,43.936h-.582v-.725h.582v.725Z" fill="#fff"/><path d="M55.864,44.285h1.282v-1.287l.148-.183-.761-.618-.813.614.144.19v1.284ZM56.796,43.936h-.583v-.725h.583v.725ZM56.797,42.861h-.564l.292-.22.272.22Z" fill="#fff"/><path d="M59.763,44.285h1.28v-1.286l.15-.184-.763-.618-.812.614.145.192v1.282ZM60.694,43.936h-.582v-.725h.582v.725ZM60.695,42.861h-.565l.293-.22.272.22Z" fill="#fff"/><path d="M63.532,44.285h1.282v-1.287l.148-.183-.761-.618-.813.614.144.19v1.284ZM64.464,43.936h-.583v-.725h.583v.725ZM64.465,42.861h-.565l.293-.22.272.22Z" fill="#fff"/><path d="M78.091,44.285h1.28v-1.286l.15-.184-.763-.618-.812.614.145.192v1.282ZM79.022,43.936h-.582v-.725h.582v.725ZM79.023,42.861h-.565l.293-.22.272.22Z" fill="#fff"/><path d="M50.675,67.216h-2.804v1.814h2.804v-1.814ZM50.326,68.681h-2.105v-1.115h2.105v1.115Z" fill="#fff"/><path d="M73.081,67.216h-2.803v1.814h2.803v-1.814ZM72.732,68.681h-2.104v-1.115h2.104v1.115Z" fill="#fff"/><rect x="48.056" y="73.29" width="2.367" height=".35" fill="#fff"/><rect x="48.056" y="69.37" width="2.367" height=".349" fill="#fff"/><rect x="70.48" y="73.29" width="2.366" height=".35" fill="#fff"/><rect x="70.48" y="69.37" width="2.366" height=".349" fill="#fff"/><polygon points="30.19 124.097 30.19 119.005 30.84 119.005 30.84 123.503 33.257 123.503 33.257 124.097 30.19 124.097" fill="#fff"/><path d="M36.64,123.916c-.182.076-.769.279-1.349.279-1.25,0-1.787-.81-1.787-2.012,0-1.313.635-2.018,1.696-2.018.902,0,1.517.6,1.517,1.864,0,.119-.007.231-.007.273h-2.55c.042.97.455,1.328,1.145,1.328.49,0,.972-.14,1.195-.203l.14.489ZM36.088,121.792c0-.566-.314-1.076-.936-1.076-.551,0-.985.447-.985,1.125l1.921-.049Z" fill="#fff"/><path d="M38.06,119.696c-.307,0-.426-.105-.426-.391,0-.294.119-.399.426-.399.301,0,.419.105.419.399,0,.286-.118.391-.419.391M37.746,120.268h.636v3.828h-.636v-3.828Z" fill="#fff"/><path d="M39.626,124.097v-5.323h.636v1.914c.119-.175.51-.524,1.146-.524.929,0,1.383.852,1.383,1.935,0,1.034-.419,2.095-1.537,2.095-.622,0-.985-.404-1.104-.593l-.118.496h-.406ZM40.262,123.007c.098.195.461.622.957.622.468,0,.908-.406.908-1.398,0-.837-.14-1.501-.922-1.501-.545,0-.852.475-.943.705v1.572Z" fill="#fff"/><path d="M46.202,124.097v-2.173c0-.516-.007-1.152-.713-1.152-.405,0-.74.223-1.068.545v2.78h-.636v-3.828h.405l.147.552c.349-.391.768-.657,1.264-.657.852,0,1.237.538,1.237,1.46v2.473h-.636Z" fill="#fff"/><path d="M48.343,119.696c-.307,0-.426-.105-.426-.391,0-.294.119-.399.426-.399.3,0,.419.105.419.399,0,.286-.119.391-.419.391M48.029,120.268h.636v3.828h-.636v-3.828Z" fill="#fff"/><path d="M49.588,124.097v-.489l1.712-2.305c.209-.287.384-.454.439-.503-.104.007-.398.021-.684.021h-1.425v-.552h2.794v.482l-1.712,2.305c-.195.265-.369.454-.432.51.097-.007.363-.021.677-.021h1.523v.552h-2.892Z" fill="#fff"/><rect x="53.11" y="121.568" width="2.187" height=".615" fill="#fff"/><rect x="56.312" y="119.004" width=".65" height="5.092" fill="#fff"/><path d="M60.853,124.097v-2.173c0-.516-.007-1.152-.713-1.152-.405,0-.74.223-1.069.545v2.78h-.635v-3.828h.405l.146.552c.35-.391.769-.657,1.265-.657.852,0,1.237.538,1.237,1.46v2.473h-.636Z" fill="#fff"/><path d="M62.721,123.426c.195.056.713.203,1.243.203.496,0,.797-.168.797-.552,0-.392-.182-.489-.922-.643-.902-.182-1.223-.516-1.223-1.181,0-.6.503-1.089,1.439-1.089.447,0,.901.09,1.236.223l-.139.511c-.154-.056-.643-.168-1.083-.168-.51,0-.81.174-.81.523,0,.385.273.469.915.601.803.161,1.229.426,1.229,1.146,0,.684-.544,1.195-1.418,1.195-.698,0-1.271-.231-1.404-.259l.14-.51Z" fill="#fff"/><path d="M68.263,123.971c-.14.077-.489.223-.866.223-.315,0-.797-.181-.797-1.02v-2.353h-.58v-.398l.602-.147.111-.845.503-.147v.985h.901v.552h-.901v2.402c0,.35.195.406.342.406.203,0,.378-.056.545-.119l.14.461Z" fill="#fff"/><path d="M69.522,119.696c-.307,0-.426-.105-.426-.391,0-.294.119-.399.426-.399.3,0,.419.105.419.399,0,.286-.119.391-.419.391M69.207,120.268h.636v3.828h-.636v-3.828Z" fill="#fff"/><path d="M73.009,123.971c-.14.077-.489.223-.866.223-.315,0-.797-.181-.797-1.02v-2.353h-.58v-.398l.601-.147.112-.845.503-.147v.985h.901v.552h-.901v2.402c0,.35.195.406.342.406.203,0,.378-.056.545-.119l.14.461Z" fill="#fff"/><path d="M76.517,124.097l-.146-.552c-.35.392-.77.657-1.265.657-.859,0-1.25-.538-1.25-1.46v-2.473h.635v2.173c0,.517.007,1.152.727,1.152.405,0,.74-.224,1.068-.545v-2.78h.636v3.828h-.405Z" fill="#fff"/><path d="M80.048,123.971c-.14.077-.489.223-.866.223-.315,0-.797-.181-.797-1.02v-2.353h-.58v-.398l.602-.147.111-.845.503-.147v.985h.901v.552h-.901v2.402c0,.35.195.406.342.406.203,0,.378-.056.545-.119l.14.461Z" fill="#fff"/><path d="M82.852,124.097v-3.276h-.58v-.356l.58-.196v-.44c0-1.02.769-1.139,1.027-1.139.23,0,.53.077.649.112l-.14.496c-.076-.013-.279-.049-.418-.049-.21,0-.482.084-.482.58v.44h.837v.552h-.837v3.276h-.636Z" fill="#fff"/><path d="M87.596,124.097l-.147-.552c-.349.391-.768.657-1.265.657-.858,0-1.25-.538-1.25-1.46v-2.473h.636v2.172c0,.517.007,1.153.726,1.153.406,0,.741-.224,1.069-.545v-2.78h.636v3.828h-.405ZM85.808,119.675c-.28,0-.385-.098-.385-.384,0-.28.105-.378.385-.378.286,0,.384.098.384.378,0,.286-.098.384-.384.384M87.114,119.675c-.279,0-.384-.098-.384-.384,0-.28.105-.378.384-.378.286,0,.384.098.384.378,0,.286-.098.384-.384.384" fill="#fff"/><path d="M89.212,124.097v-3.828h.391l.196.74c.419-.719,1.012-.782,1.187-.782.196,0,.315.014.35.021l-.077.656c-.042-.006-.147-.014-.224-.014-.301,0-.761.091-1.187.671v2.536h-.636Z" fill="#fff"/><polygon points="22.411 132.484 22.411 127.392 25.478 127.392 25.478 127.978 23.061 127.978 23.061 129.543 25.051 129.543 25.051 130.13 23.061 130.13 23.061 131.897 25.631 131.897 25.631 132.484 22.411 132.484" fill="#fff"/><path d="M29.049,132.484l-.146-.552c-.35.392-.769.657-1.265.657-.859,0-1.25-.538-1.25-1.46v-2.473h.635v2.172c0,.518.007,1.153.727,1.153.405,0,.74-.224,1.068-.545v-2.78h.636v3.828h-.405Z" fill="#fff"/><path d="M30.666,132.484v-3.828h.391l.196.74c.419-.719,1.012-.782,1.187-.782.196,0,.315.014.35.021l-.077.656c-.042-.006-.147-.014-.224-.014-.301,0-.761.091-1.187.671v2.536h-.636Z" fill="#fff"/><path d="M33.036,130.57c0-1.229.614-2.019,1.697-2.019s1.698.79,1.698,2.019-.615,2.012-1.698,2.012-1.697-.789-1.697-2.012M35.774,130.57c0-1.104-.398-1.453-1.041-1.453s-1.041.349-1.041,1.453c0,1.076.398,1.446,1.041,1.446s1.041-.37,1.041-1.446" fill="#fff"/><path d="M37.424,133.86v-5.203h.399l.132.489c.3-.391.741-.587,1.167-.587,1.104,0,1.488.873,1.488,1.928,0,1.18-.608,2.095-1.6,2.095-.461,0-.79-.265-.95-.439v1.717h-.636ZM38.06,131.395c.098.202.412.608.908.608s.985-.385.985-1.474c0-1.104-.405-1.397-.985-1.397-.426,0-.748.355-.908.572v1.691Z" fill="#fff"/><path d="M43.854,132.485l-.147-.552c-.146.238-.509.65-1.215.65-.538,0-1.271-.307-1.271-1.279,0-.824.712-1.124,1.446-1.124h.957v-.168c-.007-.734-.44-.88-.846-.88-.391,0-.985.146-1.111.181l-.153-.516c.216-.063.804-.231,1.348-.231.559,0,1.398.196,1.398,1.481v2.438h-.406ZM42.687,130.668c-.6.021-.81.329-.81.664,0,.349.175.72.748.72.538,0,.992-.336.999-1.419l-.937.035ZM42.269,128.063c-.28,0-.385-.098-.385-.384,0-.28.105-.378.385-.378.286,0,.384.098.384.378,0,.286-.098.384-.384.384M43.575,128.063c-.279,0-.384-.098-.384-.384,0-.28.105-.378.384-.378.286,0,.384.098.384.378,0,.286-.098.384-.384.384" fill="#fff"/><path d="M45.77,128.083c-.308,0-.427-.104-.427-.391,0-.293.119-.398.427-.398.3,0,.419.105.419.398,0,.287-.119.391-.419.391M45.455,128.656h.636v3.828h-.636v-3.828Z" fill="#fff"/><path d="M47.21,131.814c.195.056.713.203,1.243.203.497,0,.797-.168.797-.552,0-.392-.182-.489-.922-.643-.902-.182-1.223-.516-1.223-1.181,0-.6.503-1.089,1.439-1.089.447,0,.901.09,1.236.223l-.139.511c-.154-.056-.643-.168-1.083-.168-.51,0-.81.174-.81.523,0,.385.272.469.915.601.803.161,1.229.426,1.229,1.146,0,.684-.544,1.195-1.418,1.195-.698,0-1.271-.231-1.404-.259l.14-.51Z" fill="#fff"/><path d="M53.444,132.31c-.195.091-.685.272-1.208.272-1.118,0-1.656-.81-1.656-2.012,0-1.215.601-2.018,1.726-2.018.467,0,.901.147,1.075.224l-.139.495c-.287-.077-.581-.154-.922-.154-.609,0-1.083.308-1.083,1.453,0,1.055.46,1.447,1.012,1.447.392,0,.727-.098,1.055-.203l.14.496Z" fill="#fff"/><path d="M56.673,132.484v-2.173c0-.516-.007-1.152-.713-1.152-.405,0-.74.223-1.069.545v2.78h-.635v-5.323h.635v1.963c.329-.349.727-.573,1.181-.573.852,0,1.237.538,1.237,1.46v2.473h-.636Z" fill="#fff"/><path d="M61.377,132.303c-.182.076-.769.279-1.349.279-1.25,0-1.787-.811-1.787-2.012,0-1.313.635-2.018,1.696-2.018.902,0,1.517.6,1.517,1.864,0,.119-.007.231-.007.273h-2.55c.042.97.454,1.328,1.145,1.328.49,0,.972-.14,1.195-.203l.14.489ZM60.825,130.179c0-.566-.314-1.076-.936-1.076-.552,0-.985.447-.985,1.125l1.921-.049Z" fill="#fff"/><path d="M67.394,132.484l-.09-.349c-.364.314-.832.461-1.286.461-1.558,0-2.152-1.188-2.152-2.662,0-1.677.888-2.661,2.333-2.661.65,0,1.286.203,1.523.3l-.146.531c-.224-.077-.811-.23-1.377-.23-.935,0-1.655.537-1.655,2.06,0,1.432.552,2.075,1.565,2.075.433,0,.796-.182,1.048-.405v-1.174h-1.055v-.6h1.69v2.654h-.398Z" fill="#fff"/><path d="M71.805,132.303c-.182.076-.769.279-1.349.279-1.25,0-1.787-.811-1.787-2.012,0-1.313.635-2.018,1.696-2.018.902,0,1.517.6,1.517,1.864,0,.119-.007.231-.007.273h-2.55c.042.97.454,1.328,1.145,1.328.49,0,.972-.14,1.195-.203l.14.489ZM71.253,130.179c0-.566-.314-1.076-.936-1.076-.552,0-.985.447-.985,1.125l1.921-.049Z" fill="#fff"/><path d="M72.743,131.814c.195.056.713.203,1.243.203.496,0,.797-.168.797-.552,0-.392-.182-.489-.922-.643-.902-.182-1.223-.516-1.223-1.181,0-.6.503-1.089,1.439-1.089.447,0,.901.09,1.236.223l-.139.511c-.154-.056-.643-.168-1.083-.168-.51,0-.81.174-.81.523,0,.385.272.469.915.601.803.161,1.229.426,1.229,1.146,0,.684-.544,1.195-1.418,1.195-.698,0-1.271-.231-1.404-.259l.14-.51Z" fill="#fff"/><path d="M78.976,132.31c-.195.091-.685.272-1.208.272-1.118,0-1.656-.81-1.656-2.012,0-1.215.601-2.018,1.726-2.018.467,0,.901.147,1.075.224l-.139.495c-.287-.077-.581-.154-.922-.154-.608,0-1.083.308-1.083,1.453,0,1.055.46,1.447,1.012,1.447.392,0,.727-.098,1.055-.203l.14.496Z" fill="#fff"/><path d="M82.206,132.484v-2.173c0-.516-.007-1.152-.713-1.152-.405,0-.74.223-1.069.545v2.78h-.635v-5.323h.635v1.963c.329-.349.727-.573,1.181-.573.852,0,1.237.538,1.237,1.46v2.473h-.636Z" fill="#fff"/><path d="M84.345,128.083c-.307,0-.425-.104-.425-.391,0-.293.118-.398.425-.398.301,0,.42.105.42.398,0,.287-.119.391-.42.391M84.031,128.656h.636v3.828h-.636v-3.828Z" fill="#fff"/><path d="M88.524,132.31c-.195.091-.685.272-1.208.272-1.118,0-1.656-.81-1.656-2.012,0-1.215.601-2.018,1.726-2.018.467,0,.901.147,1.075.224l-.139.495c-.287-.077-.581-.154-.922-.154-.608,0-1.083.308-1.083,1.453,0,1.055.46,1.447,1.012,1.447.392,0,.727-.098,1.055-.203l.14.496Z" fill="#fff"/><path d="M91.753,132.484v-2.173c0-.516-.007-1.152-.713-1.152-.405,0-.74.223-1.069.545v2.78h-.635v-5.323h.635v1.963c.329-.349.727-.573,1.181-.573.852,0,1.237.538,1.237,1.46v2.473h-.636Z" fill="#fff"/><path d="M95.249,132.359c-.14.077-.489.223-.866.223-.315,0-.797-.181-.797-1.02v-2.353h-.58v-.398l.601-.147.112-.845.503-.147v.985h.901v.552h-.901v2.402c0,.35.195.406.342.406.203,0,.378-.056.545-.119l.14.461Z" fill="#fff"/><path d="M98.723,132.303c-.182.076-.769.279-1.349.279-1.25,0-1.787-.811-1.787-2.012,0-1.313.635-2.018,1.696-2.018.902,0,1.517.6,1.517,1.864,0,.119-.007.231-.007.273h-2.55c.042.97.454,1.328,1.145,1.328.49,0,.972-.14,1.195-.203l.14.489ZM98.171,130.179c0-.566-.314-1.076-.936-1.076-.552,0-.985.447-.985,1.125l1.921-.049Z" fill="#fff"/><polygon points="37.267 105.509 37.267 102.984 38.74 102.984 38.74 86.123 37.267 86.123 37.267 83.598 43.008 83.598 43.008 86.123 41.535 86.123 41.535 102.984 43.008 102.984 43.008 105.509 37.267 105.509" fill="#fff"/><polygon points="49.199 105.509 49.199 83.598 62.394 83.598 62.394 86.123 51.994 86.123 51.994 92.855 60.56 92.855 60.56 95.38 51.994 95.38 51.994 102.984 63.055 102.984 63.055 105.509 49.199 105.509" fill="#fff"/><path d="M81.84,105.509l-.391-1.503c-1.563,1.353-3.577,1.984-5.53,1.984-6.703,0-9.258-5.109-9.258-11.451,0-7.215,3.817-11.452,10.039-11.452,2.796,0,5.531.871,6.553,1.292l-.632,2.285c-.962-.331-3.487-.992-5.921-.992-4.027,0-7.123,2.314-7.123,8.867,0,6.161,2.374,8.926,6.732,8.926,1.864,0,3.427-.781,4.509-1.743v-5.05h-4.539v-2.584h7.274v11.421h-1.713Z" fill="#fff"/></g></svg>