<?xml version="1.0" encoding="UTF-8"?><svg id="a" xmlns="http://www.w3.org/2000/svg" width="84.682mm" height="24.817mm" viewBox="0 0 240.044 70.347"><path d="M16.114,33.818h2.972v11.663h7.1v2.557h-10.072v-14.22Z" fill="#005ca9"/><path d="M35.405,37.736c.734.328,1.339.847,1.817,1.556.432.624.71,1.35.838,2.174.075.483.105,1.178.091,2.086h-7.659c.043,1.055.409,1.794,1.101,2.218.419.264.924.396,1.515.396.627,0,1.136-.161,1.527-.482.213-.174.402-.415.566-.724h2.807c-.073.624-.414,1.258-1.019,1.901-.941,1.022-2.261,1.534-3.955,1.534-1.4,0-2.634-.431-3.704-1.293-1.07-.863-1.605-2.266-1.605-4.21,0-1.821.484-3.218,1.45-4.19.965-.972,2.219-1.458,3.76-1.458.914,0,1.739.164,2.472.493ZM31.293,40.111c-.389.4-.633.942-.733,1.627h4.736c-.049-.73-.293-1.284-.731-1.662-.439-.377-.982-.566-1.63-.566-.707,0-1.254.2-1.642.601Z" fill="#005ca9"/><path d="M42.941,36.268h-2.788v-2.537h2.788v2.537ZM40.153,37.523h2.788v10.515h-2.788v-10.515Z" fill="#005ca9"/><path d="M55.174,38.786c.788.998,1.181,2.284,1.181,3.859,0,1.634-.388,2.987-1.164,4.061-.776,1.074-1.858,1.611-3.249,1.611-.872,0-1.574-.173-2.105-.52-.315-.206-.658-.567-1.027-1.081v1.322h-2.709v-14.2h2.748v5.055c.351-.488.734-.862,1.156-1.119.5-.322,1.133-.483,1.903-.483,1.391,0,2.48.499,3.266,1.495ZM52.876,45.192c.397-.572.594-1.325.594-2.258,0-.746-.098-1.363-.292-1.851-.37-.926-1.051-1.39-2.042-1.39-1.005,0-1.697.454-2.072,1.36-.195.482-.292,1.106-.292,1.871,0,.901.202,1.646.604,2.239.402.591,1.015.887,1.837.887.714,0,1.269-.286,1.663-.858Z" fill="#005ca9"/><path d="M67.337,38.126c.689.569,1.033,1.513,1.033,2.831v7.081h-2.817v-6.396c0-.552-.072-.977-.22-1.272-.268-.54-.779-.811-1.532-.811-.925,0-1.56.396-1.905,1.187-.179.418-.269.952-.269,1.601v5.692h-2.75v-10.496h2.664v1.534c.352-.54.686-.929,1-1.167.562-.425,1.276-.637,2.141-.637,1.082,0,1.969.285,2.656.854Z" fill="#005ca9"/><path d="M74.344,36.268h-2.788v-2.537h2.788v2.537ZM71.556,37.523h2.788v10.515h-2.788v-10.515Z" fill="#005ca9"/><path d="M77.002,39.761v-2.238h8.315v2.287l-5.16,5.971h5.343v2.258h-8.865v-2.142l5.212-6.136h-4.846Z" fill="#005ca9"/><path d="M87.241,41.227h5.384v2.604h-5.384v-2.604Z" fill="#005ca9"/><path d="M98.156,48.038h-2.952v-14.22h2.952v14.22Z" fill="#005ca9"/><path d="M109.786,38.126c.687.569,1.031,1.513,1.031,2.831v7.081h-2.817v-6.396c0-.552-.073-.977-.22-1.272-.268-.54-.779-.811-1.532-.811-.926,0-1.561.396-1.907,1.187-.178.418-.267.952-.267,1.601v5.692h-2.75v-10.496h2.663v1.534c.351-.54.685-.929.999-1.167.562-.425,1.276-.637,2.141-.637,1.083,0,1.968.285,2.658.854Z" fill="#005ca9"/><path d="M116.098,44.681c.059.49.184.836.378,1.042.344.367.977.549,1.899.549.544,0,.976-.08,1.295-.241.32-.161.48-.402.48-.723,0-.31-.13-.544-.387-.705-.258-.161-1.217-.436-2.877-.83-1.195-.295-2.036-.665-2.525-1.109-.489-.437-.732-1.068-.732-1.891,0-.971.381-1.806,1.145-2.503.764-.698,1.838-1.047,3.225-1.047,1.314,0,2.385.262,3.214.786.829.524,1.304,1.43,1.427,2.716h-2.75c-.039-.354-.139-.634-.299-.839-.304-.373-.82-.56-1.549-.56-.6,0-1.026.093-1.281.279-.255.186-.381.405-.381.656,0,.315.135.543.405.685.27.147,1.228.402,2.87.762,1.096.257,1.916.646,2.463,1.167.541.527.811,1.187.811,1.978,0,1.042-.389,1.892-1.166,2.552-.775.658-1.977.988-3.598.988-1.658,0-2.881-.349-3.67-1.046-.79-.698-1.185-1.588-1.185-2.668h2.788Z" fill="#005ca9"/><path d="M124.446,39.578v-1.958h1.467v-2.933h2.721v2.933h1.707v1.958h-1.707v5.557c0,.431.055.7.164.805.109.107.443.16,1.002.16.084,0,.173-.001.267-.005.093-.003.184-.008.274-.014v2.054l-1.302.049c-1.3.044-2.187-.18-2.663-.676-.308-.314-.463-.801-.463-1.457v-6.473h-1.467Z" fill="#005ca9"/><path d="M135.506,36.268h-2.789v-2.537h2.789v2.537ZM132.717,37.523h2.789v10.515h-2.789v-10.515Z" fill="#005ca9"/><path d="M137.681,39.578v-1.958h1.466v-2.933h2.721v2.933h1.708v1.958h-1.708v5.557c0,.431.055.7.164.805.108.107.443.16,1.002.16.084,0,.174-.001.267-.005.093-.003.184-.008.275-.014v2.054l-1.304.049c-1.299.044-2.186-.18-2.662-.676-.309-.314-.463-.801-.463-1.457v-6.473h-1.466Z" fill="#005ca9"/><path d="M148.653,37.523v6.338c0,.598.07,1.048.211,1.351.25.533.738.801,1.468.801.935,0,1.575-.38,1.921-1.139.179-.412.268-.956.268-1.63v-5.721h2.789v10.515h-2.673v-1.485c-.026.032-.089.128-.192.289-.102.161-.225.303-.365.424-.429.386-.844.65-1.245.791-.401.142-.87.212-1.409.212-1.552,0-2.598-.559-3.137-1.678-.301-.617-.451-1.527-.451-2.729v-6.338h2.816Z" fill="#005ca9"/><path d="M157.494,39.578v-1.958h1.466v-2.933h2.721v2.933h1.708v1.958h-1.708v5.557c0,.431.054.7.164.805.108.107.443.16,1.003.16.083,0,.173-.001.265-.005.094-.003.185-.008.276-.014v2.054l-1.304.049c-1.3.044-2.187-.18-2.663-.676-.308-.314-.462-.801-.462-1.457v-6.473h-1.466Z" fill="#005ca9"/><path d="M5.431,55.641c.141.01.334.024.579.043v2.238c-.153-.019-.414-.034-.777-.043-.364-.01-.613.071-.752.241-.138.17-.208.359-.208.564v.887h1.804v1.938h-1.804v8.48H1.543v-8.48H0v-1.938h1.505v-.675c0-1.126.189-1.901.568-2.326.398-.629,1.361-.945,2.885-.945.173,0,.33.005.472.015Z" fill="#005ca9"/><path d="M10.972,59.475v6.338c0,.598.07,1.048.211,1.351.25.534.738.8,1.468.8.935,0,1.575-.379,1.92-1.138.179-.412.268-.955.268-1.63v-5.721h2.788v10.516h-2.672v-1.485c-.026.032-.089.129-.191.29-.102.161-.226.302-.367.424-.428.386-.844.649-1.245.791-.401.141-.871.212-1.409.212-1.552,0-2.598-.559-3.137-1.679-.301-.617-.451-1.527-.451-2.73v-6.338h2.816ZM9.708,55.587h2.517v2.287h-2.517v-2.287ZM13.566,55.587h2.518v2.287h-2.518v-2.287Z" fill="#005ca9"/><path d="M26.734,59.229c.036.003.115.008.237.015v2.816c-.174-.019-.327-.032-.462-.038-.135-.006-.246-.01-.329-.01-1.106,0-1.848.361-2.228,1.081-.212.405-.318,1.029-.318,1.871v5.026h-2.769v-10.516h2.623v1.833c.425-.701.795-1.18,1.109-1.437.515-.431,1.184-.646,2.007-.646.051,0,.095.001.13.004Z" fill="#005ca9"/><path d="M35.458,55.77h2.972v11.663h7.1v2.556h-10.072v-14.22Z" fill="#005ca9"/><path d="M52.061,63.594c.512-.064.878-.144,1.098-.241.396-.167.593-.427.593-.781,0-.431-.151-.728-.455-.892-.303-.164-.748-.246-1.334-.246-.659,0-1.126.161-1.399.482-.195.238-.326.559-.392.964h-2.653c.058-.919.317-1.675.776-2.267.729-.926,1.982-1.389,3.759-1.389,1.156,0,2.182.227,3.081.684.897.457,1.346,1.318,1.346,2.585v4.824c0,.334.007.74.021,1.216.019.36.073.604.163.733.089.129.225.235.405.319v.405h-2.99c-.083-.212-.141-.412-.174-.599-.033-.186-.059-.398-.078-.636-.381.412-.821.762-1.318,1.051-.595.341-1.268.512-2.019.512-.957,0-1.748-.272-2.372-.815-.623-.543-.937-1.313-.937-2.31,0-1.293.503-2.228,1.508-2.807.55-.315,1.359-.54,2.43-.676l.941-.116ZM48.977,55.587h2.518v2.287h-2.518v-2.287ZM53.743,64.877c-.176.11-.354.198-.532.266-.181.067-.425.129-.739.187l-.625.116c-.586.103-1.008.228-1.264.376-.433.25-.649.64-.649,1.167,0,.47.132.81.397,1.018.264.209.586.313.964.313.601,0,1.155-.174,1.661-.521.506-.347.769-.981.788-1.9v-1.022ZM52.836,55.587h2.518v2.287h-2.518v-2.287Z" fill="#005ca9"/><path d="M67.937,60.078c.688.569,1.033,1.513,1.033,2.831v7.081h-2.818v-6.396c0-.552-.072-.977-.22-1.273-.267-.541-.778-.812-1.532-.812-.925,0-1.561.396-1.906,1.187-.178.418-.268.952-.268,1.602v5.691h-2.749v-10.496h2.662v1.534c.353-.54.686-.929,1-1.168.562-.424,1.276-.636,2.141-.636,1.083,0,1.969.284,2.657.853Z" fill="#005ca9"/><path d="M77.696,59.644c.495.28.896.667,1.205,1.163v-5.017h2.789v14.201h-2.673v-1.456c-.392.623-.839,1.078-1.34,1.36-.502.283-1.125.425-1.872.425-1.228,0-2.262-.497-3.1-1.49-.84-.994-1.26-2.269-1.26-3.825,0-1.795.413-3.206,1.24-4.235.826-1.029,1.931-1.543,3.314-1.543.636,0,1.202.14,1.698.419ZM78.371,67.135c.405-.579.608-1.328.608-2.248,0-1.286-.325-2.206-.974-2.759-.399-.334-.861-.502-1.389-.502-.804,0-1.394.304-1.77.912-.375.608-.564,1.362-.564,2.263,0,.971.19,1.747.573,2.329.383.582.964.874,1.742.874s1.369-.291,1.774-.869Z" fill="#005ca9"/><path d="M91.632,59.688c.734.329,1.338.847,1.818,1.555.431.625.709,1.35.837,2.175.073.483.104,1.179.09,2.087h-7.659c.043,1.055.411,1.794,1.101,2.218.419.264.926.396,1.515.396.627,0,1.136-.162,1.527-.483.214-.173.402-.414.567-.724h2.807c-.075.624-.415,1.258-1.019,1.901-.942,1.022-2.26,1.533-3.956,1.533-1.399,0-2.634-.431-3.704-1.293-1.07-.863-1.604-2.266-1.604-4.21,0-1.822.482-3.219,1.449-4.19.966-.973,2.219-1.458,3.76-1.458.915,0,1.739.164,2.473.493ZM87.52,62.063c-.389.4-.634.943-.734,1.627h4.736c-.049-.73-.293-1.283-.731-1.662-.439-.377-.982-.566-1.63-.566-.706,0-1.254.199-1.641.601Z" fill="#005ca9"/><path d="M102.182,59.229c.036.003.115.008.237.015v2.816c-.174-.019-.327-.032-.462-.038-.135-.006-.245-.01-.328-.01-1.106,0-1.849.361-2.228,1.081-.213.405-.319,1.029-.319,1.871v5.026h-2.769v-10.516h2.624v1.833c.425-.701.795-1.18,1.11-1.437.514-.431,1.183-.646,2.007-.646.051,0,.094.001.129.004Z" fill="#005ca9"/><path d="M104.573,55.819h2.702v7.67l3.468-3.966h3.418l-3.769,3.917,3.915,6.549h-3.346l-2.548-4.492-1.139,1.183v3.309h-2.702v-14.171Z" fill="#005ca9"/><path d="M118.903,59.475v6.338c0,.598.069,1.048.211,1.351.25.534.739.8,1.469.8.934,0,1.575-.379,1.92-1.138.178-.412.269-.955.269-1.63v-5.721h2.788v10.516h-2.672v-1.485c-.026.032-.09.129-.193.29-.102.161-.225.302-.365.424-.43.386-.844.649-1.246.791-.4.141-.87.212-1.408.212-1.553,0-2.598-.559-3.137-1.679-.302-.617-.451-1.527-.451-2.73v-6.338h2.816Z" fill="#005ca9"/><path d="M137.304,60.078c.688.569,1.033,1.513,1.033,2.831v7.081h-2.817v-6.396c0-.552-.072-.977-.221-1.273-.268-.541-.779-.812-1.531-.812-.926,0-1.56.396-1.906,1.187-.18.418-.268.952-.268,1.602v5.691h-2.75v-10.496h2.662v1.534c.352-.54.686-.929,1-1.168.562-.424,1.277-.636,2.142-.636,1.083,0,1.968.284,2.656.853Z" fill="#005ca9"/><path d="M147.062,59.644c.495.28.897.667,1.205,1.163v-5.017h2.788v14.201h-2.672v-1.456c-.393.623-.84,1.078-1.341,1.36-.503.283-1.125.425-1.872.425-1.228,0-2.262-.497-3.102-1.49-.838-.994-1.259-2.269-1.259-3.825,0-1.795.413-3.206,1.24-4.235.826-1.029,1.931-1.543,3.313-1.543.637,0,1.203.14,1.698.419ZM147.737,67.135c.405-.579.607-1.328.607-2.248,0-1.286-.325-2.206-.975-2.759-.398-.334-.861-.502-1.389-.502-.805,0-1.395.304-1.771.912-.376.608-.563,1.362-.563,2.263,0,.971.19,1.747.574,2.329.381.582.963.874,1.74.874s1.37-.291,1.775-.869Z" fill="#005ca9"/><path d="M160.998,59.688c.733.329,1.339.847,1.816,1.555.432.625.711,1.35.838,2.175.074.483.103,1.179.092,2.087h-7.659c.042,1.055.409,1.794,1.101,2.218.418.264.924.396,1.516.396.627,0,1.135-.162,1.525-.483.214-.173.402-.414.566-.724h2.807c-.073.624-.414,1.258-1.02,1.901-.941,1.022-2.26,1.533-3.956,1.533-1.399,0-2.634-.431-3.704-1.293-1.07-.863-1.604-2.266-1.604-4.21,0-1.822.483-3.219,1.449-4.19.966-.973,2.22-1.458,3.761-1.458.914,0,1.739.164,2.473.493ZM156.885,62.063c-.389.4-.632.943-.732,1.627h4.736c-.049-.73-.294-1.283-.731-1.662-.438-.377-.981-.566-1.63-.566-.707,0-1.254.199-1.643.601Z" fill="#005ca9"/><rect x="171.624" width="68.42" height="70.171" fill="#005ca9"/><path d="M215.619,4.309h-8.02v43.831h8.02V4.309ZM201.28,3.862c-4.446,0-7.252.972-8.414,2.915-1.107,1.308-1.66,3.697-1.66,7.166v2.081h-4.391v5.977h4.503v26.139h7.964v-26.139h5.262v-5.977h-5.262v-2.735c0-.634.201-1.214.605-1.74.402-.524,1.135-.772,2.193-.743,1.061.029,1.815.074,2.267.133v-6.899c-.714-.059-1.276-.104-1.688-.133-.413-.03-.873-.045-1.379-.045M175.797,48.14h8.132V15.727h-8.132v32.413ZM183.929,4.04h-8.132v7.821h8.132v-7.821ZM215.819,57.062l2.443,7.878-7.324,2.495-2.443-7.879,7.324-2.494ZM232.057,43.788l4.546,14.649-13.619,4.638-4.544-14.649,13.617-4.637Z" fill="#fff"/></svg>