<?xml version="1.0" encoding="UTF-8"?>
<svg id="Ebene_1" xmlns="http://www.w3.org/2000/svg" version="1.1" viewBox="0 0 488.2 101.2">
  <!-- Generator: Adobe Illustrator 29.3.0, SVG Export Plug-In . SVG Version: 2.1.0 Build 146)  -->
  <defs>
    <style>
      .st0 {
        fill: none;
        stroke: #c31924;
        stroke-miterlimit: 10;
        stroke-width: .2px;
      }

      .st0, .st1 {
        display: none;
      }

      .st2 {
        fill: #691641;
      }

      .st3 {
        fill: #c95d32;
      }

      .st4 {
        fill: #c31924;
      }
    </style>
  </defs>
  <rect class="st3" x="131" y="41.7" width="7.3" height="29.8"/>
  <polygon class="st3" points="153.7 48.2 153.7 53.4 164.8 53.4 164.8 59.9 153.7 59.9 153.7 71.4 146.4 71.4 146.4 41.7 166.6 41.7 166.6 48.2 153.7 48.2"/>
  <path class="st3" d="M184.1,48.2h-4.1v6h4.1c2,0,3.2-1.5,3.2-3s-1.2-3-3.2-3M187.7,71.4l-5.3-11.1h-2.5v11.1h-7.3v-29.8h11.8c6.6,0,10.2,4.7,10.2,9.6s-2.5,6.6-4.9,7.8l6.4,12.4h-8.5Z"/>
  <path class="st3" d="M212.8,53l-2.7,7.9h5.2l-2.5-7.9ZM218.6,71.4l-1.4-4.4h-9.2l-1.5,4.4h-7.6l10.8-29.8h5.6l10.8,29.8h-7.6Z"/>
  <rect class="st2" x="35.7" y="77.4" width="17.9" height="6"/>
  <rect class="st2" x="77.4" y="29.8" width="23.8" height="6"/>
  <rect class="st3" x="77.4" y="41.7" width="23.8" height="6"/>
  <rect class="st2" x="77.4" y="53.6" width="23.8" height="6"/>
  <rect class="st2" x="77.4" y="65.5" width="23.8" height="6"/>
  <rect class="st2" x="77.4" y="77.4" width="23.8" height="6"/>
  <rect class="st3" x="101.2" y="47.6" width="23.8" height="6"/>
  <rect class="st2" x="101.2" y="35.7" width="23.8" height="6"/>
  <rect class="st2" x="101.2" y="59.5" width="23.8" height="6"/>
  <rect class="st2" x="101.2" y="71.4" width="23.8" height="6"/>
  <rect class="st2" x="208.4" y="77.4" width="17.9" height="6"/>
  <rect class="st2" y="77.4" width="17.9" height="6"/>
  <rect class="st2" x="172.7" y="29.8" width="17.9" height="6"/>
  <rect class="st2" x="172.7" y="77.4" width="17.9" height="6"/>
  <rect class="st2" x="125" y="29.8" width="23.8" height="6"/>
  <rect class="st2" x="77.4" y="17.9" width="23.8" height="6"/>
  <rect class="st2" x="125" y="17.9" width="23.8" height="6"/>
  <rect class="st2" x="125" y="77.4" width="23.8" height="6"/>
  <g>
    <g>
      <rect class="st3" x="262" y="30.3" width="2.7" height="11.1"/>
      <polygon class="st3" points="273.6 41.4 270.1 35.9 270.1 41.4 267.4 41.4 267.4 30.3 269.7 30.3 273.3 35.9 273.3 30.3 276 30.3 276 41.4 273.6 41.4"/>
      <path class="st3" d="M281.8,41.5c-1.7,0-3.1-.3-4.2-1.5l1.7-1.7c.6.6,1.6.8,2.5.8s1.6-.4,1.6-1,0-.5-.2-.7c-.1-.1-.4-.3-.7-.3l-1.3-.2c-1-.1-1.7-.5-2.2-1-.5-.5-.8-1.3-.8-2.2,0-2,1.5-3.5,4-3.5s2.8.4,3.7,1.3l-1.7,1.7c-.7-.7-1.6-.7-2.1-.7-.9,0-1.3.5-1.3,1s0,.3.2.5c.1.1.4.3.8.3l1.3.2c1,.1,1.7.5,2.2.9.6.6.8,1.4.8,2.4,0,2.3-1.9,3.5-4.3,3.5"/>
      <polygon class="st3" points="293.1 32.8 293.1 41.4 290.4 41.4 290.4 32.8 287.6 32.8 287.6 30.3 295.8 30.3 295.8 32.8 293.1 32.8"/>
      <rect class="st3" x="297.8" y="30.3" width="2.7" height="11.1"/>
      <polygon class="st3" points="307.9 32.8 307.9 41.4 305.2 41.4 305.2 32.8 302.5 32.8 302.5 30.3 310.7 30.3 310.7 32.8 307.9 32.8"/>
      <path class="st3" d="M316.6,41.5c-2.3,0-4.2-1.6-4.2-4v-7.2h2.7v7.1c0,1,.6,1.6,1.5,1.6s1.5-.6,1.5-1.6v-7.1h2.7v7.2c0,2.4-1.9,4-4.2,4"/>
      <polygon class="st3" points="328.1 32.8 328.1 41.4 325.4 41.4 325.4 32.8 322.7 32.8 322.7 30.3 330.8 30.3 330.8 32.8 328.1 32.8"/>
      <polygon class="st3" points="339.4 32.8 339.4 34.7 343.5 34.7 343.5 37.2 339.4 37.2 339.4 41.4 336.7 41.4 336.7 30.3 344.2 30.3 344.2 32.8 339.4 32.8"/>
      <path class="st3" d="M350.6,32.8h-1.5v2.2h1.5c.7,0,1.2-.5,1.2-1.1s-.4-1.1-1.2-1.1M351.9,41.4l-2-4.1h-.9v4.1h-2.7v-11.1h4.4c2.5,0,3.8,1.7,3.8,3.6s-.9,2.5-1.8,2.9l2.4,4.6h-3.2Z"/>
      <path class="st3" d="M360.9,34.5l-1,3h1.9l-.9-3ZM363.1,41.4l-.5-1.7h-3.4l-.5,1.7h-2.9l4-11.1h2.1l4,11.1h-2.9Z"/>
      <polygon class="st3" points="373.7 41.4 370.2 35.9 370.2 41.4 367.4 41.4 367.4 30.3 369.8 30.3 373.4 35.9 373.4 30.3 376.1 30.3 376.1 41.4 373.7 41.4"/>
      <path class="st3" d="M382.6,41.5c-1.3,0-2.3-.4-3.1-1.2-1.2-1.2-1.1-2.7-1.1-4.4s0-3.2,1.1-4.4c.8-.8,1.8-1.2,3.1-1.2,2.1,0,3.8,1.2,4.2,3.6h-2.8c-.2-.6-.5-1.2-1.4-1.2s-.9.2-1.1.5c-.3.3-.4.7-.4,2.7s.2,2.4.4,2.7c.2.3.6.5,1.1.5.9,0,1.2-.6,1.4-1.2h2.8c-.4,2.4-2.1,3.6-4.2,3.6"/>
      <path class="st3" d="M393.6,33.2c-.2-.3-.6-.5-1.1-.5s-.9.2-1.1.5c-.3.3-.4.7-.4,2.7s.2,2.4.4,2.7c.2.3.6.5,1.1.5s.9-.2,1.1-.5c.3-.3.4-.7.4-2.7s-.2-2.4-.4-2.7M395.6,40.3c-.8.8-1.7,1.2-3.1,1.2s-2.3-.4-3.1-1.2c-1.2-1.2-1.1-2.7-1.1-4.4s0-3.2,1.1-4.4c.8-.8,1.7-1.2,3.1-1.2s2.3.4,3.1,1.2c1.2,1.2,1.1,2.7,1.1,4.4s0,3.2-1.1,4.4"/>
      <rect class="st3" x="398.6" y="34.7" width="5.1" height="2.4"/>
      <path class="st3" d="M410,34.5l-1,3h1.9l-.9-3ZM412.2,41.4l-.5-1.7h-3.4l-.5,1.7h-2.9l4-11.1h2.1l4,11.1h-2.9Z"/>
      <polygon class="st3" points="416.6 41.4 416.6 30.3 419.3 30.3 419.3 39 423.9 39 423.9 41.4 416.6 41.4"/>
      <polygon class="st3" points="425.9 41.4 425.9 30.3 428.6 30.3 428.6 39 433.3 39 433.3 41.4 425.9 41.4"/>
      <polygon class="st3" points="435.3 41.4 435.3 30.3 442.8 30.3 442.8 32.8 438 32.8 438 34.6 442.1 34.6 442.1 37.1 438 37.1 438 39 442.8 39 442.8 41.4 435.3 41.4"/>
      <polygon class="st3" points="452.8 41.4 452.8 36.1 451.2 38.9 449.4 38.9 447.9 36.1 447.9 41.4 445.1 41.4 445.1 30.3 447.8 30.3 450.3 35.2 452.8 30.3 455.5 30.3 455.5 41.4 452.8 41.4"/>
      <path class="st3" d="M462.2,34.5l-1,3h1.9l-.9-3ZM464.3,41.4l-.5-1.7h-3.4l-.5,1.7h-2.9l4-11.1h2.1l4,11.1h-2.9Z"/>
      <polygon class="st3" points="475 41.4 471.4 35.9 471.4 41.4 468.7 41.4 468.7 30.3 471.1 30.3 474.6 35.9 474.6 30.3 477.3 30.3 477.3 41.4 475 41.4"/>
      <path class="st3" d="M485.2,33.4c-.2-.4-.6-.6-1.3-.6h-1.2v6.2h1.2c.7,0,1.1-.3,1.3-.6.2-.3.3-.6.3-2.5s0-2.2-.3-2.5M487.1,40.3c-.8.8-1.8,1.1-3,1.1h-4.1v-11.1h4.1c1.2,0,2.2.3,3,1.1,1.3,1.3,1.2,2.7,1.2,4.5s.1,3.2-1.2,4.5"/>
    </g>
    <path class="st2" d="M488.2,71.4v-8.6h-1.3v6l-4-6h-1.2v8.6h1.3v-6.1l4,6.1h1.2ZM480.1,71.4v-1.2h-4.2v-2.6h3.6v-1.2h-3.6v-2.5h4.2v-1.2h-5.5v8.6h5.5ZM473.3,64v-1.2h-6v1.2h2.4v7.4h1.3v-7.4h2.4ZM466.6,64v-1.2h-5.5v8.6h1.3v-3.6h3.6v-1.2h-3.6v-2.6h4.2ZM457.7,68.6h-2.6l1.3-3.8,1.3,3.8ZM460,71.4l-3.2-8.6h-1.1l-3.2,8.6h1.4l.6-1.7h3.4l.6,1.7h1.4ZM451.6,71.4v-8.6h-1.3v3.7h-3.5v-3.7h-1.3v8.6h1.3v-3.8h3.5v3.8h1.3ZM443.9,68.9h-1.3c-.2.9-.8,1.5-1.8,1.5s-1-.2-1.3-.5c-.4-.5-.5-1-.5-2.7s0-2.2.5-2.7c.3-.3.8-.5,1.3-.5,1,0,1.5.6,1.7,1.5h1.3c-.3-1.7-1.5-2.6-3.1-2.6s-1.7.3-2.3.9c-.8.8-.8,1.8-.8,3.5s0,2.6.8,3.5c.6.6,1.4.9,2.3.9,1.6,0,2.8-.9,3.1-2.6M436.4,69c0-.7-.2-1.4-.7-1.8-.4-.3-.8-.5-1.6-.6h-1c-.4-.2-.8-.3-1-.5-.2-.2-.3-.5-.3-.8,0-.8.6-1.3,1.6-1.3s1.3.2,1.9.7l.8-.8c-.7-.7-1.5-1-2.7-1-1.8,0-2.9,1-2.9,2.5s.2,1.2.6,1.6c.4.4.9.6,1.6.7h1c.5.2.7.3.9.5.2.2.3.5.3.9,0,.8-.7,1.3-1.8,1.3s-1.6-.2-2.2-.8l-.9.9c.8.8,1.8,1.1,3,1.1s3.1-.9,3.1-2.5M429,71.4v-8.6h-1.3v6l-4-6h-1.2v8.6h1.3v-6.1l4,6.1h1.2ZM420.8,71.4v-1.2h-4.2v-2.6h3.6v-1.2h-3.6v-2.5h4.2v-1.2h-5.5v8.6h5.5ZM413.7,69c0-.7-.2-1.4-.7-1.8-.4-.3-.8-.5-1.6-.6h-1c-.4-.2-.8-.3-1-.5-.2-.2-.3-.5-.3-.8,0-.8.6-1.3,1.6-1.3s1.3.2,1.9.7l.8-.8c-.7-.7-1.5-1-2.7-1-1.8,0-2.9,1-2.9,2.5s.2,1.2.6,1.6c.4.4.9.6,1.6.7h1c.5.2.7.3.9.5.2.2.3.5.3.9,0,.8-.7,1.3-1.8,1.3s-1.6-.2-2.2-.8l-.9.9c.8.8,1.8,1.1,3,1.1s3.1-.9,3.1-2.5M406.8,69c0-.7-.2-1.4-.7-1.8-.4-.3-.8-.5-1.6-.6h-1c-.4-.2-.8-.3-1-.5-.2-.2-.3-.5-.3-.8,0-.8.6-1.3,1.6-1.3s1.3.2,1.9.7l.8-.8c-.7-.7-1.5-1-2.7-1-1.8,0-2.9,1-2.9,2.5s.2,1.2.6,1.6c.4.4.9.6,1.6.7h1c.5.2.7.3.9.5.2.2.3.5.3.9,0,.8-.7,1.3-1.8,1.3s-1.6-.2-2.2-.8l-.9.9c.8.8,1.8,1.1,3,1.1s3.1-.9,3.1-2.5M399.4,62.8h-1.3v8.6h1.3v-8.6ZM397,62.8h-1.4l-1.5,6.2-1.7-6.2h-1.1l-1.7,6.2-1.5-6.2h-1.4l2.2,8.6h1.1l1.7-6,1.8,6h1.1l2.2-8.6ZM386.8,71.4v-1.2h-4.1v-7.4h-1.3v8.6h5.5ZM378,68.6h-2.6l1.3-3.8,1.3,3.8ZM380.3,71.4l-3.2-8.6h-1.1l-3.2,8.6h1.4l.6-1.7h3.4l.6,1.7h1.4ZM371.9,62.8h-1.3v8.6h1.3v-8.6ZM369,71.4v-1.2h-4l4-6.4v-1.1h-5.3v1.2h3.8l-4,6.3v1.1h5.5ZM361,67.1c0,1.7,0,2.2-.5,2.7-.3.3-.8.5-1.3.5s-1-.2-1.3-.5c-.4-.5-.5-.9-.5-2.7s0-2.2.5-2.7c.3-.3.8-.5,1.3-.5s1,.2,1.3.5c.4.5.5.9.5,2.7M362.3,67.1c0-1.7,0-2.6-.8-3.5-.6-.6-1.4-.9-2.3-.9s-1.7.3-2.3.9c-.8.8-.8,1.8-.8,3.5s0,2.6.8,3.5c.6.6,1.3.9,2.3.9s1.7-.3,2.3-.9c.8-.8.8-1.8.8-3.5M354.8,69c0-.7-.2-1.4-.7-1.8-.4-.3-.8-.5-1.6-.6h-1c-.4-.2-.8-.3-1-.5-.2-.2-.3-.5-.3-.8,0-.8.6-1.3,1.6-1.3s1.3.2,1.9.7l.8-.8c-.7-.7-1.5-1-2.7-1-1.8,0-2.9,1-2.9,2.5s.2,1.2.6,1.6c.4.4.9.6,1.6.7h1c.5.2.7.3.9.5.2.2.3.5.3.9,0,.8-.7,1.3-1.8,1.3s-1.6-.2-2.2-.8l-.9.9c.8.8,1.8,1.1,3,1.1s3.1-.9,3.1-2.5M341.7,64.7c0,.4-.3.7-.6.9,0,0-.3.2-.4.3-.4-.5-.7-.8-.7-1.2s.3-.8.8-.8.9.4.9.9M342.3,69.7c-.6.5-1.1.7-1.6.7-.9,0-1.6-.6-1.6-1.5s.5-1.2,1.2-1.6l2,2.4ZM345.3,71.4l-1.4-1.7c.6-.7.8-1.5.9-2.6h-1.2c0,.8-.1,1.3-.5,1.7l-1.8-2.2c.2-.1.6-.4.6-.4.5-.4.9-.8.9-1.5,0-1.1-.8-1.9-2-1.9s-2.1.8-2.1,1.9.5,1.4.9,1.9c-.8.6-1.7,1.2-1.7,2.4s1,2.6,2.8,2.6,2-.6,2.4-.9l.7.8h1.6ZM335.6,66.6h-3.5v1.1h3.5v-1.1ZM330.8,69c0-.7-.2-1.4-.7-1.8-.4-.3-.8-.5-1.6-.6h-1c-.4-.2-.8-.3-1-.5-.2-.2-.3-.5-.3-.8,0-.8.6-1.3,1.6-1.3s1.3.2,1.9.7l.8-.8c-.7-.7-1.5-1-2.7-1-1.8,0-2.9,1-2.9,2.5s.2,1.2.6,1.6c.4.4.9.6,1.6.7h1c.5.2.7.3.9.5.2.2.3.5.3.9,0,.8-.7,1.3-1.8,1.3s-1.6-.2-2.2-.8l-.9.9c.8.8,1.8,1.1,3,1.1s3.1-.9,3.1-2.5M324.1,64v-1.2h-6v1.2h2.4v7.4h1.3v-7.4h2.4ZM316.7,71.4v-8.6h-1.3v3.7h-3.5v-3.7h-1.3v8.6h1.3v-3.8h3.5v3.8h1.3ZM309,68.9h-1.3c-.2.9-.8,1.5-1.8,1.5s-1-.2-1.3-.5c-.4-.5-.5-1-.5-2.7s0-2.2.5-2.7c.3-.3.8-.5,1.3-.5,1,0,1.5.6,1.7,1.5h1.3c-.3-1.7-1.5-2.6-3.1-2.6s-1.7.3-2.3.9c-.8.8-.8,1.8-.8,3.5s0,2.6.8,3.5c.6.6,1.4.9,2.3.9,1.6,0,2.8-.9,3.1-2.6M301.1,62.8h-1.3v8.6h1.3v-8.6ZM297.7,71.4v-8.6h-1.3v3.7h-3.5v-3.7h-1.3v8.6h1.3v-3.8h3.5v3.8h1.3ZM290,68.9h-1.3c-.2.9-.8,1.5-1.8,1.5s-1-.2-1.3-.5c-.4-.5-.5-1-.5-2.7s0-2.2.5-2.7c.3-.3.8-.5,1.3-.5,1,0,1.5.6,1.7,1.5h1.3c-.3-1.7-1.5-2.6-3.1-2.6s-1.7.3-2.3.9c-.8.8-.8,1.8-.8,3.5s0,2.6.8,3.5c.6.6,1.4.9,2.3.9,1.6,0,2.8-.9,3.1-2.6M282.5,69c0-.7-.2-1.4-.7-1.8-.4-.3-.8-.5-1.6-.6h-1c-.4-.2-.8-.3-1-.5-.2-.2-.3-.5-.3-.8,0-.8.6-1.3,1.6-1.3s1.3.2,1.9.7l.8-.8c-.7-.7-1.5-1-2.7-1-1.8,0-2.9,1-2.9,2.5s.2,1.2.6,1.6c.4.4.9.6,1.6.7h1c.5.2.7.3.9.5.2.2.3.5.3.9,0,.8-.7,1.3-1.8,1.3s-1.6-.2-2.2-.8l-.9.9c.8.8,1.8,1.1,3,1.1s3.1-.9,3.1-2.5M275.5,71.4v-1.2h-4.2v-2.6h3.6v-1.2h-3.6v-2.5h4.2v-1.2h-5.5v8.6h5.5ZM268.2,68.1v-1.3h-3.1v1.1h1.8v.5c0,.6-.1,1-.4,1.4-.3.4-.8.6-1.4.6s-1-.2-1.3-.5c-.4-.5-.5-1-.5-2.7s0-2.2.5-2.7c.3-.3.8-.5,1.3-.5,1,0,1.6.6,1.8,1.5h1.3c-.2-1.5-1.3-2.7-3.1-2.7s-1.7.3-2.3.9c-.8.8-.8,1.8-.8,3.5s0,2.6.8,3.5c.6.6,1.4.9,2.3.9s1.7-.3,2.4-1c.6-.6.8-1.3.8-2.4"/>
    <g>
      <path class="st2" d="M488.2,54.5c0-.7-.2-1.4-.7-1.8-.4-.3-.8-.5-1.6-.6h-1c-.4-.2-.8-.4-1-.5-.2-.2-.3-.5-.3-.8,0-.8.6-1.3,1.6-1.3s1.3.2,1.9.7l.8-.8c-.7-.7-1.5-1-2.7-1-1.8,0-2.9,1-2.9,2.5s.2,1.2.6,1.6c.4.4.9.6,1.6.7h1c.5.2.7.3.9.5.2.2.3.5.3.9,0,.8-.7,1.3-1.8,1.3s-1.6-.2-2.2-.8l-.9.9c.8.8,1.8,1.1,3,1.1s3.1-.9,3.1-2.5M480.9,56.9v-1.2h-4.2v-2.6h3.6v-1.2h-3.6v-2.5h4.2v-1.2h-5.5v8.6h5.5ZM473.8,56.9v-1.2h-4.1v-7.4h-1.3v8.6h5.5ZM464.7,54.1h-2.6l1.3-3.8,1.3,3.8ZM467,56.9l-3.2-8.6h-1.1l-3.2,8.6h1.4l.6-1.7h3.4l.6,1.7h1.4ZM458.3,48.3h-1.3v8.6h1.3v-8.6ZM455.2,54.4h-1.3c-.2.9-.8,1.5-1.8,1.5s-1-.2-1.3-.5c-.4-.5-.5-1-.5-2.7s0-2.2.5-2.7c.3-.3.8-.5,1.3-.5,1,0,1.5.6,1.7,1.5h1.3c-.3-1.7-1.5-2.6-3.1-2.6s-1.7.3-2.3.9c-.8.8-.8,1.8-.8,3.5s0,2.6.8,3.5c.6.6,1.4.9,2.3.9,1.6,0,2.8-.9,3.1-2.6M445.9,52.6c0,1.7,0,2.2-.5,2.7-.3.3-.8.5-1.3.5s-1-.2-1.3-.5c-.4-.5-.5-.9-.5-2.7s0-2.2.5-2.7c.3-.3.8-.5,1.3-.5s1,.2,1.3.5c.4.5.5.9.5,2.7M447.2,52.6c0-1.7,0-2.6-.8-3.5-.6-.6-1.4-.9-2.3-.9s-1.7.3-2.3.9c-.8.8-.8,1.8-.8,3.5s0,2.6.8,3.5c.6.6,1.3.9,2.3.9s1.7-.3,2.3-.9c.8-.8.8-1.8.8-3.5M439.5,54.5c0-.7-.2-1.4-.7-1.8-.4-.3-.8-.5-1.6-.6h-1c-.4-.2-.8-.4-1-.5-.2-.2-.3-.5-.3-.8,0-.8.6-1.3,1.6-1.3s1.3.2,1.9.7l.8-.8c-.7-.7-1.5-1-2.7-1-1.8,0-2.9,1-2.9,2.5s.2,1.2.6,1.6c.4.4.9.6,1.6.7h1c.5.2.7.3.9.5.2.2.3.5.3.9,0,.8-.7,1.3-1.8,1.3s-1.6-.2-2.2-.8l-.9.9c.8.8,1.8,1.1,3,1.1s3.1-.9,3.1-2.5M426.8,50.2c0,.4-.3.7-.6.9,0,0-.3.2-.4.3-.4-.5-.7-.8-.7-1.2s.3-.8.8-.8.9.4.9.9M427.4,55.2c-.6.5-1.1.7-1.6.7-.9,0-1.6-.6-1.6-1.5s.5-1.2,1.2-1.6l2,2.4ZM430.5,56.9l-1.4-1.7c.6-.7.8-1.5.9-2.6h-1.2c0,.8-.1,1.3-.5,1.7l-1.8-2.2c.2-.1.6-.4.6-.4.5-.4.9-.8.9-1.5,0-1.1-.8-1.9-2-1.9s-2.1.8-2.1,1.9.5,1.4.9,1.9c-.8.6-1.7,1.2-1.7,2.4s1,2.6,2.8,2.6,2-.6,2.4-.9l.7.8h1.6ZM419.6,54.5c0-.7-.2-1.4-.7-1.8-.4-.3-.8-.5-1.6-.6h-1c-.4-.2-.8-.4-1-.5-.2-.2-.3-.5-.3-.8,0-.8.6-1.3,1.6-1.3s1.3.2,1.9.7l.8-.8c-.7-.7-1.5-1-2.7-1-1.8,0-2.9,1-2.9,2.5s.2,1.2.6,1.6c.4.4.9.6,1.6.7h1c.5.2.7.3.9.5.2.2.3.5.3.9,0,.8-.7,1.3-1.8,1.3s-1.6-.2-2.2-.8l-.9.9c.8.8,1.8,1.1,3,1.1s3.1-.9,3.1-2.5M412.3,56.9v-1.2h-4.2v-2.6h3.6v-1.2h-3.6v-2.5h4.2v-1.2h-5.5v8.6h5.5ZM404.6,54v-5.7h-1.3v5.6c0,1.1-.7,1.9-1.8,1.9s-1.8-.7-1.8-1.9v-5.6h-1.3v5.7c0,1.8,1.3,3,3.1,3s3.1-1.2,3.1-3M395.1,52.6c0,1.1,0,1.7-.3,2.1l-.8-.8-.7.7.9.9c-.3.2-.6.3-.9.3-.5,0-1-.2-1.3-.5-.4-.5-.5-.9-.5-2.7s0-2.2.5-2.7c.3-.3.8-.5,1.3-.5s1,.2,1.3.5c.4.5.5.9.5,2.7M396.7,56.6l-.8-.8c.6-.8.6-1.7.6-3.1s0-2.6-.8-3.5c-.6-.6-1.4-.9-2.3-.9s-1.7.3-2.3.9c-.8.8-.8,1.8-.8,3.5s0,2.6.8,3.5c.6.6,1.3.9,2.3.9s1.3-.2,1.8-.5l.9.9.7-.7ZM388.2,48.3h-1.3v8.6h1.3v-8.6ZM383.6,50.8c0,.8-.6,1.3-1.5,1.3h-1.9v-2.7h1.9c.9,0,1.5.5,1.5,1.4M385.1,56.9l-2-3.8c1-.3,1.7-1.1,1.7-2.3s-1-2.5-2.7-2.5h-3.3v8.6h1.3v-3.6h1.6l1.8,3.6h1.5ZM375.5,52.6c0,1.7,0,2.2-.5,2.7-.3.3-.8.5-1.3.5s-1-.2-1.3-.5c-.4-.5-.5-.9-.5-2.7s0-2.2.5-2.7c.3-.3.8-.5,1.3-.5s1,.2,1.3.5c.4.5.5.9.5,2.7M376.8,52.6c0-1.7,0-2.6-.8-3.5-.6-.6-1.4-.9-2.3-.9s-1.7.3-2.3.9c-.8.8-.8,1.8-.8,3.5s0,2.6.8,3.5c.6.6,1.3.9,2.3.9s1.7-.3,2.3-.9c.8-.8.8-1.8.8-3.5M369.6,49.5v-1.2h-6v1.2h2.4v7.4h1.3v-7.4h2.4ZM362.4,54.5c0-.7-.2-1.4-.7-1.8-.4-.3-.8-.5-1.6-.6h-1c-.4-.2-.8-.4-1-.5-.2-.2-.3-.5-.3-.8,0-.8.6-1.3,1.6-1.3s1.3.2,1.9.7l.8-.8c-.7-.7-1.5-1-2.7-1-1.8,0-2.9,1-2.9,2.5s.2,1.2.6,1.6c.4.4.9.6,1.6.7h1c.5.2.7.3.9.5.2.2.3.5.3.9,0,.8-.7,1.3-1.8,1.3s-1.6-.2-2.2-.8l-.9.9c.8.8,1.8,1.1,3,1.1s3.1-.9,3.1-2.5M354.6,48.3h-1.3v8.6h1.3v-8.6ZM351,56.9v-8.6h-1.3v3.7h-3.5v-3.7h-1.3v8.6h1.3v-3.8h3.5v3.8h1.3ZM340.1,54.5c0-.7-.2-1.4-.7-1.8-.4-.3-.8-.5-1.6-.6h-1c-.4-.2-.8-.4-1-.5-.2-.2-.3-.5-.3-.8,0-.8.6-1.3,1.6-1.3s1.3.2,1.9.7l.8-.8c-.7-.7-1.5-1-2.7-1-1.8,0-2.9,1-2.9,2.5s.2,1.2.6,1.6c.4.4.9.6,1.6.7h1c.5.2.7.3.9.5.2.2.3.5.3.9,0,.8-.7,1.3-1.8,1.3s-1.6-.2-2.2-.8l-.9.9c.8.8,1.8,1.1,3,1.1s3.1-.9,3.1-2.5M332.8,56.9v-1.2h-4.2v-2.6h3.6v-1.2h-3.6v-2.5h4.2v-1.2h-5.5v8.6h5.5ZM325.4,54.4h-1.3c-.2.9-.8,1.5-1.8,1.5s-1-.2-1.3-.5c-.4-.5-.5-1-.5-2.7s0-2.2.5-2.7c.3-.3.8-.5,1.3-.5,1,0,1.5.6,1.7,1.5h1.3c-.3-1.7-1.5-2.6-3.1-2.6s-1.7.3-2.3.9c-.8.8-.8,1.8-.8,3.5s0,2.6.8,3.5c.6.6,1.4.9,2.3.9,1.6,0,2.8-.9,3.1-2.6M317.2,56.9v-8.6h-1.3v6l-4-6h-1.2v8.6h1.3v-6.1l4,6.1h1.2ZM308.8,56.9v-1.2h-4.2v-2.6h3.6v-1.2h-3.6v-2.5h4.2v-1.2h-5.5v8.6h5.5ZM300.9,48.3h-1.3v8.6h1.3v-8.6ZM297.8,54.4h-1.3c-.2.9-.8,1.5-1.8,1.5s-1-.2-1.3-.5c-.4-.5-.5-1-.5-2.7s0-2.2.5-2.7c.3-.3.8-.5,1.3-.5,1,0,1.5.6,1.7,1.5h1.3c-.3-1.7-1.5-2.6-3.1-2.6s-1.7.3-2.3.9c-.8.8-.8,1.8-.8,3.5s0,2.6.8,3.5c.6.6,1.4.9,2.3.9,1.6,0,2.8-.9,3.1-2.6M290,54.5c0-.7-.2-1.4-.7-1.8-.4-.3-.8-.5-1.6-.6h-1c-.4-.2-.8-.4-1-.5-.2-.2-.3-.5-.3-.8,0-.8.6-1.3,1.6-1.3s1.3.2,1.9.7l.8-.8c-.7-.7-1.5-1-2.7-1-1.8,0-2.9,1-2.9,2.5s.2,1.2.6,1.6c.4.4.9.6,1.6.7h1c.5.2.7.3.9.5.2.2.3.5.3.9,0,.8-.7,1.3-1.8,1.3s-1.6-.2-2.2-.8l-.9.9c.8.8,1.8,1.1,3,1.1s3.1-.9,3.1-2.5"/>
      <rect class="st3" x="270.7" y="53.1" width="8.7" height="3.8"/>
      <rect class="st3" x="262" y="49.3" width="8.7" height="3.8"/>
    </g>
  </g>
  <g class="st1">
    <path class="st4" d="M523.7-17.6V118.8H-35.4V-17.6h559.1M524-17.9H-35.7V119.1h559.7V-17.9h0Z"/>
  </g>
  <line class="st0" x1="-35.7" y1="17.9" x2="524" y2="17.9"/>
  <line class="st0" x1="226.2" y1="-17.9" x2="226.2" y2="119.1"/>
  <line class="st0" x1="-17.9" y1="119.1" x2="-17.9" y2="-17.9"/>
  <line class="st0" x1="244.1" y1="119.1" x2="244.1" y2="-17.9"/>
  <line class="st0" x1="0" y1="-17.9" x2="0" y2="119.1"/>
  <line class="st0" x1="-35.7" y1="83.3" x2="524" y2="83.3"/>
  <line class="st0" x1="524" y1="100.4" x2="-35.7" y2="100.4"/>
  <line class="st0" x1="-35.7" y1="0" x2="524" y2="0"/>
  <rect class="st2" x="243.4" y="0" width="1.6" height="101.2"/>
  <line class="st0" x1="488.2" y1="-17.9" x2="488.2" y2="119.1"/>
  <line class="st0" x1="506.1" y1="119.1" x2="506.1" y2="-17.9"/>
  <line class="st0" x1="-35.7" y1="71.5" x2="524" y2="71.5"/>
  <line class="st0" x1="524" y1="29.8" x2="-35.7" y2="29.8"/>
  <line class="st0" x1="262" y1="-17.9" x2="262" y2="119.1"/>
  <polygon class="st2" points="59.5 47.6 59.5 47.6 53.6 41.7 53.6 41.7 53.6 41.7 53.6 41.7 53.6 41.7 35.7 41.7 35.7 47.6 53.6 47.6 53.6 47.6 59.5 53.6 59.5 53.6 77.4 53.6 77.4 47.6 59.5 47.6"/>
  <polygon class="st2" points="53.6 53.6 35.7 53.6 35.7 59.5 53.6 59.5 59.5 65.5 59.5 65.5 77.4 65.5 77.4 59.5 59.5 59.5 59.5 59.5 53.6 53.6"/>
  <polygon class="st2" points="59.5 71.4 59.5 71.4 53.6 65.5 53.6 65.5 35.7 65.5 35.7 71.4 53.6 71.4 53.6 71.4 59.5 77.4 59.5 77.4 77.4 77.4 77.4 71.4 59.5 71.4"/>
  <polygon class="st2" points="17.9 47.6 23.8 53.6 23.8 53.6 35.7 53.6 35.7 47.6 23.8 47.6 23.8 47.6 17.9 41.7 17.9 41.7 0 41.7 0 47.6 17.9 47.6 17.9 47.6"/>
  <polygon class="st2" points="17.9 53.6 0 53.6 0 59.5 17.9 59.5 23.8 65.5 23.8 65.5 35.7 65.5 35.7 59.5 23.8 59.5 23.8 59.5 17.9 53.6 17.9 53.6"/>
  <polygon class="st2" points="23.8 77.4 35.7 77.4 35.7 71.4 23.8 71.4 23.8 71.4 17.9 65.5 17.9 65.5 0 65.5 0 71.4 17.9 71.4 17.9 71.4 23.8 77.4 23.8 77.4"/>
  <polygon class="st2" points="59.5 35.7 59.5 35.7 53.6 29.8 53.6 29.8 35.7 29.8 35.7 35.7 53.6 35.7 53.6 35.7 59.5 41.7 59.5 41.7 77.4 41.7 77.4 35.7 59.5 35.7"/>
</svg>