<?xml version="1.0" encoding="UTF-8"?>
<svg id="Ebene_1" xmlns="http://www.w3.org/2000/svg" version="1.1" viewBox="0 0 226.3 141.8">
  <!-- Generator: Adobe Illustrator 29.3.0, SVG Export Plug-In . SVG Version: 2.1.0 Build 146)  -->
  <defs>
    <style>
      .st0 {
        fill: #c31924;
      }

      .st1 {
        fill: none;
        stroke: #c31924;
        stroke-miterlimit: 10;
        stroke-width: .2px;
      }

      .st1, .st2 {
        display: none;
      }

      .st3 {
        fill: #c95d32;
      }

      .st4 {
        fill: #691641;
      }
    </style>
  </defs>
  <rect class="st3" x="131.1" y="23.8" width="7.3" height="29.8"/>
  <polygon class="st3" points="153.8 30.3 153.8 35.5 164.9 35.5 164.9 42 153.8 42 153.8 53.5 146.5 53.5 146.5 23.8 166.7 23.8 166.7 30.3 153.8 30.3"/>
  <path class="st3" d="M184.2,30.3h-4.1v6h4.1c2,0,3.2-1.5,3.2-3s-1.2-3-3.2-3M187.8,53.5l-5.3-11.1h-2.5v11.1h-7.3v-29.8h11.8c6.6,0,10.2,4.7,10.2,9.6s-2.5,6.6-4.9,7.8l6.4,12.4h-8.5.1Z"/>
  <path class="st3" d="M212.9,35.1l-2.7,7.9h5.2l-2.5-7.9ZM218.7,53.5l-1.4-4.4h-9.2l-1.5,4.4h-7.6l10.8-29.8h5.6l10.8,29.8h-7.6,0Z"/>
  <rect class="st4" x="35.8" y="59.5" width="17.9" height="6"/>
  <rect class="st4" x="77.5" y="11.9" width="23.8" height="6"/>
  <rect class="st3" x="77.5" y="23.8" width="23.8" height="6"/>
  <rect class="st4" x="77.5" y="35.7" width="23.8" height="6"/>
  <rect class="st4" x="77.5" y="47.6" width="23.8" height="6"/>
  <rect class="st4" x="77.5" y="59.5" width="23.8" height="6"/>
  <rect class="st3" x="101.3" y="29.7" width="23.8" height="6"/>
  <rect class="st4" x="101.3" y="17.8" width="23.8" height="6"/>
  <rect class="st4" x="101.3" y="41.6" width="23.8" height="6"/>
  <rect class="st4" x="101.3" y="53.5" width="23.8" height="6"/>
  <rect class="st4" x="208.5" y="59.5" width="17.9" height="6"/>
  <rect class="st4" x="0" y="59.5" width="17.9" height="6"/>
  <rect class="st4" x="172.8" y="11.9" width="17.9" height="6"/>
  <rect class="st4" x="172.8" y="59.5" width="17.9" height="6"/>
  <rect class="st4" x="125.1" y="11.9" width="23.8" height="6"/>
  <rect class="st4" x="77.5" width="23.8" height="6"/>
  <rect class="st4" x="125.1" width="23.8" height="6"/>
  <rect class="st4" x="125.1" y="59.5" width="23.8" height="6"/>
  <g>
    <g>
      <rect class="st3" y="100.4" width="2.7" height="11.1"/>
      <polygon class="st3" points="11.6 111.5 8.1 106 8.1 111.5 5.4 111.5 5.4 100.4 7.7 100.4 11.3 106 11.3 100.4 14 100.4 14 111.5 11.6 111.5"/>
      <path class="st3" d="M19.8,111.6c-1.7,0-3.1-.3-4.2-1.5l1.7-1.7c.6.6,1.6.8,2.5.8s1.6-.4,1.6-1,0-.5-.2-.7c-.1,0-.4-.3-.7-.3l-1.3-.2c-1,0-1.7-.5-2.2-1s-.8-1.3-.8-2.2c0-2,1.5-3.5,4-3.5s2.8.4,3.7,1.3l-1.7,1.7c-.7-.7-1.6-.7-2.1-.7-.9,0-1.3.5-1.3,1s0,.3.2.5c.1,0,.4.3.8.3l1.3.2c1,0,1.7.5,2.2.9.6.6.8,1.4.8,2.4,0,2.3-1.9,3.5-4.3,3.5"/>
      <polygon class="st3" points="31.1 102.9 31.1 111.5 28.4 111.5 28.4 102.9 25.6 102.9 25.6 100.4 33.8 100.4 33.8 102.9 31.1 102.9"/>
      <rect class="st3" x="35.8" y="100.4" width="2.7" height="11.1"/>
      <polygon class="st3" points="45.9 102.9 45.9 111.5 43.2 111.5 43.2 102.9 40.5 102.9 40.5 100.4 48.7 100.4 48.7 102.9 45.9 102.9"/>
      <path class="st3" d="M54.6,111.6c-2.3,0-4.2-1.6-4.2-4v-7.2h2.7v7.1c0,1,.6,1.6,1.5,1.6s1.5-.6,1.5-1.6v-7.1h2.7v7.2c0,2.4-1.9,4-4.2,4"/>
      <polygon class="st3" points="66.1 102.9 66.1 111.5 63.4 111.5 63.4 102.9 60.7 102.9 60.7 100.4 68.8 100.4 68.8 102.9 66.1 102.9"/>
      <polygon class="st3" points="77.4 102.9 77.4 104.8 81.5 104.8 81.5 107.3 77.4 107.3 77.4 111.5 74.7 111.5 74.7 100.4 82.2 100.4 82.2 102.9 77.4 102.9"/>
      <path class="st3" d="M88.6,102.9h-1.5v2.2h1.5c.7,0,1.2-.5,1.2-1.1s-.4-1.1-1.2-1.1M89.9,111.5l-2-4.1h-.9v4.1h-2.7v-11.1h4.4c2.5,0,3.8,1.7,3.8,3.6s-.9,2.5-1.8,2.9l2.4,4.6h-3.2,0Z"/>
      <path class="st3" d="M98.9,104.6l-1,3h1.9l-.9-3ZM101.1,111.5l-.5-1.7h-3.4l-.5,1.7h-2.9l4-11.1h2.1l4,11.1h-2.9,0Z"/>
      <polygon class="st3" points="111.7 111.5 108.2 106 108.2 111.5 105.4 111.5 105.4 100.4 107.8 100.4 111.4 106 111.4 100.4 114.1 100.4 114.1 111.5 111.7 111.5"/>
      <path class="st3" d="M120.6,111.6c-1.3,0-2.3-.4-3.1-1.2-1.2-1.2-1.1-2.7-1.1-4.4s0-3.2,1.1-4.4c.8-.8,1.8-1.2,3.1-1.2,2.1,0,3.8,1.2,4.2,3.6h-2.8c-.2-.6-.5-1.2-1.4-1.2s-.9.2-1.1.5c-.3.3-.4.7-.4,2.7s.2,2.4.4,2.7c.2.3.6.5,1.1.5.9,0,1.2-.6,1.4-1.2h2.8c-.4,2.4-2.1,3.6-4.2,3.6"/>
      <path class="st3" d="M131.6,103.3c-.2-.3-.6-.5-1.1-.5s-.9.2-1.1.5c-.3.3-.4.7-.4,2.7s.2,2.4.4,2.7c.2.3.6.5,1.1.5s.9-.2,1.1-.5c.3-.3.4-.7.4-2.7s-.2-2.4-.4-2.7M133.6,110.4c-.8.8-1.7,1.2-3.1,1.2s-2.3-.4-3.1-1.2c-1.2-1.2-1.1-2.7-1.1-4.4s0-3.2,1.1-4.4c.8-.8,1.7-1.2,3.1-1.2s2.3.4,3.1,1.2c1.2,1.2,1.1,2.7,1.1,4.4s0,3.2-1.1,4.4"/>
      <rect class="st3" x="136.6" y="104.8" width="5.1" height="2.4"/>
      <path class="st3" d="M148,104.6l-1,3h1.9l-.9-3ZM150.2,111.5l-.5-1.7h-3.4l-.5,1.7h-2.9l4-11.1h2.1l4,11.1h-2.9,0Z"/>
      <polygon class="st3" points="154.6 111.5 154.6 100.4 157.3 100.4 157.3 109.1 161.9 109.1 161.9 111.5 154.6 111.5"/>
      <polygon class="st3" points="163.9 111.5 163.9 100.4 166.6 100.4 166.6 109.1 171.3 109.1 171.3 111.5 163.9 111.5"/>
      <polygon class="st3" points="173.3 111.5 173.3 100.4 180.8 100.4 180.8 102.9 176 102.9 176 104.7 180.1 104.7 180.1 107.2 176 107.2 176 109.1 180.8 109.1 180.8 111.5 173.3 111.5"/>
      <polygon class="st3" points="190.8 111.5 190.8 106.2 189.2 109 187.4 109 185.9 106.2 185.9 111.5 183.1 111.5 183.1 100.4 185.8 100.4 188.3 105.3 190.8 100.4 193.5 100.4 193.5 111.5 190.8 111.5"/>
      <path class="st3" d="M200.2,104.6l-1,3h1.9l-.9-3ZM202.3,111.5l-.5-1.7h-3.4l-.5,1.7h-2.9l4-11.1h2.1l4,11.1h-2.9,0Z"/>
      <polygon class="st3" points="213 111.5 209.4 106 209.4 111.5 206.7 111.5 206.7 100.4 209.1 100.4 212.6 106 212.6 100.4 215.3 100.4 215.3 111.5 213 111.5"/>
      <path class="st3" d="M223.2,103.5c-.2-.4-.6-.6-1.3-.6h-1.2v6.2h1.2c.7,0,1.1-.3,1.3-.6.2-.3.3-.6.3-2.5s0-2.2-.3-2.5M225.1,110.4c-.8.8-1.8,1.1-3,1.1h-4.1v-11.1h4.1c1.2,0,2.2.3,3,1.1,1.3,1.3,1.2,2.7,1.2,4.5s.1,3.2-1.2,4.5"/>
    </g>
    <path class="st4" d="M226.2,141.5v-8.6h-1.3v6l-4-6h-1.2v8.6h1.3v-6.1l4,6.1h1.2ZM218.1,141.5v-1.2h-4.2v-2.6h3.6v-1.2h-3.6v-2.5h4.2v-1.2h-5.5v8.6h5.5ZM211.3,134.1v-1.2h-6v1.2h2.4v7.4h1.3v-7.4h2.4,0ZM204.6,134.1v-1.2h-5.5v8.6h1.3v-3.6h3.6v-1.2h-3.6v-2.6s4.2,0,4.2,0ZM195.7,138.7h-2.6l1.3-3.8,1.3,3.8h0ZM198,141.5l-3.2-8.6h-1.1l-3.2,8.6h1.4l.6-1.7h3.4l.6,1.7h1.5ZM189.6,141.5v-8.6h-1.3v3.7h-3.5v-3.7h-1.3v8.6h1.3v-3.8h3.5v3.8h1.3ZM181.9,139h-1.3c-.2.9-.8,1.5-1.8,1.5s-1-.2-1.3-.5c-.4-.5-.5-1-.5-2.7s0-2.2.5-2.7c.3-.3.8-.5,1.3-.5,1,0,1.5.6,1.7,1.5h1.3c-.3-1.7-1.5-2.6-3.1-2.6s-1.7.3-2.3.9c-.8.8-.8,1.8-.8,3.5s0,2.6.8,3.5c.6.6,1.4.9,2.3.9,1.6,0,2.8-.9,3.1-2.6M174.4,139.1c0-.7-.2-1.4-.7-1.8-.4-.3-.8-.5-1.6-.6h-1c-.4-.2-.8-.3-1-.5s-.3-.5-.3-.8c0-.8.6-1.3,1.6-1.3s1.3.2,1.9.7l.8-.8c-.7-.7-1.5-1-2.7-1-1.8,0-2.9,1-2.9,2.5s.2,1.2.6,1.6.9.6,1.6.7h1c.5.2.7.3.9.5.2.2.3.5.3.9,0,.8-.7,1.3-1.8,1.3s-1.6-.2-2.2-.8l-.9.9c.8.8,1.8,1.1,3,1.1s3.1-.9,3.1-2.5M167,141.5v-8.6h-1.3v6l-4-6h-1.2v8.6h1.3v-6.1l4,6.1h1.2ZM158.8,141.5v-1.2h-4.2v-2.6h3.6v-1.2h-3.6v-2.5h4.2v-1.2h-5.5v8.6h5.5ZM151.7,139.1c0-.7-.2-1.4-.7-1.8-.4-.3-.8-.5-1.6-.6h-1c-.4-.2-.8-.3-1-.5s-.3-.5-.3-.8c0-.8.6-1.3,1.6-1.3s1.3.2,1.9.7l.8-.8c-.7-.7-1.5-1-2.7-1-1.8,0-2.9,1-2.9,2.5s.2,1.2.6,1.6.9.6,1.6.7h1c.5.2.7.3.9.5.2.2.3.5.3.9,0,.8-.7,1.3-1.8,1.3s-1.6-.2-2.2-.8l-.9.9c.8.8,1.8,1.1,3,1.1s3.1-.9,3.1-2.5M144.8,139.1c0-.7-.2-1.4-.7-1.8-.4-.3-.8-.5-1.6-.6h-1c-.4-.2-.8-.3-1-.5s-.3-.5-.3-.8c0-.8.6-1.3,1.6-1.3s1.3.2,1.9.7l.8-.8c-.7-.7-1.5-1-2.7-1-1.8,0-2.9,1-2.9,2.5s.2,1.2.6,1.6.9.6,1.6.7h1c.5.2.7.3.9.5.2.2.3.5.3.9,0,.8-.7,1.3-1.8,1.3s-1.6-.2-2.2-.8l-.9.9c.8.8,1.8,1.1,3,1.1s3.1-.9,3.1-2.5M137.4,132.9h-1.3v8.6h1.3v-8.6ZM135,132.9h-1.4l-1.5,6.2-1.7-6.2h-1.1l-1.7,6.2-1.5-6.2h-1.4l2.2,8.6h1.1l1.7-6,1.8,6h1.1l2.2-8.6h.2ZM124.8,141.5v-1.2h-4.1v-7.4h-1.3v8.6h5.5-.1ZM116,138.7h-2.6l1.3-3.8,1.3,3.8h0ZM118.3,141.5l-3.2-8.6h-1.1l-3.2,8.6h1.4l.6-1.7h3.4l.6,1.7h1.5ZM109.9,132.9h-1.3v8.6h1.3v-8.6ZM107,141.5v-1.2h-4l4-6.4v-1.1h-5.3v1.2h3.8l-4,6.3v1.1h5.5ZM99,137.2c0,1.7,0,2.2-.5,2.7-.3.3-.8.5-1.3.5s-1-.2-1.3-.5c-.4-.5-.5-.9-.5-2.7s0-2.2.5-2.7c.3-.3.8-.5,1.3-.5s1,.2,1.3.5c.4.5.5.9.5,2.7M100.3,137.2c0-1.7,0-2.6-.8-3.5-.6-.6-1.4-.9-2.3-.9s-1.7.3-2.3.9c-.8.8-.8,1.8-.8,3.5s0,2.6.8,3.5c.6.6,1.3.9,2.3.9s1.7-.3,2.3-.9c.8-.8.8-1.8.8-3.5M92.8,139.1c0-.7-.2-1.4-.7-1.8-.4-.3-.8-.5-1.6-.6h-1c-.4-.2-.8-.3-1-.5s-.3-.5-.3-.8c0-.8.6-1.3,1.6-1.3s1.3.2,1.9.7l.8-.8c-.7-.7-1.5-1-2.7-1-1.8,0-2.9,1-2.9,2.5s.2,1.2.6,1.6.9.6,1.6.7h1c.5.2.7.3.9.5.2.2.3.5.3.9,0,.8-.7,1.3-1.8,1.3s-1.6-.2-2.2-.8l-.9.9c.8.8,1.8,1.1,3,1.1s3.1-.9,3.1-2.5M79.7,134.8c0,.4-.3.7-.6.9,0,0-.3.2-.4.3-.4-.5-.7-.8-.7-1.2s.3-.8.8-.8.9.4.9.9M80.3,139.8c-.6.5-1.1.7-1.6.7-.9,0-1.6-.6-1.6-1.5s.5-1.2,1.2-1.6l2,2.4ZM83.3,141.5l-1.4-1.7c.6-.7.8-1.5.9-2.6h-1.2c0,.8-.1,1.3-.5,1.7l-1.8-2.2c.2,0,.6-.4.6-.4.5-.4.9-.8.9-1.5,0-1.1-.8-1.9-2-1.9s-2.1.8-2.1,1.9.5,1.4.9,1.9c-.8.6-1.7,1.2-1.7,2.4s1,2.6,2.8,2.6,2-.6,2.4-.9l.7.8h1.6,0ZM73.6,136.7h-3.5v1.1h3.5v-1.1ZM68.8,139.1c0-.7-.2-1.4-.7-1.8-.4-.3-.8-.5-1.6-.6h-1c-.4-.2-.8-.3-1-.5s-.3-.5-.3-.8c0-.8.6-1.3,1.6-1.3s1.3.2,1.9.7l.8-.8c-.7-.7-1.5-1-2.7-1-1.8,0-2.9,1-2.9,2.5s.2,1.2.6,1.6.9.6,1.6.7h1c.5.2.7.3.9.5.2.2.3.5.3.9,0,.8-.7,1.3-1.8,1.3s-1.6-.2-2.2-.8l-.9.9c.8.8,1.8,1.1,3,1.1s3.1-.9,3.1-2.5M62.1,134.1v-1.2h-6v1.2h2.4v7.4h1.3v-7.4h2.4,0ZM54.7,141.5v-8.6h-1.3v3.7h-3.5v-3.7h-1.3v8.6h1.3v-3.8h3.5v3.8h1.3ZM47,139h-1.3c-.2.9-.8,1.5-1.8,1.5s-1-.2-1.3-.5c-.4-.5-.5-1-.5-2.7s0-2.2.5-2.7c.3-.3.8-.5,1.3-.5,1,0,1.5.6,1.7,1.5h1.3c-.3-1.7-1.5-2.6-3.1-2.6s-1.7.3-2.3.9c-.8.8-.8,1.8-.8,3.5s0,2.6.8,3.5c.6.6,1.4.9,2.3.9,1.6,0,2.8-.9,3.1-2.6M39.1,132.9h-1.3v8.6h1.3v-8.6ZM35.7,141.5v-8.6h-1.3v3.7h-3.5v-3.7h-1.3v8.6h1.3v-3.8h3.5v3.8h1.3ZM28,139h-1.3c-.2.9-.8,1.5-1.8,1.5s-1-.2-1.3-.5c-.4-.5-.5-1-.5-2.7s0-2.2.5-2.7c.3-.3.8-.5,1.3-.5,1,0,1.5.6,1.7,1.5h1.3c-.3-1.7-1.5-2.6-3.1-2.6s-1.7.3-2.3.9c-.8.8-.8,1.8-.8,3.5s0,2.6.8,3.5c.6.6,1.4.9,2.3.9,1.6,0,2.8-.9,3.1-2.6M20.5,139.1c0-.7-.2-1.4-.7-1.8-.4-.3-.8-.5-1.6-.6h-1c-.4-.2-.8-.3-1-.5s-.3-.5-.3-.8c0-.8.6-1.3,1.6-1.3s1.3.2,1.9.7l.8-.8c-.7-.7-1.5-1-2.7-1-1.8,0-2.9,1-2.9,2.5s.2,1.2.6,1.6.9.6,1.6.7h1c.5.2.7.3.9.5.2.2.3.5.3.9,0,.8-.7,1.3-1.8,1.3s-1.6-.2-2.2-.8l-.9.9c.8.8,1.8,1.1,3,1.1s3.1-.9,3.1-2.5M13.5,141.5v-1.2h-4.2v-2.6h3.6v-1.2h-3.6v-2.5h4.2v-1.2h-5.5v8.6h5.5ZM6.2,138.2v-1.3h-3.1v1.1h1.8v.5c0,.6-.1,1-.4,1.4s-.8.6-1.4.6-1-.2-1.3-.5c-.4-.5-.5-1-.5-2.7s0-2.2.5-2.7c.3-.3.8-.5,1.3-.5,1,0,1.6.6,1.8,1.5h1.3c-.2-1.5-1.3-2.7-3.1-2.7s-1.7.3-2.3.9c-.8.8-.8,1.8-.8,3.5s0,2.6.8,3.5c.6.6,1.4.9,2.3.9s1.7-.3,2.4-1c.6-.6.8-1.3.8-2.4"/>
    <g>
      <path class="st4" d="M226.2,124.6c0-.7-.2-1.4-.7-1.8-.4-.3-.8-.5-1.6-.6h-1c-.4-.2-.8-.4-1-.5-.2-.2-.3-.5-.3-.8,0-.8.6-1.3,1.6-1.3s1.3.2,1.9.7l.8-.8c-.7-.7-1.5-1-2.7-1-1.8,0-2.9,1-2.9,2.5s.2,1.2.6,1.6c.4.4.9.6,1.6.7h1c.5.2.7.3.9.5.2.2.3.5.3.9,0,.8-.7,1.3-1.8,1.3s-1.6-.2-2.2-.8l-.9.9c.8.8,1.8,1.1,3,1.1s3.1-.9,3.1-2.5M218.9,127v-1.2h-4.2v-2.6h3.6v-1.2h-3.6v-2.5h4.2v-1.2h-5.5v8.6h5.5ZM211.8,127v-1.2h-4.1v-7.4h-1.3v8.6h5.5-.1ZM202.7,124.2h-2.6l1.3-3.8,1.3,3.8h0ZM205,127l-3.2-8.6h-1.1l-3.2,8.6h1.4l.6-1.7h3.4l.6,1.7h1.5ZM196.3,118.4h-1.3v8.6h1.3v-8.6ZM193.2,124.5h-1.3c-.2.9-.8,1.5-1.8,1.5s-1-.2-1.3-.5c-.4-.5-.5-1-.5-2.7s0-2.2.5-2.7c.3-.3.8-.5,1.3-.5,1,0,1.5.6,1.7,1.5h1.3c-.3-1.7-1.5-2.6-3.1-2.6s-1.7.3-2.3.9c-.8.8-.8,1.8-.8,3.5s0,2.6.8,3.5c.6.6,1.4.9,2.3.9,1.6,0,2.8-.9,3.1-2.6M183.9,122.7c0,1.7,0,2.2-.5,2.7-.3.3-.8.5-1.3.5s-1-.2-1.3-.5c-.4-.5-.5-.9-.5-2.7s0-2.2.5-2.7c.3-.3.8-.5,1.3-.5s1,.2,1.3.5c.4.5.5.9.5,2.7M185.2,122.7c0-1.7,0-2.6-.8-3.5-.6-.6-1.4-.9-2.3-.9s-1.7.3-2.3.9c-.8.8-.8,1.8-.8,3.5s0,2.6.8,3.5c.6.6,1.3.9,2.3.9s1.7-.3,2.3-.9c.8-.8.8-1.8.8-3.5M177.5,124.6c0-.7-.2-1.4-.7-1.8-.4-.3-.8-.5-1.6-.6h-1c-.4-.2-.8-.4-1-.5-.2-.2-.3-.5-.3-.8,0-.8.6-1.3,1.6-1.3s1.3.2,1.9.7l.8-.8c-.7-.7-1.5-1-2.7-1-1.8,0-2.9,1-2.9,2.5s.2,1.2.6,1.6c.4.4.9.6,1.6.7h1c.5.2.7.3.9.5.2.2.3.5.3.9,0,.8-.7,1.3-1.8,1.3s-1.6-.2-2.2-.8l-.9.9c.8.8,1.8,1.1,3,1.1s3.1-.9,3.1-2.5M164.8,120.3c0,.4-.3.7-.6.9,0,0-.3.2-.4.3-.4-.5-.7-.8-.7-1.2s.3-.8.8-.8.9.4.9.9M165.4,125.3c-.6.5-1.1.7-1.6.7-.9,0-1.6-.6-1.6-1.5s.5-1.2,1.2-1.6c0,0,2,2.4,2,2.4ZM168.5,127l-1.4-1.7c.6-.7.8-1.5.9-2.6h-1.2c0,.8-.1,1.3-.5,1.7l-1.8-2.2c.2,0,.6-.4.6-.4.5-.4.9-.8.9-1.5,0-1.1-.8-1.9-2-1.9s-2.1.8-2.1,1.9.5,1.4.9,1.9c-.8.6-1.7,1.2-1.7,2.4s1,2.6,2.8,2.6,2-.6,2.4-.9l.7.8h1.6,0ZM157.6,124.6c0-.7-.2-1.4-.7-1.8-.4-.3-.8-.5-1.6-.6h-1c-.4-.2-.8-.4-1-.5-.2-.2-.3-.5-.3-.8,0-.8.6-1.3,1.6-1.3s1.3.2,1.9.7l.8-.8c-.7-.7-1.5-1-2.7-1-1.8,0-2.9,1-2.9,2.5s.2,1.2.6,1.6c.4.4.9.6,1.6.7h1c.5.2.7.3.9.5.2.2.3.5.3.9,0,.8-.7,1.3-1.8,1.3s-1.6-.2-2.2-.8l-.9.9c.8.8,1.8,1.1,3,1.1s3.1-.9,3.1-2.5M150.3,127v-1.2h-4.2v-2.6h3.6v-1.2h-3.6v-2.5h4.2v-1.2h-5.5v8.6h5.5ZM142.6,124.1v-5.7h-1.3v5.6c0,1.1-.7,1.9-1.8,1.9s-1.8-.7-1.8-1.9v-5.6h-1.3v5.7c0,1.8,1.3,3,3.1,3s3.1-1.2,3.1-3M133.1,122.7c0,1.1,0,1.7-.3,2.1l-.8-.8-.7.7.9.9c-.3.2-.6.3-.9.3-.5,0-1-.2-1.3-.5-.4-.5-.5-.9-.5-2.7s0-2.2.5-2.7c.3-.3.8-.5,1.3-.5s1,.2,1.3.5c.4.5.5.9.5,2.7M134.7,126.7l-.8-.8c.6-.8.6-1.7.6-3.1s0-2.6-.8-3.5c-.6-.6-1.4-.9-2.3-.9s-1.7.3-2.3.9c-.8.8-.8,1.8-.8,3.5s0,2.6.8,3.5c.6.6,1.3.9,2.3.9s1.3-.2,1.8-.5l.9.9.7-.7v-.2ZM126.2,118.4h-1.3v8.6h1.3v-8.6ZM121.6,120.9c0,.8-.6,1.3-1.5,1.3h-1.9v-2.7h1.9c.9,0,1.5.5,1.5,1.4M123.1,127l-2-3.8c1-.3,1.7-1.1,1.7-2.3s-1-2.5-2.7-2.5h-3.3v8.6h1.3v-3.6h1.6l1.8,3.6h1.6ZM113.5,122.7c0,1.7,0,2.2-.5,2.7-.3.3-.8.5-1.3.5s-1-.2-1.3-.5c-.4-.5-.5-.9-.5-2.7s0-2.2.5-2.7c.3-.3.8-.5,1.3-.5s1,.2,1.3.5c.4.5.5.9.5,2.7M114.8,122.7c0-1.7,0-2.6-.8-3.5-.6-.6-1.4-.9-2.3-.9s-1.7.3-2.3.9c-.8.8-.8,1.8-.8,3.5s0,2.6.8,3.5c.6.6,1.3.9,2.3.9s1.7-.3,2.3-.9c.8-.8.8-1.8.8-3.5M107.6,119.6v-1.2h-6v1.2h2.4v7.4h1.3v-7.4h2.4,0ZM100.4,124.6c0-.7-.2-1.4-.7-1.8-.4-.3-.8-.5-1.6-.6h-1c-.4-.2-.8-.4-1-.5-.2-.2-.3-.5-.3-.8,0-.8.6-1.3,1.6-1.3s1.3.2,1.9.7l.8-.8c-.7-.7-1.5-1-2.7-1-1.8,0-2.9,1-2.9,2.5s.2,1.2.6,1.6c.4.4.9.6,1.6.7h1c.5.2.7.3.9.5.2.2.3.5.3.9,0,.8-.7,1.3-1.8,1.3s-1.6-.2-2.2-.8l-.9.9c.8.8,1.8,1.1,3,1.1s3.1-.9,3.1-2.5M92.6,118.4h-1.3v8.6h1.3v-8.6ZM89,127v-8.6h-1.3v3.7h-3.5v-3.7h-1.3v8.6h1.3v-3.8h3.5v3.8h1.3ZM78.1,124.6c0-.7-.2-1.4-.7-1.8-.4-.3-.8-.5-1.6-.6h-1c-.4-.2-.8-.4-1-.5-.2-.2-.3-.5-.3-.8,0-.8.6-1.3,1.6-1.3s1.3.2,1.9.7l.8-.8c-.7-.7-1.5-1-2.7-1-1.8,0-2.9,1-2.9,2.5s.2,1.2.6,1.6c.4.4.9.6,1.6.7h1c.5.2.7.3.9.5.2.2.3.5.3.9,0,.8-.7,1.3-1.8,1.3s-1.6-.2-2.2-.8l-.9.9c.8.8,1.8,1.1,3,1.1s3.1-.9,3.1-2.5M70.8,127v-1.2h-4.2v-2.6h3.6v-1.2h-3.6v-2.5h4.2v-1.2h-5.5v8.6h5.5ZM63.4,124.5h-1.3c-.2.9-.8,1.5-1.8,1.5s-1-.2-1.3-.5c-.4-.5-.5-1-.5-2.7s0-2.2.5-2.7c.3-.3.8-.5,1.3-.5,1,0,1.5.6,1.7,1.5h1.3c-.3-1.7-1.5-2.6-3.1-2.6s-1.7.3-2.3.9c-.8.8-.8,1.8-.8,3.5s0,2.6.8,3.5c.6.6,1.4.9,2.3.9,1.6,0,2.8-.9,3.1-2.6M55.2,127v-8.6h-1.3v6l-4-6h-1.2v8.6h1.3v-6.1l4,6.1h1.2ZM46.8,127v-1.2h-4.2v-2.6h3.6v-1.2h-3.6v-2.5h4.2v-1.2h-5.5v8.6h5.5ZM38.9,118.4h-1.3v8.6h1.3v-8.6ZM35.8,124.5h-1.3c-.2.9-.8,1.5-1.8,1.5s-1-.2-1.3-.5c-.4-.5-.5-1-.5-2.7s0-2.2.5-2.7c.3-.3.8-.5,1.3-.5,1,0,1.5.6,1.7,1.5h1.3c-.3-1.7-1.5-2.6-3.1-2.6s-1.7.3-2.3.9c-.8.8-.8,1.8-.8,3.5s0,2.6.8,3.5c.6.6,1.4.9,2.3.9,1.6,0,2.8-.9,3.1-2.6M28,124.6c0-.7-.2-1.4-.7-1.8-.4-.3-.8-.5-1.6-.6h-1c-.4-.2-.8-.4-1-.5-.2-.2-.3-.5-.3-.8,0-.8.6-1.3,1.6-1.3s1.3.2,1.9.7l.8-.8c-.7-.7-1.5-1-2.7-1-1.8,0-2.9,1-2.9,2.5s.2,1.2.6,1.6c.4.4.9.6,1.6.7h1c.5.2.7.3.9.5.2.2.3.5.3.9,0,.8-.7,1.3-1.8,1.3s-1.6-.2-2.2-.8l-.9.9c.8.8,1.8,1.1,3,1.1s3.1-.9,3.1-2.5"/>
      <rect class="st3" x="8.7" y="123.2" width="8.7" height="3.8"/>
      <rect class="st3" y="119.4" width="8.7" height="3.8"/>
    </g>
  </g>
  <g class="st2">
    <path class="st0" d="M523.8-35.5V100.9H-35.3V-35.5h559.1M524.1-35.8H-35.6V101.2h559.7V-35.8h0Z"/>
  </g>
  <line class="st1" x1="-35.6" x2="524.1"/>
  <line class="st1" x1="226.3" y1="-35.8" x2="226.3" y2="101.2"/>
  <line class="st1" x1="-17.8" y1="101.2" x2="-17.8" y2="-35.8"/>
  <line class="st1" x1="244.2" y1="101.2" x2="244.2" y2="-35.8"/>
  <line class="st1" x1="0" y1="-35.8" x2="0" y2="101.2"/>
  <line class="st1" x1="-35.6" y1="65.4" x2="524.1" y2="65.4"/>
  <line class="st1" x1="524.1" y1="82.5" x2="-35.6" y2="82.5"/>
  <line class="st1" x1="-35.6" y1="-17.9" x2="524.1" y2="-17.9"/>
  <rect class="st4" x="112.5" y="-30.4" width="1.2" height="226.1" transform="translate(195.8 -30.4) rotate(90)"/>
  <line class="st1" x1="488.3" y1="-35.8" x2="488.3" y2="101.2"/>
  <line class="st1" x1="506.2" y1="101.2" x2="506.2" y2="-35.8"/>
  <line class="st1" x1="-35.6" y1="53.6" x2="524.1" y2="53.6"/>
  <line class="st1" x1="524.1" y1="11.9" x2="-35.6" y2="11.9"/>
  <line class="st1" x1="262.1" y1="-35.8" x2="262.1" y2="101.2"/>
  <polygon class="st4" points="59.6 29.7 59.6 29.7 53.7 23.8 53.7 23.8 53.7 23.8 53.7 23.8 53.7 23.8 35.8 23.8 35.8 29.7 53.7 29.7 53.7 29.7 59.6 35.7 59.6 35.7 77.5 35.7 77.5 29.7 59.6 29.7"/>
  <polygon class="st4" points="53.7 35.7 35.8 35.7 35.8 41.6 53.7 41.6 59.6 47.6 59.6 47.6 77.5 47.6 77.5 41.6 59.6 41.6 59.6 41.6 53.7 35.7"/>
  <polygon class="st4" points="59.6 53.5 59.6 53.5 53.7 47.6 53.7 47.6 35.8 47.6 35.8 53.5 53.7 53.5 53.7 53.5 59.6 59.5 59.6 59.5 77.5 59.5 77.5 53.5 59.6 53.5"/>
  <polygon class="st4" points="18 29.7 23.9 35.7 23.9 35.7 35.8 35.7 35.8 29.7 23.9 29.7 23.9 29.7 18 23.8 18 23.8 0 23.8 0 29.7 18 29.7 18 29.7"/>
  <polygon class="st4" points="18 35.7 0 35.7 0 41.6 18 41.6 23.9 47.6 23.9 47.6 35.8 47.6 35.8 41.6 23.9 41.6 23.9 41.6 18 35.7 18 35.7"/>
  <polygon class="st4" points="23.9 59.5 35.8 59.5 35.8 53.5 23.9 53.5 23.9 53.5 18 47.6 18 47.6 0 47.6 0 53.5 18 53.5 18 53.5 23.9 59.5 23.9 59.5"/>
  <polygon class="st4" points="59.6 17.8 59.6 17.8 53.7 11.9 53.7 11.9 35.8 11.9 35.8 17.8 53.7 17.8 53.7 17.8 59.6 23.8 59.6 23.8 77.5 23.8 77.5 17.8 59.6 17.8"/>
</svg>