<svg xmlns="http://www.w3.org/2000/svg" xmlns:xlink="http://www.w3.org/1999/xlink" viewBox="0 0 276.73 258"><defs><style>.cls-1{fill:none;}.cls-2{clip-path:url(#clip-path);}.cls-3{fill:url(#Unbenannter_Verlauf);}.cls-4{fill:#007e46;stroke:#fff;stroke-miterlimit:10;stroke-width:4px;}</style><clipPath id="clip-path"><path class="cls-1" d="M95.42,186.19C88,185,81.91,182.41,79.26,179.52c-6.33-6.32-11.1-20.33-13.53-33.33s-3.19-24.4-3.64-28.18c-.92-11.39-1.64-21-1.64-29.16,0-9.7,1-17.16,3.58-23.33s6.6-11.43,13.9-17c5.51-4.57,20.84-7,36.52-6.83,12,0,24.41,1,33.77,1.83a300.22,300.22,0,0,1,32.86,4.6,141.68,141.68,0,0,1,23.55,6.63c6.87,2.67,11.88,6.15,13.41,8.59,9.85,13.87,9,38.54,9.56,59.62,0,1.37.07,2.81.07,4.29A158.43,158.43,0,0,1,222,168.62c-3.81,13.68-10.2,24.79-16.9,28.57-4.53,2.89-19.72,6.92-34.85,9.45S139,211,131.11,210.94h-1c-18.17-.34-30.56-.87-40.07-2.59a60.85,60.85,0,0,1-24.41-9.81c-5.25-3.54-9.45-9.41-11.46-26.63-.72-6.57-1.58-14.32-2.45-21.63,2.87,13.8,7.33,29,17.07,39.36,6.48,6.58,15.28,9.29,24.12,10.91a151,151,0,0,0,25.73,1.8c3,0,5.76-.05,8.09-.06,28.39-.5,57.3-3.93,73.91-18.05,10.65-9.44,17.13-24.88,17.15-43.28a88.53,88.53,0,0,0-3.62-24.5C208.61,97.19,196.22,82.29,180.31,71c-13.92-9.72-32.45-11.46-44.92-11.57a70.86,70.86,0,0,0-11.16.75c-23,4-36.62,10.62-44.54,20.91a46.43,46.43,0,0,0-9,18.6c-1.34,6.17-1.31,12-1.32,18.68-.06,16.58,2.31,32.66,14.4,46,7.61,8.16,21.11,15.28,35,17.39A128.81,128.81,0,0,0,136.1,183c7.89,0,15.87-.75,22.94-3.08,12.55-4,20.31-9.19,28.15-19.06,4-4.88,10.56-12.79,10.5-24.94-.08-13.13-4.85-27-16.24-35-8-5.31-19.95-8.75-30.44-8.91l-.49,0h-1.45a45.27,45.27,0,0,0-15.24,2.45c-6.1,2.11-13.25,7.12-15.8,16-1.36,4.79-3.53,11.85-3.56,19.6a27.28,27.28,0,0,0,5.22,16.9c3.76,4.7,11.4,13.15,23.62,14.69a46.58,46.58,0,0,0,4.8.26c6,0,11.76-1.37,16.4-4.8a22.84,22.84,0,0,0,8.63-14.56,22.15,22.15,0,0,0,.34-4,48.68,48.68,0,0,0-2.6-14.09l-.45-1.28-.87-1c-1.1-1.46-5.84-5.25-14.38-5.15a48.29,48.29,0,0,0-14,2.37l4.25,13.93a33.92,33.92,0,0,1,9.77-1.73,13.77,13.77,0,0,1,2.7.25,29.82,29.82,0,0,1,1,6.74,8.36,8.36,0,0,1-.1,1.37c-.63,3.09-1.63,4.46-3,5.53s-3.76,1.91-7.71,1.91c-1,0-2.1-.06-3.29-.18-5.08-.28-11.27-5.84-13.57-9.06-1.48-1.93-2.2-4.54-2.21-8,0-4.89,1.59-10.82,3-15.53,1-3.37,3.14-5,6.79-6.43a31.69,31.69,0,0,1,10.25-1.58c.91,0,1.26,0,1.94.05,6.68-.17,18.11,3.33,22.19,6.34,5.93,3.88,10,13.45,9.92,23-.07,6.91-3,10.55-7.21,15.71-7.29,8.6-10,10.43-21.47,14.46-4.69,1.58-11.47,2.36-18.34,2.34a115.39,115.39,0,0,1-15.31-1.06c-9.82-1.17-22.25-8-26.19-12.7C86,145,84,134,83.94,118.32c0-6.63.07-11.48,1-15.56S87.43,95,91.28,89.88c4.43-5.88,13.9-11.67,35.45-15.39A56.82,56.82,0,0,1,135.4,74c10.8-.11,27.49,2.23,36.46,8.86,14,10,23.78,22.08,28.3,37.66A73.76,73.76,0,0,1,203.21,141c0,15-5.37,26.36-12.22,32.36-10,9.39-37.52,14.39-64.39,14.4-2.41,0-5.1.07-8,.07h-.25a137.11,137.11,0,0,1-23-1.59M69.12,36.91c-8.85,6.68-15,14.31-18.57,23.06S45.89,78.2,45.89,88.85c0,9,.77,19,1.7,30.56v.16l0,.19c.06.4.12,1.09.21,2a71.69,71.69,0,0,0-5.19-18l-13.25,6.07c3.8,8.21,4.55,18,5.58,24.94,1.43,9.2,3.33,26.16,4.7,38.66,1.95,18.94,8,30.77,17.94,37.24a75.89,75.89,0,0,0,29.84,11.95c11.13,2,24.07,2.46,42.37,2.82.48,0,.89,0,1.29,0,9.54,0,25.71-1.77,41.67-4.52s31-6.23,39.83-11.29c12.31-7.6,18.95-21.85,23.43-37.06a172.69,172.69,0,0,0,6.2-45.4c0-1.67,0-3.27-.08-4.79-.95-20,1.5-46.91-12.09-67.34-4.7-6.66-11.95-10.58-20-13.89-24.14-9.59-58.91-12-60.58-12.23-9.4-.79-22.16-1.88-35-1.88-16.84.18-33.68,1.33-45.33,9.8"/></clipPath><radialGradient id="Unbenannter_Verlauf" cx="2.3" cy="833" r="1" gradientTransform="translate(-71.94 -79009.55) scale(95.01)" gradientUnits="userSpaceOnUse"><stop offset="0" stop-color="#007e3e"/><stop offset="0.3" stop-color="#007e3e"/><stop offset="0.65" stop-color="#a4d5c6"/><stop offset="1" stop-color="#a4d5c6"/></radialGradient></defs><title>Logo-isgv</title><g id="Ebene_1" data-name="Ebene 1"><g class="cls-2"><rect class="cls-3" x="29.39" y="27.11" width="214.27" height="198.4"/></g><path class="cls-4" d="M45.62,94.1H58v66.51H45.62Z"/><path class="cls-4" d="M67.76,141.89H80.63a7.5,7.5,0,0,0,2.79,6.25,10.15,10.15,0,0,0,6.48,2.21A8.62,8.62,0,0,0,96,148a7.82,7.82,0,0,0,2.57-6q0-4.95-3.15-7.2a26,26,0,0,0-6.93-3.51,5.92,5.92,0,0,0-.77-.32c-.27-.09-.52-.16-.76-.22l-.5-.18-.49-.18a52.72,52.72,0,0,1-5.58-2.21,17.43,17.43,0,0,1-5-3.55,18.32,18.32,0,0,1-3.38-5,20.93,20.93,0,0,1-1.75-5.76c0-.36,0-.71,0-1s0-.67,0-1A17.58,17.58,0,0,1,76,98.28a19.72,19.72,0,0,1,13.77-5.35,19.3,19.3,0,0,1,13.63,5.53,17.39,17.39,0,0,1,5.81,13.37l-12.69-.09a6.42,6.42,0,0,0-2.34-4.95,7.75,7.75,0,0,0-5.13-1.89,6.14,6.14,0,0,0-4.77,2,7,7,0,0,0-1.8,4.86v.18a5.63,5.63,0,0,0,2.16,5,18.86,18.86,0,0,0,4.95,2.7l.63.22.63.23c.3.12.6.22.9.31s.6.2.9.32q3.06,1,5.89,2.2a20.65,20.65,0,0,1,5.27,3.29,17.39,17.39,0,0,1,5.31,6.52,20.47,20.47,0,0,1,1.71,8.6,19.71,19.71,0,0,1-6.39,14.94,21.4,21.4,0,0,1-15.21,6,22,22,0,0,1-15-5.76A18.5,18.5,0,0,1,67.76,142Z"/><path class="cls-4" d="M176.82,94.1h13l17.91,50.58L225.6,94.1h13l-25.74,66.51H202.65Z"/></g></svg>