<?xml version="1.0" encoding="UTF-8"?>
<svg id="Ebene_1" data-name="Ebene 1" xmlns="http://www.w3.org/2000/svg" viewBox="0 0 267.6 76.03">
  <defs>
    <style>
      .cls-1 {
        fill: #00528c;
      }
    </style>
  </defs>
  <path class="cls-1" d="M2.2,68.49l5.66-6.48,2.28.51-5.35,5.85,5.66,6.69-2.26.64-5.99-7.22h0ZM.03,62.15h2.13v13.42H.03v-13.42Z"/>
  <path class="cls-1" d="M16.19,73.7c1.43-.02,2.73-.37,2.73-2.19,0-1.33-1.11-1.97-2.52-1.97h-1.79v4.18l1.58-.02ZM16.17,67.71c1.46,0,2.26-.78,2.26-1.99s-1.03-1.7-2.15-1.7h-1.68v3.69h1.57ZM12.5,62.15h3.9c1.89,0,4.2.7,4.2,3.45,0,1.54-.82,2.4-1.58,2.89.98.31,2.09,1.44,2.09,3.18,0,2.83-2.4,3.9-4.8,3.9h-3.81s0-13.42,0-13.42Z"/>
  <path class="cls-1" d="M32.85,52.7l-4.96-17.71,5-19.29,4.96,17.71-5,19.29ZM19.18,25.41l5-19.29,4.96,17.71-5,19.29-4.96-17.71ZM26.07,6.99l-1.96-6.99-1.81,6.99H0v44.89h30.97l1.94,6.93,1.8-6.93h9.65V6.99h-18.29Z"/>
  <polygon class="cls-1" points="24.72 62.15 26.82 62.15 26.82 73.7 32.75 73.7 32.75 75.57 24.72 75.57 24.72 62.15"/>
  <path class="cls-1" d="M33.11,68.96c0-4.06,2.97-6.91,6.93-6.91,1.64,0,3,.37,3.92.94l-.94,1.56c-.68-.37-1.89-.64-2.91-.64-2.97,0-4.86,2.11-4.86,5.05,0,2.65,1.68,4.86,4.49,4.86,1.29,0,1.93-.18,2.6-.59v-3.16h-3.06v-1.7h5.11v5.68c-1.23,1.15-2.79,1.64-4.7,1.64-3.88,0-6.58-2.93-6.58-6.73"/>
  <g>
    <polygon class="cls-1" points="223.36 71.62 219.8 71.62 219.8 68.67 218.75 68.67 218.75 75.84 219.8 75.84 219.8 72.52 223.36 72.52 223.36 75.84 224.42 75.84 224.42 68.67 223.36 68.67 223.36 71.62"/>
    <polygon class="cls-1" points="255.42 69.54 255.42 68.67 250.94 68.67 250.94 75.84 255.56 75.84 255.56 74.95 251.99 74.95 251.99 72.51 254.89 72.51 254.89 71.64 251.99 71.64 251.99 69.54 255.42 69.54"/>
    <polygon class="cls-1" points="245.79 75.84 245.79 69.54 248.09 69.54 248.09 68.67 242.44 68.67 242.44 69.54 244.74 69.54 244.74 75.84 245.79 75.84"/>
    <path class="cls-1" d="M229.68,68.67l-2.59,7.17h1.05l.7-2.07h2.81l.69,2.07h1.11l-2.61-7.17h-1.16ZM231.38,72.94h-2.25l.36-1.05c.13-.41.25-.8.37-1.17.12-.37.24-.76.36-1.17h.05c.13.4.25.79.37,1.16.11.38.24.77.38,1.18l.35,1.05h0Z"/>
    <path class="cls-1" d="M262.99,74.16c-.07-.14-.14-.28-.21-.42-.07-.14-.14-.27-.21-.4-.07-.12-.14-.24-.21-.35l-2.69-4.32h-1.14v7.17h.97v-3.55c0-.38-.01-.78-.04-1.19-.03-.42-.05-.81-.08-1.18h.06c.06.14.13.28.2.42s.14.28.21.42c.07.13.14.26.21.39.07.12.14.24.21.35l2.67,4.34h1.15v-7.17h-.98v3.55c0,.38.01.78.04,1.19s.05.81.08,1.18h-.05c-.06-.15-.12-.29-.19-.43Z"/>
    <path class="cls-1" d="M211.85,70.16c.21-.24.46-.43.76-.56.3-.13.63-.19,1-.19.31,0,.6.06.85.17.25.12.47.28.66.48l.58-.64c-.22-.24-.51-.45-.87-.64-.36-.18-.77-.28-1.24-.28-.5,0-.96.09-1.38.26-.42.18-.78.42-1.1.75-.31.32-.55.72-.73,1.18s-.27.98-.27,1.57.09,1.13.26,1.59.41.85.71,1.17.66.56,1.07.73c.42.17.86.25,1.34.25.51,0,.95-.09,1.32-.26.37-.18.72-.44,1.05-.8l-.57-.58c-.24.25-.5.44-.78.56-.28.12-.6.19-.97.19s-.7-.06-.98-.19c-.29-.13-.53-.32-.73-.56s-.36-.54-.47-.9-.17-.76-.17-1.21.06-.83.17-1.18c.12-.35.28-.65.49-.89v-.02Z"/>
    <polygon class="cls-1" points="237.18 72.73 240.09 72.73 240.09 71.87 237.18 71.87 237.18 69.56 240.61 69.56 240.61 68.67 236.13 68.67 236.13 75.84 237.18 75.84 237.18 72.73"/>
    <rect class="cls-1" x="165.88" y="68.67" width="1.05" height="7.17"/>
    <path class="cls-1" d="M204.92,75.16c-.43,0-.84-.08-1.22-.23-.38-.16-.72-.38-1.03-.66l-.53.68c.33.32.73.58,1.19.78.46.19.98.29,1.56.29.4,0,.76-.05,1.08-.16s.6-.25.82-.44c.23-.18.4-.4.53-.65.12-.25.19-.52.19-.82s-.04-.54-.12-.74-.2-.37-.36-.52c-.16-.15-.34-.28-.56-.4s-.46-.23-.74-.34l-.92-.37c-.19-.07-.36-.15-.51-.22s-.27-.16-.38-.25c-.1-.09-.18-.2-.24-.3-.06-.11-.08-.24-.08-.4,0-.33.12-.59.37-.77s.58-.27,1-.27c.36,0,.69.07,1,.19.3.13.58.3.82.51l.53-.66c-.27-.25-.6-.46-.99-.63s-.83-.26-1.32-.26c-.36,0-.69.05-.99.14s-.56.22-.78.4c-.22.17-.39.38-.51.61-.12.24-.18.51-.18.81,0,.25.05.47.14.67s.22.37.38.53c.16.15.35.29.57.4s.45.22.69.33l.91.38c.18.06.34.13.49.21.15.07.27.16.38.25s.19.2.26.33c.06.13.1.29.1.47,0,.34-.13.62-.4.83-.27.21-.65.31-1.14.31v-.03Z"/>
    <rect class="cls-1" x="111.1" y="68.67" width="1.05" height="7.17"/>
    <path class="cls-1" d="M127.18,75.84h2.01c.58,0,1.1-.08,1.55-.24s.83-.39,1.14-.69.54-.68.71-1.13c.16-.45.24-.96.24-1.55s-.08-1.09-.24-1.54c-.16-.44-.4-.82-.71-1.12-.31-.3-.7-.53-1.16-.68s-.99-.23-1.59-.23h-1.95v7.17h0ZM128.23,69.5h.91c.45,0,.84.06,1.16.19.32.12.59.3.81.54s.38.52.48.85c.1.33.15.72.15,1.15s-.05.85-.15,1.2c-.1.35-.26.64-.48.87s-.49.41-.81.53c-.32.12-.71.18-1.16.18h-.91v-5.5h0Z"/>
    <path class="cls-1" d="M106.57,71c-.01.2-.02.39-.03.58,0,.19-.01.36-.01.52v3.73h.97v-7.17h-1.25l-1.43,3.74c-.09.25-.18.49-.26.73-.08.23-.16.48-.23.73h-.05c-.08-.25-.17-.49-.25-.74-.08-.24-.17-.48-.25-.72l-1.41-3.74h-1.26v7.17h.96v-3.73c0-.16,0-.33-.01-.52,0-.19-.02-.38-.04-.58-.01-.2-.03-.39-.04-.59-.01-.19-.03-.37-.05-.54h.06l.61,1.71,1.39,3.55h.64l1.39-3.55.61-1.71h.05c-.02.17-.03.35-.05.54-.01.19-.03.39-.04.59h-.02Z"/>
    <polygon class="cls-1" points="136 75.84 140.61 75.84 140.61 74.95 137.05 74.95 137.05 72.51 139.95 72.51 139.95 71.64 137.05 71.64 137.05 69.54 140.48 69.54 140.48 68.67 136 68.67 136 75.84"/>
    <polygon class="cls-1" points="68.67 75.84 69.72 75.84 69.72 72.49 73.16 75.84 74.52 75.84 70.8 72.22 74.31 68.67 73.01 68.67 69.72 71.98 69.72 68.67 68.67 68.67 68.67 75.84"/>
    <path class="cls-1" d="M76.76,75.84l.7-2.07h2.81l.69,2.07h1.11l-2.61-7.17h-1.16l-2.59,7.17h1.05ZM78.47,70.71c.12-.37.24-.76.36-1.17h.06c.13.4.25.79.37,1.16.12.38.24.77.38,1.18l.35,1.05h-2.25l.36-1.05c.13-.41.25-.8.37-1.17Z"/>
    <polygon class="cls-1" points="120.24 69.54 120.24 68.67 115.77 68.67 115.77 75.84 120.38 75.84 120.38 74.95 116.82 74.95 116.82 72.51 119.72 72.51 119.72 71.64 116.82 71.64 116.82 69.54 120.24 69.54"/>
    <path class="cls-1" d="M198.1,74.16c-.07-.14-.14-.28-.21-.42s-.14-.27-.22-.4c-.07-.12-.14-.24-.21-.35l-2.69-4.32h-1.14v7.17h.97v-3.55c0-.38,0-.78-.04-1.19-.03-.42-.06-.81-.08-1.18h.06c.06.14.13.28.2.42.07.14.14.28.21.42.07.13.14.26.21.39.07.12.14.24.21.35l2.67,4.34h1.15v-7.17h-.98v3.55c0,.38,0,.78.04,1.19.03.42.06.81.08,1.18h-.06c-.06-.15-.12-.29-.19-.43h.02Z"/>
    <path class="cls-1" d="M147.8,72.36c.24-.18.43-.41.56-.69.13-.27.2-.59.2-.94,0-.39-.07-.71-.2-.98-.13-.26-.32-.48-.57-.64-.24-.16-.53-.28-.87-.35-.33-.07-.7-.1-1.09-.1h-2.44v7.17h1.05v-2.91h1.4l1.82,2.91h1.14l-1.93-3.04s.05,0,.08-.02c.33-.1.61-.24.85-.42h0ZM144.45,69.54h1.25c.6,0,1.06.09,1.38.27s.48.5.48.96-.15.79-.46,1.01c-.3.22-.77.32-1.39.32h-1.26v-2.56Z"/>
    <path class="cls-1" d="M180.62,68.5c-.36,0-.69.05-.99.14s-.56.22-.78.4c-.22.17-.39.38-.51.61-.12.24-.18.51-.18.81,0,.25.05.47.14.67s.22.37.38.53c.16.15.35.29.57.4s.45.22.69.33l.92.38c.17.06.34.13.48.21.15.07.27.16.38.25s.19.2.26.33c.06.13.1.29.1.47,0,.34-.13.62-.4.83-.27.21-.65.31-1.14.31-.43,0-.84-.08-1.22-.23-.38-.16-.72-.38-1.03-.66l-.53.68c.33.32.73.58,1.18.78.46.19.98.29,1.56.29.4,0,.76-.05,1.08-.16s.6-.25.82-.44c.23-.18.4-.4.53-.65.12-.25.19-.52.19-.82s-.04-.54-.12-.74-.2-.37-.36-.52c-.16-.15-.34-.28-.56-.4s-.46-.23-.74-.34l-.91-.37c-.19-.07-.36-.15-.51-.22s-.27-.16-.37-.25c-.1-.09-.18-.2-.24-.3-.05-.11-.08-.24-.08-.4,0-.33.12-.59.37-.77s.58-.27,1-.27c.36,0,.69.07,1,.19.3.13.58.3.82.51l.53-.66c-.27-.25-.6-.46-.99-.63s-.83-.26-1.32-.26l-.02-.03Z"/>
    <polygon class="cls-1" points="186.11 75.84 190.72 75.84 190.72 74.95 187.16 74.95 187.16 72.51 190.06 72.51 190.06 71.64 187.16 71.64 187.16 69.54 190.58 69.54 190.58 68.67 186.11 68.67 186.11 75.84"/>
    <path class="cls-1" d="M172.66,75.16c-.43,0-.84-.08-1.22-.23-.38-.16-.72-.38-1.03-.66l-.53.68c.33.32.73.58,1.18.78.46.19.98.29,1.56.29.4,0,.76-.05,1.08-.16s.6-.25.83-.44c.23-.18.4-.4.53-.65.12-.25.19-.52.19-.82s-.04-.54-.12-.74-.2-.37-.36-.52c-.16-.15-.34-.28-.56-.4s-.46-.23-.74-.34l-.92-.37c-.19-.07-.36-.15-.51-.22s-.27-.16-.37-.25c-.1-.09-.18-.2-.24-.3-.05-.11-.08-.24-.08-.4,0-.33.12-.59.37-.77s.58-.27,1-.27c.36,0,.69.07,1,.19.3.13.58.3.82.51l.53-.66c-.27-.25-.6-.46-.99-.63s-.83-.26-1.32-.26c-.36,0-.69.05-.99.14s-.56.22-.78.4c-.22.17-.39.38-.51.61-.12.24-.18.51-.18.81,0,.25.05.47.14.67s.22.37.38.53c.16.15.35.29.57.4s.44.22.69.33l.91.38c.18.06.34.13.49.21.15.07.27.16.38.25s.19.2.26.33c.07.13.1.29.1.47,0,.34-.13.62-.4.83s-.65.31-1.14.31l-.02-.03Z"/>
    <path class="cls-1" d="M158.29,71.69c.07-.29.14-.57.2-.85s.12-.55.17-.83h.06c.05.28.11.55.16.83s.11.56.19.85l1.15,4.14h1.25l1.59-7.17h-.97l-.8,3.8c-.08.39-.16.77-.23,1.16-.07.38-.14.78-.2,1.18h-.06c-.09-.41-.18-.8-.28-1.18-.09-.38-.18-.77-.28-1.16l-1.02-3.8h-.98l-1.05,3.8c-.09.39-.18.77-.27,1.16-.09.38-.17.78-.26,1.18h-.05c-.07-.41-.15-.8-.22-1.18s-.15-.77-.23-1.16l-.79-3.8h-1.04l1.64,7.17h1.22l1.12-4.14h-.02Z"/>
    <path class="cls-1" d="M84.74,75.84h2.01c.58,0,1.1-.08,1.55-.24.45-.16.83-.39,1.14-.69s.54-.68.71-1.13c.16-.45.24-.96.24-1.55s-.08-1.09-.24-1.54c-.16-.44-.4-.82-.71-1.12s-.7-.53-1.16-.68c-.46-.15-.99-.23-1.59-.23h-1.95v7.17h0ZM85.8,69.5h.92c.45,0,.84.06,1.16.19.32.12.59.3.81.54s.38.52.48.85c.1.33.15.72.15,1.15s-.05.85-.15,1.2-.26.64-.48.87-.49.41-.81.53-.71.18-1.16.18h-.92v-5.5h0Z"/>
    <polygon class="cls-1" points="98.18 74.95 94.62 74.95 94.62 72.51 97.52 72.51 97.52 71.64 94.62 71.64 94.62 69.54 98.04 69.54 98.04 68.67 93.57 68.67 93.57 75.84 98.18 75.84 98.18 74.95"/>
    <path class="cls-1" d="M61.38,73.77h2.81l.69,2.07h1.11l-2.61-7.17h-1.16l-2.59,7.17h1.05s.7-2.07.7-2.07ZM62.4,70.71c.12-.37.24-.76.36-1.17h.05c.13.4.25.79.37,1.16.12.38.24.77.38,1.18l.35,1.05h-2.25l.36-1.05c.13-.41.25-.8.37-1.17h.01Z"/>
    <path class="cls-1" d="M130.65,60h1.05v-2.74l2.31-4.42h-1.08l-.96,1.95c-.12.26-.24.51-.37.77-.12.26-.25.52-.38.78h-.06c-.14-.27-.27-.53-.4-.78-.12-.25-.25-.51-.37-.77l-.96-1.95h-1.11l2.3,4.42v2.74h.03Z"/>
    <rect class="cls-1" x="152.63" y="52.83" width="1.05" height="7.17"/>
    <polygon class="cls-1" points="141.14 53.7 141.14 52.83 136.66 52.83 136.66 60 141.27 60 141.27 59.11 137.71 59.11 137.71 56.67 140.61 56.67 140.61 55.8 137.71 55.8 137.71 53.7 141.14 53.7"/>
    <path class="cls-1" d="M157.56,55.82c.16.15.35.29.57.4s.45.22.69.32l.91.38c.18.06.34.13.49.21.15.07.27.16.38.25s.19.2.26.33c.07.13.1.29.1.47,0,.34-.13.62-.4.82-.27.21-.65.31-1.14.31-.43,0-.84-.08-1.22-.23-.38-.16-.72-.38-1.03-.67l-.53.68c.33.32.73.58,1.18.78.46.19.98.29,1.56.29.4,0,.76-.05,1.08-.16s.6-.25.83-.44c.23-.18.4-.4.53-.65.12-.25.19-.52.19-.82s-.04-.54-.12-.74-.2-.37-.36-.52-.34-.28-.56-.39c-.22-.12-.46-.23-.74-.34l-.92-.37c-.19-.07-.36-.15-.51-.22s-.27-.16-.37-.25c-.1-.09-.18-.2-.24-.3-.05-.11-.08-.24-.08-.4,0-.33.12-.59.37-.77s.58-.27,1-.27c.36,0,.69.07,1,.19.3.13.58.3.82.51l.53-.66c-.27-.25-.6-.46-.99-.63-.39-.17-.83-.26-1.32-.26-.36,0-.69.05-.99.14s-.56.22-.78.4c-.22.17-.39.38-.51.61-.12.24-.18.51-.18.81,0,.25.05.47.14.67.09.2.22.37.38.53h-.02Z"/>
    <polygon class="cls-1" points="187 53.7 187 52.83 182.52 52.83 182.52 60 187.14 60 187.14 59.11 183.57 59.11 183.57 56.67 186.47 56.67 186.47 55.8 183.57 55.8 183.57 53.7 187 53.7"/>
    <path class="cls-1" d="M146.7,52.83h-2.44v7.17h1.05v-2.91h1.4l1.82,2.91h1.14l-1.93-3.04s.05,0,.08-.02c.33-.1.61-.24.85-.42.24-.18.43-.41.56-.69.13-.27.2-.59.2-.94,0-.39-.07-.71-.2-.98-.13-.26-.32-.48-.57-.64-.24-.16-.53-.28-.87-.35-.33-.07-.7-.1-1.1-.1h0ZM148.41,54.94c0,.45-.15.79-.46,1.01-.3.22-.77.33-1.39.33h-1.26v-2.56h1.25c.6,0,1.06.09,1.38.27s.48.5.48.96h0Z"/>
    <path class="cls-1" d="M194.51,58.32c-.07-.14-.14-.28-.21-.42s-.14-.27-.21-.39-.14-.24-.21-.35l-2.69-4.32h-1.14v7.17h.97v-3.55c0-.38,0-.78-.04-1.19-.03-.42-.05-.81-.08-1.18h.06c.06.14.13.28.2.42.07.14.14.28.21.42.07.13.14.26.21.39.07.12.14.24.21.35l2.67,4.34h1.15v-7.17h-.98v3.55c0,.38,0,.78.04,1.19.03.42.05.81.08,1.18h-.05c-.06-.15-.12-.29-.19-.43h0Z"/>
    <polygon class="cls-1" points="173.23 52.83 173.23 60 174.29 60 174.29 56.68 177.85 56.68 177.85 60 178.9 60 178.9 52.83 177.85 52.83 177.85 55.78 174.29 55.78 174.29 52.83 173.23 52.83"/>
    <rect class="cls-1" x="76.9" y="52.83" width="1.05" height="7.17"/>
    <path class="cls-1" d="M64.5,59.87c.36-.08.66-.21.93-.38.26-.17.47-.39.61-.66s.22-.58.22-.93c0-.49-.16-.88-.46-1.16-.31-.28-.72-.46-1.23-.55v-.05c.21-.06.4-.14.55-.24.16-.11.29-.22.39-.35.11-.13.18-.28.24-.44.05-.17.08-.33.08-.5,0-.32-.07-.6-.19-.82-.13-.23-.31-.41-.55-.55-.24-.14-.52-.24-.84-.31-.33-.07-.69-.1-1.09-.1h-2.32v7.17h2.48c.43,0,.83-.04,1.18-.12h0ZM61.89,53.66h1.23c.58,0,1.01.08,1.3.25.28.17.42.43.42.79,0,.38-.14.66-.41.86-.27.19-.72.29-1.34.29h-1.21v-2.19h.01ZM61.89,59.15v-2.52h1.36c.63,0,1.11.1,1.46.29.35.19.52.51.52.94,0,.23-.05.43-.14.6s-.23.3-.4.41c-.18.11-.38.18-.62.22-.24.04-.51.06-.82.06,0,0-1.36,0-1.36,0Z"/>
    <path class="cls-1" d="M125.35,57.93l.69,2.07h1.11l-2.61-7.17h-1.16l-2.59,7.17h1.05l.7-2.07h2.81ZM123.56,54.87c.12-.37.24-.76.36-1.17h.05c.13.4.25.79.37,1.16.12.38.24.77.38,1.18l.35,1.05h-2.25l.36-1.05c.13-.41.25-.8.37-1.17h0Z"/>
    <polygon class="cls-1" points="73.78 53.7 73.78 52.83 69.3 52.83 69.3 60 73.92 60 73.92 59.11 70.36 59.11 70.36 56.67 73.25 56.67 73.25 55.8 70.36 55.8 70.36 53.7 73.78 53.7"/>
    <path class="cls-1" d="M106.04,56.52c.24-.18.43-.41.56-.69.13-.27.2-.59.2-.94,0-.39-.07-.71-.2-.98-.13-.26-.32-.48-.57-.64-.24-.16-.53-.28-.87-.35-.33-.07-.7-.1-1.09-.1h-2.44v7.17h1.05v-2.91h1.4l1.82,2.91h1.14l-1.93-3.04s.05,0,.08-.02c.33-.1.61-.24.85-.42h0ZM102.68,53.7h1.25c.6,0,1.06.09,1.38.27s.48.5.48.96-.15.79-.46,1.01c-.3.22-.77.33-1.39.33h-1.26v-2.56h0Z"/>
    <path class="cls-1" d="M88.91,59.76c.45-.16.83-.39,1.14-.69s.55-.68.71-1.13c.16-.45.24-.96.24-1.54s-.08-1.09-.24-1.54c-.16-.44-.4-.82-.71-1.12s-.7-.53-1.16-.68c-.46-.15-.99-.23-1.59-.23h-1.95v7.17h2.01c.58,0,1.1-.08,1.55-.24ZM86.4,59.16v-5.5h.91c.45,0,.84.06,1.16.19.32.12.59.31.81.54.22.24.38.52.48.85.1.33.15.72.15,1.15s-.05.85-.15,1.2c-.1.35-.26.64-.48.87s-.49.41-.81.53-.71.18-1.16.18h-.91Z"/>
    <polygon class="cls-1" points="94.17 60 98.78 60 98.78 59.11 95.22 59.11 95.22 56.67 98.12 56.67 98.12 55.8 95.22 55.8 95.22 53.7 98.64 53.7 98.64 52.83 94.17 52.83 94.17 60"/>
    <path class="cls-1" d="M117.61,55.9c.16-.11.29-.22.39-.35.11-.13.18-.28.23-.44.05-.17.08-.33.08-.5,0-.32-.07-.6-.19-.82-.13-.23-.31-.41-.55-.55-.23-.14-.52-.24-.84-.31s-.69-.1-1.09-.1h-2.32v7.17h2.48c.43,0,.83-.04,1.18-.12.36-.08.66-.21.93-.38.26-.17.47-.39.61-.66s.21-.58.21-.93c0-.49-.15-.88-.46-1.16s-.72-.46-1.23-.55v-.05c.21-.06.4-.14.56-.24h0ZM117.2,56.92c.35.19.52.51.52.94,0,.23-.05.43-.14.6s-.23.3-.4.41-.38.18-.62.22c-.24.04-.51.06-.82.06h-1.36v-2.52h1.36c.63,0,1.12.1,1.46.29ZM116.93,55.56c-.27.19-.72.29-1.34.29h-1.21v-2.19h1.23c.58,0,1.01.08,1.3.25.28.17.42.43.42.79,0,.38-.14.66-.41.86h0Z"/>
    <path class="cls-1" d="M164.59,56.42c0,.6.08,1.13.26,1.59.17.46.41.85.71,1.17s.66.56,1.07.73c.42.17.86.25,1.34.25.51,0,.95-.09,1.32-.26.38-.18.72-.44,1.05-.8l-.57-.58c-.24.25-.5.44-.78.56-.28.12-.6.19-.97.19s-.7-.06-.98-.19c-.29-.13-.53-.32-.73-.56s-.36-.55-.47-.9c-.11-.36-.17-.76-.17-1.21s.06-.83.17-1.18c.12-.35.28-.65.48-.89s.46-.43.76-.56c.29-.13.63-.19,1-.19.31,0,.59.06.84.17.25.11.47.27.67.48l.58-.64c-.22-.24-.51-.45-.87-.64-.36-.18-.77-.28-1.24-.28-.5,0-.96.09-1.38.26-.42.18-.79.43-1.1.75-.31.32-.55.72-.73,1.18s-.27.98-.27,1.57v-.02Z"/>
    <path class="cls-1" d="M101.88,27c-.28,0-.51.08-.69.25s-.27.39-.27.67.09.52.27.69.41.25.69.25.51-.08.69-.25.27-.4.27-.69-.09-.51-.27-.67c-.18-.17-.41-.25-.69-.25Z"/>
    <rect class="cls-1" x="101.16" y="30.51" width="1.46" height="8.2"/>
    <path class="cls-1" d="M218.04,37.79c.35.36.77.64,1.24.83.47.19.98.29,1.53.29.52,0,1-.1,1.44-.29.44-.19.84-.45,1.19-.77l-.62-.91c-.25.22-.53.41-.85.55s-.66.21-1.03.21-.69-.07-1-.22-.58-.36-.8-.63c-.22-.28-.4-.6-.51-.98-.12-.38-.18-.79-.18-1.25s.07-.88.19-1.26c.13-.38.3-.71.53-.98.22-.27.49-.48.8-.62.31-.15.64-.22,1-.22.34,0,.64.06.9.18s.5.27.72.46l.71-.91c-.28-.28-.61-.51-1-.69s-.85-.27-1.39-.27-1.03.09-1.51.29c-.48.19-.9.47-1.26.83s-.66.82-.88,1.35c-.22.54-.33,1.15-.33,1.83s.1,1.29.29,1.83c.2.53.47.98.83,1.35h-.01Z"/>
    <path class="cls-1" d="M89.62,30.31c-.47,0-.93.1-1.38.29-.45.2-.84.48-1.19.86-.34.38-.62.83-.83,1.36s-.31,1.13-.31,1.8.1,1.28.3,1.81c.2.53.48.98.84,1.35.36.36.78.65,1.25.84s1,.29,1.56.29,1.05-.08,1.51-.24c.45-.16.86-.36,1.22-.61l-.54-.96c-.29.19-.6.34-.93.45s-.69.16-1.09.16c-.36,0-.7-.07-1.03-.19-.33-.13-.61-.33-.85-.59s-.43-.59-.57-.98c-.1-.27-.15-.59-.18-.93h5.41c.03-.15.06-.29.07-.42.01-.13.02-.28.02-.44,0-.58-.07-1.11-.21-1.58s-.35-.88-.63-1.21c-.28-.34-.63-.6-1.03-.78-.41-.18-.88-.28-1.41-.28ZM91.59,33.86h-4.16c.03-.26.08-.5.15-.71.14-.39.31-.71.52-.95.21-.24.45-.42.72-.53.27-.11.54-.17.83-.17.63,0,1.11.2,1.44.61.33.4.5.99.5,1.75Z"/>
    <path class="cls-1" d="M80.77,38.71l-.18.59c-.16.51-.38.91-.68,1.23-.3.31-.68.47-1.14.47-.09,0-.19,0-.29-.03-.1-.02-.2-.04-.3-.08l-.3,1.13c.13.07.28.11.44.14s.34.04.54.04c.41,0,.78-.07,1.1-.21s.6-.34.85-.6.46-.56.65-.91c.18-.35.35-.73.5-1.16l3.08-8.82h-1.45l-1.41,4.46c-.11.36-.22.74-.34,1.14-.11.4-.23.79-.35,1.16h-.07c-.14-.38-.27-.77-.4-1.17-.13-.4-.26-.78-.38-1.14l-1.63-4.46h-1.52l3.28,8.2v.02Z"/>
    <path class="cls-1" d="M192.88,39.27c-.21.31-.32.65-.32,1.01s.08.66.25.93c.17.28.4.51.71.69s.66.33,1.07.42c.41.09.87.14,1.37.14.64,0,1.22-.08,1.73-.23.52-.15.95-.36,1.31-.61.36-.26.64-.56.83-.91.2-.35.29-.71.29-1.09,0-.68-.24-1.18-.72-1.5-.48-.31-1.2-.47-2.16-.47h-1.58c-.27,0-.49-.02-.67-.07s-.32-.1-.43-.18c-.11-.07-.18-.17-.23-.28s-.08-.23-.08-.35c0-.21.05-.39.14-.53.1-.14.22-.27.36-.4.19.09.39.16.6.2s.41.07.6.07c.43,0,.82-.07,1.19-.2.36-.14.68-.32.96-.56.27-.24.49-.54.65-.88.16-.35.23-.74.23-1.18,0-.36-.06-.67-.19-.93-.13-.26-.29-.48-.48-.65v-.07h1.68v-1.13h-2.86c-.16-.06-.33-.1-.53-.14-.2-.04-.41-.06-.65-.06-.4,0-.79.07-1.17.2-.38.13-.71.33-.99.58-.29.25-.51.56-.68.92-.17.36-.25.77-.25,1.23,0,.49.11.93.33,1.3.22.38.47.67.75.88v.07c-.11.08-.22.17-.33.28s-.2.22-.29.35c-.08.13-.16.27-.21.41-.06.15-.08.31-.08.49,0,.33.07.6.21.81.14.21.32.39.53.54v.07c-.38.24-.68.51-.89.83h0ZM194.41,32.45c.09-.24.21-.43.36-.59s.33-.28.54-.36c.21-.08.42-.13.65-.13s.46.04.66.13c.21.08.39.21.54.36.15.16.27.35.36.59s.14.5.14.79-.04.55-.14.79c-.09.24-.21.43-.36.6-.15.16-.33.29-.54.38-.21.09-.43.14-.66.14s-.44-.05-.65-.14c-.21-.09-.39-.22-.54-.38s-.27-.36-.36-.6c-.09-.24-.13-.5-.13-.79s.04-.55.13-.79ZM194.03,39.38c.13-.23.33-.45.61-.65.18.04.36.08.54.09.18.02.35.02.52.02h1.38c.53,0,.93.07,1.2.22s.41.4.41.77c0,.21-.06.42-.18.61-.12.2-.3.37-.51.51-.22.15-.48.26-.79.35s-.66.14-1.05.14c-.73,0-1.3-.12-1.71-.37s-.61-.59-.61-1.03c0-.22.07-.45.19-.68v.02Z"/>
    <path class="cls-1" d="M226.68,32.8c.4-.4.77-.71,1.08-.91.32-.2.69-.3,1.1-.3.53,0,.91.16,1.14.5.24.33.35.87.35,1.62v5h1.46v-5.18c0-.53-.05-.99-.14-1.39-.1-.4-.25-.73-.45-1-.21-.27-.47-.47-.78-.61-.31-.14-.69-.21-1.13-.21-.55,0-1.04.13-1.48.4-.44.26-.84.58-1.21.95l.05-1.67v-3.27h-1.46v11.98h1.46v-5.91h0Z"/>
    <path class="cls-1" d="M105.12,33.54c.14.25.32.47.54.66.22.18.47.35.76.48s.59.26.9.37c.22.08.45.16.67.26s.42.2.59.32.3.25.4.4.15.32.15.54c0,.16-.03.31-.09.46-.06.15-.16.28-.29.4s-.29.2-.49.26c-.2.06-.43.09-.7.09-.49,0-.93-.08-1.32-.23-.39-.15-.76-.37-1.12-.66l-.66.86c.37.37.82.66,1.36.87.53.21,1.1.31,1.71.31.49,0,.93-.07,1.3-.19.38-.13.69-.3.94-.53.25-.22.44-.48.57-.78s.19-.61.19-.95c0-.37-.07-.69-.21-.95-.14-.26-.33-.49-.56-.68-.23-.19-.5-.35-.8-.49-.3-.13-.62-.26-.94-.37-.26-.09-.49-.18-.7-.26-.21-.08-.39-.18-.54-.29s-.27-.23-.35-.36c-.08-.14-.13-.29-.13-.47,0-.16.03-.3.08-.43.06-.13.14-.25.26-.35.12-.11.27-.19.46-.25s.41-.09.66-.09c.36,0,.69.06.99.17.3.11.6.27.89.47l.67-.86c-.33-.27-.71-.49-1.15-.66s-.91-.26-1.43-.26c-.45,0-.85.06-1.2.18s-.65.28-.9.5c-.25.21-.43.46-.56.75-.13.29-.19.59-.19.92s.07.63.21.88l.03-.04Z"/>
    <path class="cls-1" d="M162.86,30.31c-.56,0-1.06.13-1.5.4-.44.26-.85.59-1.23.98h-.05l-.12-1.18h-1.21v8.2h1.46v-5.91c.4-.4.77-.71,1.08-.91.32-.2.69-.3,1.1-.3.53,0,.91.16,1.14.5.24.33.35.87.35,1.62v5h1.46v-5.18c0-.53-.05-.99-.14-1.39-.1-.4-.25-.73-.46-1s-.47-.47-.78-.61c-.31-.14-.69-.21-1.13-.21h.03Z"/>
    <path class="cls-1" d="M202.23,37.78c.36.36.78.65,1.25.84.48.2.99.29,1.56.29s1.05-.08,1.51-.24c.45-.16.86-.36,1.22-.61l-.54-.96c-.29.19-.6.34-.93.45-.33.11-.69.16-1.08.16-.36,0-.7-.07-1.03-.19-.33-.13-.61-.33-.85-.59s-.43-.59-.57-.98c-.1-.27-.15-.59-.18-.93h5.41c.03-.15.06-.29.07-.42,0-.13.02-.28.02-.44,0-.58-.07-1.11-.21-1.58s-.35-.88-.63-1.21c-.28-.34-.62-.6-1.03-.78s-.88-.28-1.41-.28c-.47,0-.93.1-1.38.29-.45.2-.84.48-1.19.86-.34.38-.62.83-.82,1.36-.21.53-.31,1.13-.31,1.8s.1,1.28.3,1.81c.2.53.48.98.84,1.35h-.02ZM203.27,32.21c.21-.24.46-.42.72-.53.27-.11.54-.17.83-.17.63,0,1.11.2,1.44.61.33.4.5.99.5,1.75h-4.16c.03-.26.08-.5.15-.71.14-.39.31-.71.52-.95Z"/>
    <path class="cls-1" d="M62.23,37.87h.05c.37.33.76.58,1.15.77s.79.28,1.17.28c.47,0,.92-.1,1.35-.29.43-.2.8-.48,1.13-.87.33-.38.58-.85.77-1.4.19-.55.29-1.17.29-1.87,0-.64-.07-1.21-.21-1.72-.14-.51-.35-.95-.62-1.3-.27-.36-.61-.64-1.02-.84-.4-.2-.87-.3-1.4-.3-.45,0-.89.11-1.33.32-.44.21-.84.48-1.21.81l.05-1.45v-3.27h-1.46v11.98h1.16l.14-.84h0ZM62.4,32.63c.38-.37.75-.65,1.09-.83.35-.18.69-.27,1.03-.27.38,0,.7.07.97.21.26.14.48.34.66.6.17.26.3.57.37.93.07.37.11.77.11,1.22,0,.49-.06.94-.17,1.34s-.27.73-.48,1c-.21.27-.45.48-.72.62-.27.15-.58.22-.92.22-.27,0-.57-.06-.91-.18s-.68-.34-1.03-.64v-4.22h0Z"/>
    <path class="cls-1" d="M178.06,37.78c.36.36.78.65,1.25.84.48.2,1,.29,1.56.29s1.05-.08,1.51-.24c.45-.16.86-.36,1.22-.61l-.54-.96c-.29.19-.6.34-.93.45s-.69.16-1.09.16c-.36,0-.7-.07-1.03-.19-.33-.13-.61-.33-.85-.59s-.43-.59-.57-.98c-.1-.27-.15-.59-.18-.93h5.41c.03-.15.06-.29.07-.42,0-.13.02-.28.02-.44,0-.58-.07-1.11-.21-1.58s-.35-.88-.63-1.21c-.28-.34-.63-.6-1.03-.78-.41-.18-.88-.28-1.41-.28-.47,0-.93.1-1.38.29-.45.2-.84.48-1.19.86-.34.38-.62.83-.83,1.36s-.31,1.13-.31,1.8.1,1.28.3,1.81.48.98.84,1.35ZM179.1,32.21c.21-.24.45-.42.72-.53s.55-.17.83-.17c.63,0,1.11.2,1.44.61s.5.99.5,1.75h-4.16c.03-.26.08-.5.15-.71.14-.39.31-.71.52-.95Z"/>
    <path class="cls-1" d="M97.45,32.05c.37-.27.73-.4,1.08-.4.17,0,.31,0,.41.03.11.02.22.04.35.08l.32-1.26c-.13-.06-.27-.1-.4-.13-.13-.03-.3-.04-.49-.04-.47,0-.91.15-1.3.45-.4.3-.74.72-1.02,1.24h-.05l-.12-1.5h-1.21v8.2h1.46v-5.22c.28-.7.61-1.18.98-1.45h-.01Z"/>
    <path class="cls-1" d="M189.46,37.41c-.13.11-.29.2-.49.26-.2.06-.43.09-.7.09-.49,0-.93-.08-1.32-.23-.39-.15-.76-.37-1.12-.66l-.66.86c.37.37.82.66,1.35.87s1.1.31,1.71.31c.49,0,.93-.07,1.3-.19.38-.13.69-.3.94-.53.25-.22.44-.48.57-.78s.19-.61.19-.95c0-.37-.07-.69-.21-.95-.14-.26-.33-.49-.55-.68-.23-.19-.5-.35-.8-.49-.3-.13-.62-.26-.94-.37-.26-.09-.49-.18-.7-.26-.21-.08-.39-.18-.54-.29s-.27-.23-.35-.36c-.08-.14-.13-.29-.13-.47,0-.16.03-.3.08-.43.06-.13.14-.25.26-.35.12-.11.27-.19.46-.25s.41-.09.66-.09c.36,0,.69.06.99.17s.6.27.89.47l.67-.86c-.33-.27-.71-.49-1.14-.66-.44-.17-.91-.26-1.43-.26-.45,0-.85.06-1.2.18-.35.12-.65.28-.9.5-.25.21-.43.46-.56.75-.13.29-.19.59-.19.92s.07.63.21.88.32.47.54.66c.22.18.47.35.76.48s.59.26.9.37c.22.08.45.16.67.26.23.1.42.2.59.32s.3.25.4.4.15.32.15.54c0,.16-.03.31-.09.46-.06.15-.16.28-.29.4l.02-.04Z"/>
    <path class="cls-1" d="M213.64,37.41c-.13.11-.29.2-.49.26-.2.06-.43.09-.7.09-.49,0-.93-.08-1.32-.23-.39-.15-.76-.37-1.12-.66l-.66.86c.37.37.82.66,1.35.87s1.1.31,1.71.31c.49,0,.93-.07,1.3-.19.38-.13.69-.3.94-.53.25-.22.44-.48.57-.78s.19-.61.19-.95c0-.37-.07-.69-.21-.95-.14-.26-.33-.49-.56-.68s-.5-.35-.8-.49c-.3-.13-.62-.26-.94-.37-.26-.09-.49-.18-.7-.26-.21-.08-.39-.18-.54-.29s-.27-.23-.35-.36c-.08-.14-.13-.29-.13-.47,0-.16.03-.3.08-.43.06-.13.14-.25.26-.35.12-.11.27-.19.46-.25s.41-.09.66-.09c.36,0,.69.06.99.17s.6.27.89.47l.67-.86c-.33-.27-.71-.49-1.14-.66-.44-.17-.92-.26-1.43-.26-.45,0-.85.06-1.2.18-.35.12-.65.28-.9.5-.25.21-.43.46-.56.75-.13.29-.19.59-.19.92s.07.63.21.88.32.47.54.66.47.35.76.48.59.26.9.37c.22.08.45.16.67.26s.42.2.59.32.3.25.4.4.15.32.15.54c0,.16-.03.31-.09.46-.06.15-.16.28-.29.4l.03-.04Z"/>
    <path class="cls-1" d="M70.46,38.29c.22.2.47.36.77.46.29.11.61.16.96.16.51,0,.98-.11,1.41-.34.44-.22.86-.5,1.26-.83h.07l.1.96h1.23v-5c0-.52-.06-.98-.17-1.4-.11-.42-.29-.78-.53-1.07-.24-.29-.54-.52-.9-.68s-.79-.24-1.28-.24c-.33,0-.64.03-.95.09s-.6.14-.88.24c-.27.1-.53.21-.77.34-.24.12-.46.25-.65.39l.56,1.01c.17-.11.35-.22.53-.32s.38-.19.59-.26.42-.14.64-.18c.22-.05.44-.08.66-.08.34,0,.61.06.82.17s.38.26.5.44c.13.18.22.39.27.62.05.24.08.48.08.72-1.73.19-2.99.52-3.8.99-.8.47-1.2,1.17-1.2,2.09,0,.37.06.7.18.98.12.29.29.53.51.73h-.01ZM71.39,35.78c.12-.2.33-.38.61-.55.28-.16.65-.3,1.1-.41s1.01-.21,1.67-.29v2.14c-.37.35-.73.61-1.08.77-.35.17-.71.25-1.09.25-.19,0-.37-.02-.55-.07-.17-.04-.32-.11-.45-.21-.12-.09-.22-.22-.29-.38s-.11-.35-.11-.57c0-.26.06-.49.18-.69h.01Z"/>
    <path class="cls-1" d="M171.06,30.31c-.46,0-.91.1-1.34.3-.43.2-.81.49-1.14.86s-.58.82-.78,1.35c-.19.53-.29,1.13-.29,1.79s.08,1.29.24,1.83c.16.53.38.98.68,1.35.3.36.65.64,1.07.83.41.19.88.29,1.38.29s.93-.11,1.35-.34.79-.5,1.1-.83h.05l.12.96h1.21v-11.98h-1.46v3.13l.07,1.4c-.36-.29-.71-.52-1.05-.69s-.75-.25-1.22-.25h0ZM173.26,32.37v4.22c-.34.37-.67.65-.99.83-.33.18-.67.27-1.04.27-.35,0-.66-.07-.93-.21-.28-.14-.51-.34-.69-.61-.18-.26-.33-.59-.42-.97-.1-.38-.14-.81-.14-1.3s.06-.88.18-1.25c.12-.38.28-.7.49-.97s.45-.48.73-.62c.28-.15.57-.22.88-.22.34,0,.66.06.98.19.31.12.64.34.98.64h-.03Z"/>
    <path class="cls-1" d="M255.75,36.08c0,.43.04.81.13,1.15.08.34.22.62.4.87.19.24.43.43.73.56.3.14.68.2,1.13.2.29,0,.57-.03.83-.09.26-.06.51-.15.73-.26l-.3-1.04c-.16.08-.32.13-.47.16-.16.03-.31.04-.45.04-.24,0-.43-.03-.59-.1s-.28-.17-.38-.3c-.09-.13-.16-.3-.21-.49-.05-.19-.07-.41-.07-.66v-4.41h2.2v-1.19h-2.2v-2.63h-1.23l-.18,2.63-1.28.08v1.11h1.21v4.38h0Z"/>
    <path class="cls-1" d="M247.78,32.8c.4-.4.77-.71,1.09-.91.32-.2.69-.3,1.1-.3.53,0,.91.16,1.15.5.23.33.35.87.35,1.62v5h1.46v-5.18c0-.53-.05-.99-.14-1.39-.09-.4-.25-.73-.45-1-.21-.27-.47-.47-.78-.61-.31-.14-.69-.21-1.13-.21-.55,0-1.04.13-1.48.4-.44.26-.84.58-1.21.95l.05-1.67v-3.27h-1.46v11.98h1.46v-5.91h-.01Z"/>
    <path class="cls-1" d="M239.14,37.79c.35.36.77.64,1.24.83.47.19.98.29,1.53.29.52,0,1-.1,1.44-.29.44-.19.84-.45,1.19-.77l-.62-.91c-.25.22-.53.41-.85.55s-.67.21-1.04.21-.69-.07-1-.22-.58-.36-.8-.63c-.22-.28-.4-.6-.51-.98-.12-.38-.18-.79-.18-1.25s.06-.88.19-1.26c.13-.38.31-.71.53-.98s.49-.48.8-.62c.31-.15.64-.22,1-.22.34,0,.64.06.9.18s.5.27.72.46l.71-.91c-.28-.28-.61-.51-1-.69s-.85-.27-1.39-.27-1.03.09-1.51.29c-.48.19-.9.47-1.26.83s-.66.82-.88,1.35c-.22.54-.33,1.15-.33,1.83s.1,1.29.29,1.83c.2.53.47.98.82,1.35h0Z"/>
    <polygon class="cls-1" points="143.34 27.67 141.86 27.67 141.86 38.71 148.12 38.71 148.12 37.45 143.34 37.45 143.34 27.67"/>
    <path class="cls-1" d="M130.18,37.78c.36.36.78.65,1.25.84s1,.29,1.56.29,1.05-.08,1.51-.24c.45-.16.86-.36,1.22-.61l-.54-.96c-.29.19-.6.34-.93.45-.33.11-.69.16-1.09.16-.36,0-.7-.07-1.03-.19-.33-.13-.61-.33-.85-.59s-.43-.59-.57-.98c-.1-.27-.15-.59-.18-.93h5.41c.03-.15.06-.29.07-.42,0-.13.02-.28.02-.44,0-.58-.07-1.11-.21-1.58s-.35-.88-.63-1.21c-.28-.34-.63-.6-1.03-.78-.41-.18-.88-.28-1.41-.28-.47,0-.93.1-1.38.29-.45.2-.84.48-1.19.86-.34.38-.62.83-.83,1.36s-.31,1.13-.31,1.8.1,1.28.3,1.81c.2.53.48.98.84,1.35ZM131.22,32.21c.21-.24.45-.42.72-.53s.54-.17.83-.17c.63,0,1.11.2,1.44.61.33.4.5.99.5,1.75h-4.16c.03-.26.08-.5.15-.71.13-.39.31-.71.52-.95Z"/>
    <path class="cls-1" d="M114.5,30.6c-.48.19-.9.47-1.26.83s-.66.82-.88,1.35c-.22.54-.33,1.15-.33,1.83s.1,1.29.29,1.83c.2.53.47.98.82,1.35.35.36.77.64,1.24.83.47.19.98.29,1.53.29.52,0,.99-.1,1.44-.29.44-.19.84-.45,1.19-.77l-.62-.91c-.25.22-.53.41-.85.55s-.66.21-1.03.21-.69-.07-1-.22-.58-.36-.8-.63c-.22-.28-.4-.6-.51-.98-.12-.38-.18-.79-.18-1.25s.06-.88.19-1.26c.13-.38.31-.71.53-.98s.49-.48.8-.62c.31-.15.64-.22,1-.22.34,0,.64.06.9.18s.5.27.72.46l.71-.91c-.28-.28-.61-.51-1-.69s-.85-.27-1.39-.27-1.03.09-1.51.29Z"/>
    <path class="cls-1" d="M261.75,37.78c.36.36.78.65,1.25.84.48.2,1,.29,1.56.29s1.05-.08,1.51-.24c.45-.16.86-.36,1.22-.61l-.54-.96c-.29.19-.6.34-.93.45s-.69.16-1.09.16c-.36,0-.7-.07-1.03-.19-.33-.13-.61-.33-.85-.59-.24-.26-.43-.59-.57-.98-.1-.27-.15-.59-.18-.93h5.41c.03-.15.06-.29.07-.42.01-.13.02-.28.02-.44,0-.58-.07-1.11-.21-1.58-.14-.47-.35-.88-.63-1.21-.28-.34-.63-.6-1.04-.78s-.88-.28-1.4-.28c-.47,0-.93.1-1.38.29-.45.2-.85.48-1.19.86-.34.38-.62.83-.83,1.36s-.31,1.13-.31,1.8.1,1.28.3,1.81c.2.53.48.98.84,1.35ZM262.8,32.21c.21-.24.45-.42.72-.53s.54-.17.82-.17c.63,0,1.11.2,1.44.61s.5.99.5,1.75h-4.16c.03-.26.08-.5.15-.71.14-.39.31-.71.52-.95h.01Z"/>
    <path class="cls-1" d="M235.13,28.86c.28,0,.51-.08.69-.25.18-.17.27-.4.27-.69s-.09-.51-.27-.67c-.18-.17-.41-.25-.69-.25s-.51.08-.69.25c-.18.17-.27.39-.27.67s.09.52.27.69c.18.17.41.25.69.25Z"/>
    <path class="cls-1" d="M149.71,36.57c0,.37.06.7.18.98.12.29.29.53.51.73s.47.36.77.46c.29.11.61.16.96.16.51,0,.98-.11,1.41-.34s.86-.5,1.26-.83h.07l.1.96h1.23v-5c0-.52-.06-.98-.17-1.4-.11-.42-.29-.78-.53-1.07-.24-.29-.54-.52-.9-.68s-.78-.24-1.28-.24c-.33,0-.64.03-.95.09s-.6.14-.88.24-.53.21-.77.34c-.24.12-.46.25-.65.39l.55,1.01c.17-.11.34-.22.53-.32.18-.1.38-.19.59-.26.21-.07.42-.14.64-.18.22-.05.44-.08.67-.08.34,0,.61.06.82.17s.38.26.51.44c.13.18.22.39.27.62.05.24.08.48.08.72-1.73.19-2.99.52-3.79.99-.8.47-1.2,1.17-1.2,2.09h-.03ZM151.32,35.78c.12-.2.33-.38.61-.55.28-.16.65-.3,1.1-.41.45-.11,1.01-.21,1.67-.29v2.14c-.37.35-.73.61-1.08.77-.35.17-.71.25-1.09.25-.19,0-.37-.02-.55-.07s-.32-.11-.45-.21c-.12-.09-.22-.22-.29-.38-.07-.16-.11-.35-.11-.57,0-.26.06-.49.18-.69h0Z"/>
    <rect class="cls-1" x="234.41" y="30.51" width="1.46" height="8.2"/>
    <path class="cls-1" d="M122.96,30.71c-.44.26-.84.58-1.21.95l.05-1.67v-3.27h-1.46v11.98h1.46v-5.91c.4-.4.77-.71,1.09-.91s.69-.3,1.1-.3c.53,0,.91.16,1.15.5.23.33.35.87.35,1.62v5h1.46v-5.18c0-.53-.05-.99-.14-1.39-.1-.4-.25-.73-.45-1-.21-.27-.47-.47-.78-.61-.31-.14-.69-.21-1.13-.21-.55,0-1.04.13-1.48.4h-.01Z"/>
    <path class="cls-1" d="M158.38,17.71c.21.27.47.47.78.61.31.14.68.21,1.11.21.57,0,1.07-.13,1.5-.4s.83-.62,1.2-1.06h.05l.12,1.26h1.21v-8.2h-1.46v5.77c-.38.47-.73.81-1.05,1.03s-.68.32-1.09.32c-.53,0-.91-.16-1.15-.5-.23-.33-.35-.87-.35-1.62v-5h-1.46v5.18c0,.52.05.98.14,1.38s.25.74.45,1.01h0Z"/>
    <polygon class="cls-1" points="62.55 13.11 67.57 18.33 69.47 18.33 64.1 12.73 69.1 7.29 67.26 7.29 62.55 12.42 62.55 7.29 61.07 7.29 61.07 18.33 62.55 18.33 62.55 13.11"/>
    <rect class="cls-1" x="107.67" y="10.13" width="1.46" height="8.2"/>
    <path class="cls-1" d="M108.39,8.49c.28,0,.51-.08.69-.25s.27-.4.27-.69-.09-.5-.27-.67-.41-.25-.69-.25-.51.08-.69.25-.27.39-.27.67.09.52.27.69.41.25.69.25Z"/>
    <path class="cls-1" d="M122.66,17.04c-.13.11-.29.2-.49.26s-.43.09-.7.09c-.49,0-.93-.08-1.32-.23s-.76-.37-1.12-.66l-.66.86c.37.37.82.66,1.36.87.53.21,1.1.31,1.71.31.49,0,.93-.06,1.31-.19.38-.13.69-.31.94-.53.25-.22.44-.48.57-.78.13-.3.19-.61.19-.95,0-.37-.07-.69-.21-.95s-.33-.49-.56-.68c-.23-.19-.5-.35-.8-.49-.3-.14-.62-.26-.94-.37-.26-.09-.49-.18-.7-.26-.21-.09-.39-.18-.54-.29s-.27-.23-.35-.36c-.08-.14-.13-.29-.13-.47,0-.16.03-.3.08-.43.06-.13.14-.25.26-.35s.27-.19.46-.25.41-.09.66-.09c.36,0,.69.06.99.17s.6.27.89.47l.67-.86c-.33-.27-.71-.49-1.14-.67-.44-.17-.92-.26-1.43-.26-.45,0-.85.06-1.2.18s-.65.28-.9.5-.43.46-.56.75-.19.59-.19.92.07.63.21.88.32.47.54.66c.22.18.47.35.76.48.29.14.59.26.9.37.22.08.45.17.67.26.22.1.42.2.59.32s.3.25.4.4.15.33.15.54c0,.16-.03.31-.09.46s-.16.28-.29.4v-.03Z"/>
    <path class="cls-1" d="M152.97,18.33h1.46v-7h1.72v-1.2h-1.72v-1.23c0-.52.1-.91.29-1.17.19-.26.48-.4.86-.4.15,0,.29.02.45.04.15.03.31.07.46.13l.32-1.08c-.18-.08-.39-.15-.63-.2-.24-.06-.49-.08-.75-.08-.42,0-.78.07-1.09.2-.31.13-.57.32-.77.56s-.35.53-.45.87c-.09.34-.14.71-.14,1.13v1.23l-1.2.08v1.11h1.2v7h-.01Z"/>
    <path class="cls-1" d="M71.1,17.41c.35.37.76.65,1.22.84s.94.29,1.45.29.99-.1,1.45-.29.86-.47,1.21-.84.62-.82.83-1.36c.21-.53.31-1.14.31-1.81s-.1-1.29-.31-1.83c-.21-.53-.49-.98-.83-1.35-.35-.36-.75-.64-1.21-.84s-.94-.29-1.45-.29-.99.1-1.45.29c-.46.2-.87.48-1.22.84-.35.37-.63.81-.84,1.35-.21.53-.31,1.14-.31,1.83s.1,1.28.31,1.81c.21.53.49.99.84,1.36ZM71.63,12.99c.11-.38.27-.7.47-.98.2-.27.44-.49.72-.64.28-.15.59-.23.94-.23s.65.08.93.23c.29.15.53.36.72.64.2.28.35.6.46.98.11.38.17.79.17,1.25s-.06.88-.17,1.25c-.11.38-.27.7-.46.98-.2.28-.44.48-.72.63-.29.15-.6.22-.93.22s-.66-.07-.94-.22-.52-.36-.72-.63c-.2-.27-.36-.6-.47-.98-.11-.38-.17-.79-.17-1.25s.06-.88.17-1.25Z"/>
    <path class="cls-1" d="M115.27,17.04c-.13.11-.29.2-.49.26s-.43.09-.7.09c-.49,0-.93-.08-1.32-.23s-.76-.37-1.12-.66l-.66.86c.37.37.82.66,1.35.87.53.21,1.1.31,1.71.31.49,0,.93-.06,1.3-.19.38-.13.69-.31.94-.53.25-.22.44-.48.57-.78.13-.3.19-.61.19-.95,0-.37-.07-.69-.21-.95s-.33-.49-.55-.68c-.23-.19-.5-.35-.8-.49-.3-.14-.62-.26-.94-.37-.26-.09-.49-.18-.7-.26-.21-.09-.39-.18-.54-.29s-.27-.23-.35-.36c-.08-.14-.13-.29-.13-.47,0-.16.03-.3.08-.43.06-.13.14-.25.26-.35.12-.11.27-.19.46-.25s.41-.09.66-.09c.36,0,.69.06.99.17.3.11.6.27.89.47l.67-.86c-.33-.27-.71-.49-1.14-.67-.44-.17-.91-.26-1.43-.26-.45,0-.85.06-1.2.18s-.65.28-.9.5c-.25.21-.44.46-.56.75-.13.29-.19.59-.19.92s.07.63.21.88.32.47.54.66c.22.18.47.35.76.48.29.14.59.26.9.37.22.08.45.17.67.26.22.1.42.2.59.32s.3.25.4.4.15.33.15.54c0,.16-.03.31-.09.46s-.16.28-.29.4l.02-.03Z"/>
    <path class="cls-1" d="M95.17,12.42c.37-.4.72-.71,1.05-.91s.65-.3.95-.3c.52,0,.89.17,1.13.5s.35.87.35,1.62v5h1.46v-5.91c.37-.4.72-.71,1.05-.91s.65-.3.95-.3c.52,0,.89.17,1.13.5s.35.87.35,1.62v5h1.48v-5.18c0-1.04-.21-1.84-.62-2.39s-1.04-.83-1.89-.83c-.49,0-.96.14-1.4.43s-.87.66-1.3,1.12c-.17-.48-.43-.86-.78-1.14-.35-.28-.84-.41-1.47-.41-.49,0-.95.14-1.38.4-.43.27-.81.6-1.16.98h-.05l-.12-1.18h-1.21v8.2h1.46v-5.91h.02Z"/>
    <path class="cls-1" d="M162.73,8.47c.26,0,.47-.08.63-.24s.24-.37.24-.61-.08-.46-.24-.62c-.16-.17-.37-.25-.61-.25s-.47.08-.63.25-.24.38-.24.62.08.45.24.61.37.24.62.24h0Z"/>
    <path class="cls-1" d="M159.45,8.47c.26,0,.47-.08.63-.24s.24-.37.24-.61-.08-.46-.24-.62c-.16-.17-.37-.25-.61-.25-.26,0-.47.08-.63.25s-.24.38-.24.62.08.45.24.61.37.24.61.24Z"/>
    <path class="cls-1" d="M141.24,12.42c.4-.4.77-.71,1.09-.91.32-.2.69-.3,1.1-.3.53,0,.91.17,1.15.5.23.33.35.87.35,1.62v5h1.46v-5.18c0-.53-.05-.99-.14-1.39-.1-.4-.25-.73-.45-1-.21-.27-.47-.47-.78-.61-.31-.14-.69-.21-1.13-.21-.56,0-1.06.13-1.5.4-.44.26-.85.59-1.23.98h-.05l-.12-1.18h-1.21v8.2h1.46v-5.91h0Z"/>
    <path class="cls-1" d="M127.11,8.49c.28,0,.51-.08.69-.25s.27-.4.27-.69-.09-.5-.27-.67-.41-.25-.69-.25-.51.08-.69.25-.27.39-.27.67.09.52.27.69.41.25.69.25Z"/>
    <path class="cls-1" d="M81.2,12.42c.37-.4.72-.71,1.05-.91s.65-.3.95-.3c.52,0,.89.17,1.13.5.23.33.35.87.35,1.62v5h1.46v-5.91c.37-.4.72-.71,1.05-.91s.65-.3.95-.3c.52,0,.89.17,1.13.5.23.33.35.87.35,1.62v5h1.48v-5.18c0-1.04-.2-1.84-.61-2.39s-1.04-.83-1.89-.83c-.49,0-.96.14-1.4.43s-.87.66-1.3,1.12c-.17-.48-.43-.86-.78-1.14-.35-.28-.84-.41-1.47-.41-.49,0-.95.14-1.38.4-.43.27-.81.6-1.16.98h-.05l-.12-1.18h-1.21v8.2h1.46v-5.91h.01Z"/>
    <path class="cls-1" d="M168.49,13.11c.28-.7.61-1.18.98-1.45.37-.27.73-.4,1.08-.4.17,0,.3,0,.41.02s.22.04.35.08l.32-1.26c-.13-.06-.27-.1-.4-.13-.13-.03-.3-.04-.49-.04-.47,0-.91.15-1.3.46s-.74.72-1.02,1.24h-.05l-.12-1.5h-1.21v8.2h1.46v-5.22h-.01Z"/>
    <rect class="cls-1" x="126.39" y="10.13" width="1.46" height="8.2"/>
    <path class="cls-1" d="M131.15,17.41c.35.37.76.65,1.22.84s.94.29,1.45.29.99-.1,1.45-.29c.46-.19.86-.47,1.21-.84s.63-.82.83-1.36c.21-.53.31-1.14.31-1.81s-.1-1.29-.31-1.83c-.21-.53-.49-.98-.83-1.35-.35-.36-.75-.64-1.21-.84s-.94-.29-1.45-.29-.99.1-1.45.29c-.46.2-.87.48-1.22.84-.35.37-.63.81-.84,1.35-.21.53-.31,1.14-.31,1.83s.1,1.28.31,1.81c.21.53.49.99.84,1.36ZM131.68,12.99c.11-.38.27-.7.47-.98.2-.27.44-.49.72-.64.28-.15.59-.23.94-.23s.65.08.93.23c.29.15.53.36.72.64.2.28.35.6.46.98.11.38.17.79.17,1.25s-.06.88-.17,1.25c-.11.38-.27.7-.46.98-.2.28-.44.48-.72.63-.29.15-.6.22-.93.22s-.66-.07-.94-.22-.52-.36-.72-.63c-.2-.27-.36-.6-.47-.98-.11-.38-.17-.79-.17-1.25s.06-.88.17-1.25Z"/>
  </g>
</svg>